<svg width="53" height="64" viewBox="0 0 53 64" fill="none" xmlns="http://www.w3.org/2000/svg">
    <g clip-path="url(#clip0_1_54)">
        <path fill-rule="evenodd" clip-rule="evenodd"
            d="M38.6768 8.64H14.3232C14.2898 8.64 14.2578 8.65286 14.2339 8.67586L2.94742 19.5286C2.92256 19.5525 2.90854 19.5853 2.90854 19.6196V48.8604C2.90854 48.8947 2.92256 48.9275 2.94742 48.9514L14.2339 59.8041C14.2578 59.8271 14.2898 59.84 14.3232 59.84H38.6768C38.7102 59.84 38.7422 59.8271 38.7661 59.8041L50.0526 48.9514C50.0774 48.9275 50.0915 48.8947 50.0915 48.8604V19.6196C50.0915 19.5853 50.0774 19.5525 50.0526 19.5286L38.7661 8.67586C38.7422 8.65286 38.7102 8.64 38.6768 8.64Z"
            stroke="#BC67EE" stroke-width="9" />
        <path fill-rule="evenodd" clip-rule="evenodd"
            d="M50.0915 22.7523V19.6196C50.0915 19.5853 50.0774 19.5525 50.0526 19.5286L38.7661 8.67586C38.7422 8.65286 38.7102 8.64 38.6768 8.64H35.3982L2.90854 40.8109V48.8604C2.90854 48.8947 2.92256 48.9275 2.94742 48.9514L13.4417 59.0424L50.0915 22.7523Z"
            stroke="#C275EF" stroke-width="9" />
        <path fill-rule="evenodd" clip-rule="evenodd"
            d="M38.6768 1.28H14.3232C13.5332 1.28 12.7743 1.58482 12.2076 2.12976L0.921143 12.9825C0.332286 13.5487 0 14.3269 0 15.1396V44.3804C0 45.1931 0.332286 45.9713 0.921143 46.5375L12.2076 57.3902C12.7743 57.9352 13.5332 58.24 14.3232 58.24H38.6768C39.4668 58.24 40.2257 57.9352 40.7924 57.3902L52.0789 46.5375C52.6677 45.9713 53 45.1931 53 44.3804V15.1396C53 14.3269 52.6677 13.5487 52.0789 12.9825L40.7924 2.12976C40.2257 1.58482 39.4668 1.28 38.6768 1.28Z"
            fill="#CE82FF" />
        <path fill-rule="evenodd" clip-rule="evenodd"
            d="M38.7176 1.28042C39.4928 1.29071 40.2354 1.59434 40.7924 2.12991L52.0789 12.9826C52.6677 13.5489 53 14.327 53 15.1398V23.9454L18.3654 58.2401H14.3232C13.5332 58.2401 12.7743 57.9353 12.2076 57.3904L0.921143 46.5377C0.332286 45.9714 0 45.1933 0 44.3805V39.6181L38.7176 1.28042V1.28042Z"
            fill="#D28DFF" />
        <path
            d="M38.6768 1.28H14.3232C13.5332 1.28 12.7743 1.58482 12.2076 2.12976L0.921143 12.9825C0.332286 13.5487 0 14.3269 0 15.1396V44.3804C0 45.1931 0.332286 45.9713 0.921143 46.5375L12.2076 57.3902C12.7743 57.9352 13.5332 58.24 14.3232 58.24H38.6768C39.4668 58.24 40.2257 57.9352 40.7924 57.3902L52.0789 46.5375C52.6677 45.9713 53 45.1931 53 44.3804V15.1396C53 14.3269 52.6677 13.5487 52.0789 12.9825L40.7924 2.12976C40.2257 1.58482 39.4668 1.28 38.6768 1.28ZM37.549 7.04L47.1829 16.3037V43.2163L37.549 52.48H15.451L5.81707 43.2163V16.3037L15.451 7.04H37.549Z"
            fill="#DB9DFF" />
        <path
            d="M0 39.6181L5.81707 33.8581V43.2164L15.451 52.4801H24.1825L18.3654 58.2401H14.3232C13.5332 58.2401 12.7743 57.9353 12.2076 57.3904L0.921143 46.5377C0.332286 45.9714 0 45.1933 0 44.3805V39.6181ZM53 23.9454L47.1829 29.7054V16.3039L37.549 7.04015H32.9008L38.7176 1.28042C39.4928 1.29071 40.2354 1.59434 40.7924 2.12991L52.0789 12.9826C52.6677 13.5489 53 14.327 53 15.1398V23.9454Z"
            fill="#DEA6FF" />
        <path
            d="M25.7324 21.0515L29.3008 17.518C32.3984 14.4508 37.5134 14.5427 40.7255 17.7232C43.9375 20.9038 44.0303 25.9686 40.9327 29.0358L32.1831 37.6995C32.0035 37.8774 31.7579 37.9743 31.504 37.9677L26.885 37.8467C26.7995 37.8445 26.7179 37.8763 26.6585 37.9351C26.5362 38.0561 26.5399 38.2561 26.6667 38.3816L28.7531 40.4476C28.9339 40.6266 28.9339 40.9168 28.7531 41.0958L27.0328 42.7992C26.251 43.5734 25.1185 43.9001 24.0083 43.6716L16.1527 42.0549L14.5199 34.2763C14.2892 33.1771 14.6191 32.0557 15.401 31.2815L22.3109 24.4394C22.4916 24.2604 22.7848 24.2604 22.9656 24.4394L25.043 26.4965C25.1698 26.622 25.3717 26.6256 25.494 26.5046C25.5533 26.4458 25.5855 26.365 25.5832 26.2803L25.4615 21.724C25.4548 21.4725 25.5527 21.2294 25.7324 21.0515Z"
            fill="#954EC1" />
        <path d="M33.3453 25.1893L13.6485 44.6928" stroke="#7933A3" stroke-width="3.52344"
            stroke-linecap="round" />
        <path
            d="M12.5861 1.82055L15.4416 7.04904L5.81707 16.3037V16.3373L0.498337 13.4892C0.619187 13.3069 0.760634 13.1368 0.921144 12.9825L12.2076 2.12976C12.3259 2.01603 12.4525 1.91277 12.5861 1.82055Z"
            fill="#D48FFF" />
        <path
            d="M40.3459 57.7451L37.4703 52.48H37.549L47.1164 43.2803L52.4344 46.128C52.3293 46.2738 52.2105 46.4109 52.0789 46.5375L40.7924 57.3902C40.6542 57.5231 40.5046 57.6417 40.3459 57.7451Z"
            fill="#D48FFF" />
    </g>
    <defs>
        <clipPath id="clip0_1_54">
            <rect width="53" height="64" fill="white" />
        </clipPath>
    </defs>
</svg>