<?xml version="1.0" encoding="utf-8"?>
<!-- Svg Vector Icons : http://www.onlinewebfonts.com/icon -->
<!DOCTYPE svg PUBLIC "-//W3C//DTD SVG 1.1//EN" "http://www.w3.org/Graphics/SVG/1.1/DTD/svg11.dtd">
<svg version="1.1" xmlns="http://www.w3.org/2000/svg" xmlns:xlink="http://www.w3.org/1999/xlink" x="0px" y="0px" viewBox="0 0 256 256" enable-background="new 0 0 256 256" xml:space="preserve">
<metadata> Svg Vector Icons : http://www.onlinewebfonts.com/icon </metadata>
<g><g><path fill="#000000" d="M89,96.7c0,22.6,18.3,40.8,40.8,40.8c22.6,0,40.8-18.3,40.8-40.8c0-22.6-18.3-40.8-40.8-40.8C107.3,55.8,89,74.1,89,96.7L89,96.7z"/><path fill="#000000" d="M128,10C63.1,10,10,63.1,10,128c0,38.6,18.6,72.6,47.2,94.4l0,0c0.5,0,0.5,0.5,0.9,0.5c1.4,0.9,3.2,2.3,4.5,3.2c11.8,8.2,25.4,14.1,39.9,17.2c0.9,0.5,2.3,0.5,3.2,0.5c1.4,0.5,2.7,0.5,4.1,0.9c2.3,0.5,5,0.5,7.3,0.9c0.9,0,1.4,0,2.3,0c2.7,0,5.9,0.5,8.6,0.5c1.8,0,4.1,0,5.9,0c0.9,0,1.8,0,2.7,0s1.8,0,2.7,0c1.4,0,2.7-0.5,4.1-0.5c0.5,0,0.9,0,1.4,0c1.8-0.5,3.2-0.5,4.5-0.9h0.5c54.9-10.5,96.2-58.6,96.2-115.7C246,63.1,192.9,10,128,10z M205.6,210.1c-0.5-40.8-33.6-72.6-74.4-72.6c-41.3,0-74.9,33.6-74.9,74.9c0,0.9,0,2.3,0,3.2c-25.4-20.9-41.8-52.7-41.8-88.1C14.5,64.9,65.4,14.1,128,14.1c62.6,0,113.5,50.8,113.5,113.4C241.5,160.2,227.8,189.7,205.6,210.1z"/></g></g>
</svg>