<svg version="1.1" id="Layer_1" xmlns="http://www.w3.org/2000/svg" x="0" y="0" viewBox="0 0 283.4 66.4" xml:space="preserve"><style type="text/css">.st0{fill:#fff}</style><title>Duolingo_wordmark_white</title><path class="st0" d="M246.2 33.2c0-10.5 8-17.9 18.6-17.9 10.6 0 18.6 7.4 18.6 17.9s-8 17.9-18.6 17.9c-10.6 0-18.6-7.5-18.6-17.9zm26.7 0c0-4.9-3.1-8.5-8-8.5s-8 3.6-8 8.5 3.1 8.5 8 8.5 8-3.5 8-8.5zm-33.7-8.3c.7 1.4 1 2.9 1 4.5 0 3.8-2 7.3-5.2 10 4.4 2.1 7 7.2 7 12 0 9-7.3 15-18.4 15s-18.4-5.9-18.4-15c-.1-5 2.6-9.6 7-12-3.3-2.7-5.2-6.2-5.2-10 0-7.9 6.2-13.7 16-13.7 5.8 0 7.5 1 10.8 1 2.2.1 4.5-.5 6.4-1.7.7-.4 1.4-.7 2.2-.7 1.3 0 2 1.3 2 2.9.3 3.5-1.9 6.6-5.2 7.7zm-7.5 26.2c0-4-3.1-6.8-8-6.8s-8 2.7-8 6.8c0 3.8 3.4 6.8 8 6.8s8-3 8-6.8zM217.2 30c.1 3.5 3.1 6.3 6.7 6.2 3.4-.1 6-2.8 6.2-6.2 0-3.6-2.6-6.1-6.4-6.1s-6.5 2.4-6.5 6.1zm-16.8 3.9v12.5c0 2.4-.9 3.4-3.5 3.4h-3.5c-2.6 0-3.5-1-3.5-3.4V34.2c0-3.1-.5-5.3-1.6-6.7-1.3-1.6-3.3-2.4-5.3-2.3-2.1-.1-4.1.8-5.5 2.3-1.2 1.4-2 3.6-2 6.6v12.2c0 2.5-1.1 3.4-3.5 3.4h-3.5c-2.4 0-3.5-.9-3.5-3.4v-28c0-1.6.8-2.3 2-2.3 1.8 0 4.3 1.5 6.2 4.4 2.9-3.2 7-5 11.3-5 5.1 0 9.2 1.8 11.9 4.8s4 7.1 4 13.7zM145.8 5.7c0-3.2 2.7-5.7 5.8-5.7h.2c3.1.2 5.5 2.9 5.3 6s-2.9 5.5-6 5.3c-3-.1-5.3-2.6-5.3-5.6zm.7 40.7V20.1c0-2.4.9-3.5 3.5-3.5h3.5c2.6 0 3.5 1 3.5 3.5v26.3c0 2.4-.9 3.4-3.5 3.4H150c-2.6 0-3.5-1-3.5-3.4zm-18.5 0v-33c0-8.3 4.6-13 8.5-13 1.2 0 2 .8 2 2.3v43.7c0 2.5-1 3.4-3.5 3.4h-3.5c-2.4 0-3.5-.9-3.5-3.4zM84.8 33.2c0-10.5 8-17.9 18.6-17.9S122 22.7 122 33.2s-8 17.9-18.6 17.9-18.6-7.5-18.6-17.9zm26.6 0c0-4.9-3.1-8.5-8-8.5s-8 3.6-8 8.5 3.1 8.5 8 8.5 8-3.5 8-8.5zm-32-13.1v28c0 1.6-.8 2.3-2 2.3-1.8 0-4.3-1.5-6.1-4.3-2.8 3.2-6.8 5-11.1 4.9-4 .1-7.8-1.3-10.8-4-3.1-3-4.8-7.6-4.8-14.2V20.1c0-2.4.9-3.5 3.5-3.5h3.5c2.6 0 3.5 1 3.5 3.5v11.8c0 4 .7 6.1 2 7.5 1.2 1.2 3 1.9 4.7 1.8 1.9 0 3.7-.7 5-2.1s2-3.6 2-7v-12c0-2.5 1.1-3.5 3.5-3.5h3.5c2.5 0 3.6 1 3.6 3.5zm-42-17.4v45.4c0 1.6-.8 2.3-2 2.3-1.8 0-4.3-1.5-6.1-4.2-2.2 2.6-6.7 4.9-11.9 4.9C7 51.1 0 43.5 0 33.2s7.2-17.9 17.4-17.9c3.4 0 6.7 1 9.6 2.9v-4.8c0-8.3 4.7-13 8.5-13 1.2 0 1.9.8 1.9 2.3zM27 33.2c0-5.1-3.6-8.5-8.1-8.5s-8.2 3.4-8.2 8.5 3.6 8.5 8.2 8.5 8.1-3.3 8.1-8.5z"/></svg>