<svg width="17" height="18" viewBox="0 0 17 18" fill="none" xmlns="http://www.w3.org/2000/svg"><path fill-rule="evenodd" clip-rule="evenodd" d="M8.5 15.375C12.0208 15.375 14.875 12.5208 14.875 9C14.875 5.47918 12.0208 2.625 8.5 2.625C4.97918 2.625 2.125 5.47918 2.125 9C2.125 12.5208 4.97918 15.375 8.5 15.375ZM7.96056 10.2148C8.09869 10.3635 8.27931 10.4273 8.50244 10.4273C8.71494 10.4273 8.89556 10.3635 9.03369 10.2148C9.17181 10.0766 9.24619 9.88539 9.24619 9.63039V6.03914C9.24619 5.80539 9.17181 5.61414 9.03369 5.46539C8.89556 5.32726 8.71494 5.25289 8.50244 5.25289C8.27931 5.25289 8.09869 5.32726 7.96056 5.46539C7.81181 5.61414 7.74806 5.80539 7.74806 6.03914V9.63039C7.74806 9.88539 7.81181 10.0766 7.96056 10.2148ZM7.88619 11.171C7.71619 11.341 7.63119 11.5535 7.63119 11.7873C7.63119 12.0316 7.71619 12.2335 7.88619 12.4035C8.05619 12.5735 8.25806 12.6585 8.50244 12.6585C8.73619 12.6585 8.94868 12.5735 9.11868 12.4035C9.28868 12.2335 9.37368 12.0316 9.37368 11.7873C9.37368 11.5535 9.28868 11.341 9.11868 11.171C8.94868 11.001 8.73619 10.916 8.50244 10.916C8.25806 10.916 8.05619 11.001 7.88619 11.171Z" fill="#EA2B2B"/></svg>