<svg width="120" height="120" viewBox="0 0 120 120" fill="none" xmlns="http://www.w3.org/2000/svg"><path opacity="0.3" fill-rule="evenodd" clip-rule="evenodd" d="M17.0082 100.08H102.992C104.622 100.08 106.001 101.458 106.001 103.088C106.001 104.717 104.622 106.096 102.992 106.096H17.0082C15.3788 106.096 14 104.717 14 103.088C14 101.458 15.3788 100.08 17.0082 100.08Z" fill="#AFAFAF"/><path fill-rule="evenodd" clip-rule="evenodd" d="M22.147 91.9336H43.455C45.7112 91.9336 47.5913 93.8137 47.5913 96.0699C47.5913 98.326 45.7112 100.206 43.455 100.206H22.147C19.8909 100.206 18.0107 98.326 18.0107 96.0699C18.0107 93.8137 19.8909 91.9336 22.147 91.9336Z" fill="#58CC02"/><path fill-rule="evenodd" clip-rule="evenodd" d="M76.7954 91.9336H98.1035C100.36 91.9336 102.24 93.8137 102.24 96.0699C102.24 98.326 100.36 100.206 98.1035 100.206H76.7954C74.5393 100.206 72.6592 98.326 72.6592 96.0699C72.6592 93.8137 74.414 91.9336 76.7954 91.9336Z" fill="#58CC02"/><path fill-rule="evenodd" clip-rule="evenodd" d="M97.9774 100.08V25.8779C97.9774 24.1231 97.6014 22.3684 96.9746 20.7389C94.0918 14.2212 86.5713 11.213 79.9282 14.0958C70.4023 18.2321 63.7592 20.3629 60.1243 20.3629C56.4894 20.3629 49.7209 18.2321 40.0697 14.0958C38.4402 13.3438 36.6854 13.0931 34.9307 13.0931C27.7862 13.0931 22.0205 18.8588 22.0205 26.0033V100.331H97.9774V100.08Z" fill="#58CC02"/><path d="M73.1621 77.3931H63.6362C63.1348 77.3931 62.7588 77.8944 62.8841 78.3958C63.6362 80.6519 65.8923 82.156 68.3992 82.156C70.906 82.156 73.1621 80.6519 73.9142 78.3958C74.0395 77.8944 73.6635 77.3931 73.1621 77.3931ZM57.2438 78.3958C57.3691 77.8944 56.9931 77.3931 56.4917 77.3931H46.9658C46.4644 77.3931 46.0884 77.8944 46.2137 78.3958C46.9658 80.6519 49.2219 82.156 51.7288 82.156C54.2356 82.156 56.4917 80.6519 57.2438 78.3958ZM64.8896 85.5403H55.2383C54.737 85.5403 54.3609 86.0416 54.4863 86.543C55.2383 88.7991 57.4945 90.3032 60.0013 90.3032C62.5081 90.3032 64.7643 88.7991 65.5163 86.543C65.767 86.0416 65.391 85.5403 64.8896 85.5403Z" fill="#89E219"/><path fill-rule="evenodd" clip-rule="evenodd" d="M28.2889 85.6657C30.2944 83.7856 33.4279 83.9109 35.1827 85.9164L40.6977 91.8075C42.5779 93.8129 42.4525 96.9465 40.4471 98.7012C38.4416 100.581 35.3081 100.456 33.5533 98.4506L28.0383 92.5595C26.2835 90.6794 26.4088 87.5458 28.2889 85.6657Z" fill="#F49000"/><path fill-rule="evenodd" clip-rule="evenodd" d="M91.7117 85.6657C89.7063 83.7856 86.5727 83.9109 84.818 85.9164L79.3029 91.8075C77.4228 93.8129 77.5482 96.9465 79.5536 98.7012C81.5591 100.581 84.6926 100.456 86.4474 98.4506L91.9624 92.5595C93.8425 90.6794 93.7172 87.5458 91.7117 85.6657Z" fill="#F49000"/><path d="M43.33 20.8643L54.736 33.2731C55.3627 33.8998 55.1121 35.0279 54.2347 35.4039C50.2237 37.1587 45.5861 36.2813 42.5779 33.0224C39.5697 29.7636 39.1937 25.0006 41.3245 21.2403C41.9512 20.2376 42.7033 20.1123 43.33 20.8643Z" fill="#89E219"/><path fill-rule="evenodd" clip-rule="evenodd" d="M52.7305 31.0171C56.4907 35.2787 63.5098 35.2787 67.2701 31.0171C67.2701 41.0444 67.2701 55.96 67.2701 55.8347C67.2701 55.8347 62.3818 55.8347 52.7305 55.8347C52.7305 48.5649 52.7305 40.2924 52.7305 31.0171Z" fill="#89E219"/><path d="M37.565 23.8721L48.7204 36.2809C49.3471 36.9076 49.0964 38.0357 48.219 38.4117C44.2081 40.1665 39.5705 39.2891 36.5623 36.0302C33.5541 32.7714 33.1781 28.0084 35.3089 24.2482C35.9356 23.2454 37.0637 23.1201 37.565 23.8721Z" fill="#89E219"/><path fill-rule="evenodd" clip-rule="evenodd" d="M41.45 26.5044H42.3274C50.2239 26.5044 56.6163 32.8968 56.6163 40.7933V50.3193C56.6163 58.2158 50.2239 64.6082 42.3274 64.6082H41.45C33.5535 64.6082 27.1611 58.2158 27.1611 50.3193V40.7933C27.1611 32.8968 33.5535 26.5044 41.45 26.5044Z" fill="#89E219"/><path d="M76.5455 20.8643L65.3901 33.2731C64.7634 33.8998 65.0141 35.0279 65.8915 35.4039C69.9024 37.1587 74.54 36.2813 77.5482 33.0224C80.5564 29.7636 80.9325 25.0006 78.8016 21.2403C78.3003 20.2376 77.1722 20.1123 76.5455 20.8643Z" fill="#89E219"/><path d="M82.1861 23.8721L71.0307 36.2809C70.404 36.9076 70.6547 38.0357 71.5321 38.4117C75.543 40.1665 80.1807 39.2891 83.1889 36.0302C86.1971 32.7714 86.5731 28.0084 84.4423 24.2482C83.9409 23.2454 82.8128 23.1201 82.1861 23.8721Z" fill="#89E219"/><path fill-rule="evenodd" clip-rule="evenodd" d="M78.0506 26.1279H78.928C86.8245 26.1279 93.2169 32.5203 93.2169 40.4168V49.9428C93.2169 57.8393 86.8245 64.2317 78.928 64.2317H78.176C70.2795 64.2317 63.8871 57.8393 63.8871 50.0681L63.7617 40.5422C63.7617 32.6457 70.0288 26.2533 78.0506 26.1279Z" fill="#89E219"/><path fill-rule="evenodd" clip-rule="evenodd" d="M78.3359 31.6294C84.1017 31.6294 88.7393 36.267 88.7393 42.0327V48.9265C88.7393 54.6922 84.1017 59.3298 78.3359 59.3298C72.5702 59.3298 67.9326 54.6922 67.9326 48.9265V42.0327C67.9326 36.267 72.5702 31.6294 78.3359 31.6294Z" fill="white"/><path fill-rule="evenodd" clip-rule="evenodd" d="M78.3351 34.2622C83.098 34.2622 86.9836 38.1478 86.9836 42.9108V48.5511C86.9836 53.3141 83.098 57.1997 78.3351 57.1997C73.5721 57.1997 69.6865 53.3141 69.6865 48.5511V42.9108C69.6865 38.1478 73.5721 34.2622 78.3351 34.2622Z" fill="#4B4B4B"/><path d="M74.3249 47.0467C77.2323 47.0467 79.5892 44.6898 79.5892 41.7824C79.5892 38.875 77.2323 36.5181 74.3249 36.5181C71.4175 36.5181 69.0605 38.875 69.0605 41.7824C69.0605 44.6898 71.4175 47.0467 74.3249 47.0467Z" fill="white"/><path fill-rule="evenodd" clip-rule="evenodd" d="M88.7385 47.2973C88.1118 46.2945 86.9837 45.5425 85.605 45.5425C83.5995 45.5425 81.8447 47.2973 81.8447 49.3027C81.8447 51.3082 83.4742 53.063 85.605 53.063C86.6077 53.063 87.6104 52.5616 88.2371 51.9349C88.4878 50.9322 88.7385 49.9294 88.7385 48.8014V47.2973Z" fill="white"/><path opacity="0.7238" d="M78.3353 59.3304C83.0982 59.3304 87.2345 56.0715 88.3626 51.6846C87.6105 51.4339 86.7331 51.5592 85.9811 51.9352C85.229 52.4366 83.5996 52.938 80.4661 52.938C78.2099 53.0633 76.2045 52.1859 74.7004 51.4339C73.447 50.8072 72.5696 50.4312 71.4415 50.4312C70.1881 50.4312 69.06 50.6818 68.1826 51.3085C69.3107 55.9462 73.447 59.3304 78.3353 59.3304Z" fill="#34A9FF"/><path fill-rule="evenodd" clip-rule="evenodd" d="M41.1201 31.6294C46.8858 31.6294 51.5235 36.267 51.5235 42.0327V48.9265C51.5235 54.6922 46.8858 59.3298 41.1201 59.3298C35.3544 59.3298 30.7168 54.6922 30.7168 48.9265V42.0327C30.7168 36.267 35.3544 31.6294 41.1201 31.6294Z" fill="white"/><path fill-rule="evenodd" clip-rule="evenodd" d="M41.1202 34.2622C45.8832 34.2622 49.7688 38.1478 49.7688 42.9108V48.5511C49.7688 53.3141 45.8832 57.1997 41.1202 57.1997C36.3573 57.1997 32.4717 53.3141 32.4717 48.5511V42.9108C32.4717 38.1478 36.3573 34.2622 41.1202 34.2622Z" fill="#4B4B4B"/><path d="M37.1091 47.0467C40.0165 47.0467 42.3734 44.6898 42.3734 41.7824C42.3734 38.875 40.0165 36.5181 37.1091 36.5181C34.2017 36.5181 31.8447 38.875 31.8447 41.7824C31.8447 44.6898 34.2017 47.0467 37.1091 47.0467Z" fill="white"/><path fill-rule="evenodd" clip-rule="evenodd" d="M51.5237 47.2973C50.897 46.2945 49.7689 45.5425 48.3901 45.5425C46.3847 45.5425 44.6299 47.2973 44.6299 49.3027C44.6299 51.3082 46.2593 53.063 48.3901 53.063C49.3929 53.063 50.3956 52.5616 51.0223 51.9349C51.273 50.9322 51.5237 49.9294 51.5237 48.8014V47.2973Z" fill="white"/><path opacity="0.7238" d="M31.0928 51.9354C32.3462 56.197 36.3571 59.3305 41.1201 59.3305C46.1337 59.3305 50.27 55.821 51.2727 51.1833C50.5207 50.682 49.518 50.5566 48.3899 50.5566C47.2618 50.5566 46.3844 51.058 45.131 51.5594C43.6269 52.1861 41.7468 53.0635 39.3653 53.0635C36.2318 53.0635 34.6023 52.5621 33.8503 52.0607C32.9729 51.5594 31.9702 51.5594 31.0928 51.9354Z" fill="#34A9FF"/><path d="M63.5094 64.8588C63.1334 64.8588 62.7574 64.7335 62.5067 64.4828L60.2506 61.976L57.9944 64.3575C57.4931 64.8588 56.6157 64.8588 56.1143 64.3575C55.6129 63.8561 55.6129 62.9787 56.1143 62.4773L58.7465 59.7198C59.1225 59.3438 59.7492 59.0931 60.3759 58.9678C61.0026 58.9678 61.504 59.2185 62.0054 59.5945L64.6375 62.352C65.1389 62.8534 65.1389 63.7307 64.6375 64.2321C64.1362 64.7335 63.7601 64.8588 63.5094 64.8588Z" fill="#3EBE00"/><path d="M52.7305 52.0737C53.3572 48.8148 56.24 46.1826 60.1256 46.1826C63.6352 46.1826 66.7687 48.6894 67.3954 52.0737V52.8257C67.3954 53.4524 66.894 54.0791 66.142 54.0791C65.8913 54.0791 65.766 54.0791 65.5153 53.9538C63.6352 52.951 61.755 52.3243 59.8749 52.3243C57.9948 52.3243 56.24 52.8257 54.4852 53.8284C53.8585 54.2045 53.2318 53.9538 52.8558 53.3271C52.8558 53.2017 52.7305 52.9511 52.7305 52.8257C52.7305 52.8257 52.7305 52.0737 52.7305 52.0737Z" fill="#FFC200"/><path d="M61.3785 49.3174C61.2532 49.3174 61.1278 49.3174 61.0025 49.192C60.1251 48.9414 59.373 48.816 58.4957 49.192C57.9943 49.4427 57.3676 49.0667 57.1169 48.5653C56.8662 48.064 57.2422 47.4373 57.7436 47.1866C59.1224 46.6852 60.3758 46.6852 61.7545 47.1866C62.2559 47.4373 62.6319 48.064 62.3812 48.5653C62.2559 49.0667 61.8799 49.3174 61.3785 49.3174Z" fill="#FFDE00"/><path d="M57.2436 57.0884C56.3662 57.0884 55.4888 56.587 54.9874 55.835C54.2354 54.5816 54.6114 52.9521 55.8648 52.0747C58.7477 50.32 61.7559 50.32 64.5134 52.2001C65.7668 53.0775 66.0175 54.7069 65.2654 55.9603C64.388 57.2137 62.7586 57.4644 61.5052 56.7124C60.7531 56.211 60.0011 55.9603 58.7477 56.8377C58.2463 56.9631 57.7449 57.0884 57.2436 57.0884Z" fill="#F49000"/></svg>