<svg width="33" height="32" viewBox="0 0 33 32" fill="none" xmlns="http://www.w3.org/2000/svg"><path d="M3 12.6798C3 15.2727 4.31423 17.5654 6.32688 18.9559L14.9105 26.445C15.9302 27.3347 17.4537 27.3228 18.4595 26.4174L27.092 18.6456C28.8662 17.2376 30.0001 15.0882 30.0001 12.6798C30.0001 8.43862 26.4839 5.00049 22.1464 5.00049C19.93 5.00049 17.928 5.89823 16.5 7.34212C15.0721 5.89823 13.0701 5.00049 10.8537 5.00049C6.51622 5.00049 3 8.43862 3 12.6798Z" fill="#FF4B4B"/><path opacity="0.3" fill-rule="evenodd" clip-rule="evenodd" d="M10.5348 15.9898C12.2687 15.9898 13.6743 14.5427 13.6743 12.7576C13.6743 10.9725 12.2687 9.52539 10.5348 9.52539C8.80088 9.52539 7.39526 10.9725 7.39526 12.7576C7.39526 14.5427 8.80088 15.9898 10.5348 15.9898Z" fill="white"/></svg>