<svg width="16" height="16" viewBox="0 0 16 16" fill="none" xmlns="http://www.w3.org/2000/svg"><path fill-rule="evenodd" clip-rule="evenodd" d="M8 16C12.4183 16 16 12.4183 16 8C16 3.58172 12.4183 0 8 0C3.58172 0 0 3.58172 0 8C0 12.4183 3.58172 16 8 16ZM6.85625 4.57202C6.85625 3.94084 7.36792 3.42917 7.99911 3.42917C8.63029 3.42917 9.14196 3.94084 9.14196 4.57202V8.10544L11.2714 10.2349C11.7177 10.6812 11.7177 11.4048 11.2714 11.8511C10.8251 12.2974 10.1015 12.2974 9.65514 11.8511L7.23078 9.42674C7.20168 9.39764 7.17447 9.36736 7.14917 9.33606C6.96706 9.13361 6.85625 8.86576 6.85625 8.57202V4.57202Z" fill="#CDCDCD"/></svg>