<svg width="19" height="24" viewBox="0 0 19 24" fill="none" xmlns="http://www.w3.org/2000/svg"><path fill-rule="evenodd" clip-rule="evenodd" d="M12.193 1.61913C12.0256 -0.026945 9.91213 -0.593231 8.94412 0.748613L0.976934 11.7926C0.240086 12.814 0.753785 14.257 1.97032 14.5829L6.5026 15.7973L7.17212 22.3809C7.33952 24.0269 9.45295 24.5932 10.421 23.2514L18.3881 12.2074C19.125 11.186 18.6113 9.74304 17.3948 9.41707L12.8625 8.20265L12.193 1.61913Z" fill="#FFD900"/><path d="M2.54022 13.2535C2.12806 13.1423 2.08826 12.5732 2.48092 12.4056L5.63086 11.0616C5.91527 10.9403 6.23447 11.1355 6.25604 11.4439L6.41243 13.6805C6.434 13.9889 6.14507 14.2266 5.84655 14.1461L2.54022 13.2535Z" fill="#F6C100"/><path d="M16.9754 10.5263C17.3876 10.6375 17.4274 11.2066 17.0347 11.3742L13.8848 12.7182C13.6004 12.8395 13.2812 12.6443 13.2596 12.3358L13.1032 10.0993C13.0816 9.79087 13.3706 9.55315 13.6691 9.63373L16.9754 10.5263Z" fill="#FFEF8F"/></svg>