<svg width="46" height="46" viewBox="0 0 46 46" fill="none" xmlns="http://www.w3.org/2000/svg">
    <path d="M40 36V17H6V36C6 38.2091 7.73969 40 9.88571 40H36.1143C38.2603 40 40 38.2091 40 36Z"
        fill="#A56644" />
    <path d="M4 10C4 7.79086 5.79086 6 8 6H17V17H4V10Z" fill="#EA2B2B" />
    <path d="M4 17H17V17.5C17 21.0899 14.0899 24 10.5 24C6.91015 24 4 21.0899 4 17.5V17Z"
        fill="#FF4945" />
    <path d="M17 17H29V17.5C29 21.0899 26.3137 24 23 24C19.6863 24 17 21.0899 17 17.5V17Z"
        fill="white" />
    <path d="M29 17H42V17.5C42 21.0899 39.0899 24 35.5 24C31.9101 24 29 21.0899 29 17.5V17Z"
        fill="#FF4945" />
    <path d="M17 6H29V17H17V6Z" fill="#D0D0D0" />
    <path d="M29 6H38C40.2091 6 42 7.79086 42 10V17H29V6Z" fill="#EA2B2B" />
    <path d="M11 30C11 28.8954 11.8954 28 13 28H18C19.1046 28 20 28.8954 20 30V40H11V30Z"
        fill="#B9E8FF" />
    <path
        d="M24 30C24 28.8954 24.8954 28 26 28H34C35.1046 28 36 28.8954 36 30V34C36 35.1046 35.1046 36 34 36H26C24.8954 36 24 35.1046 24 34V30Z"
        fill="#B9E8FF" />
</svg>