<svg width="42" height="34" viewBox="0 0 42 34" fill="none" xmlns="http://www.w3.org/2000/svg">
    <g clip-path="url(#clip0_7030_116432)">
        <path
            d="M18.7521 4.41157C19.6598 2.52948 22.3402 2.52948 23.2479 4.41157L25.8539 9.81517C26.225 10.5847 26.9639 11.1109 27.8125 11.2099L33.7906 11.9076C35.9269 12.1569 36.7684 14.8114 35.1658 16.2459L30.8845 20.0785C30.224 20.6697 29.9267 21.567 30.1035 22.4357L31.2468 28.053C31.6684 30.124 29.4857 31.7487 27.6228 30.7506L22.1786 27.8339C21.4424 27.4395 20.5576 27.4395 19.8214 27.8339L14.3772 30.7506C12.5143 31.7487 10.3316 30.124 10.7532 28.053L11.8965 22.4357C12.0733 21.567 11.776 20.6697 11.1155 20.0785L6.83415 16.2459C5.23162 14.8114 6.07307 12.1569 8.20939 11.9076L14.1875 11.2099C15.0361 11.1109 15.775 10.5847 16.1461 9.81517L18.7521 4.41157Z"
            fill="white" />
    </g>
    <defs>
        <clipPath id="clip0_7030_116432">
            <rect width="30" height="28" fill="white" transform="translate(6 3)" />
        </clipPath>
    </defs>
</svg>