<svg width="87" height="23" viewBox="0 0 87 23" fill="none" xmlns="http://www.w3.org/2000/svg">
    <path
        d="M7.60174 3C8.08704 2.09543 8.80801 1.33899 9.68825 0.810848C10.5685 0.282703 11.5752 0.00252387 12.6017 0L81.8117 0C82.5491 0.000257727 83.2736 0.192791 83.9138 0.558595C84.554 0.9244 85.0877 1.45083 85.4623 2.08592C85.8369 2.72101 86.0394 3.44282 86.0498 4.18008C86.0603 4.91734 85.8782 5.64457 85.5217 6.29L78.5017 19C78.0164 19.9046 77.2955 20.661 76.4152 21.1892C75.535 21.7173 74.5283 21.9975 73.5017 22H4.29174C3.55441 21.9997 2.82988 21.8072 2.18969 21.4414C1.54949 21.0756 1.01576 20.5492 0.641162 19.9141C0.266568 19.279 0.0640668 18.5572 0.0536462 17.8199C0.0432257 17.0827 0.225246 16.3554 0.581741 15.71L7.60174 3Z"
        fill="url(#paint0_linear_852_38759)" />
    <path
        d="M74.6317 2.90007H68.3617C67.9184 2.89994 67.4795 2.98833 67.0708 3.16005C66.6622 3.33177 66.2919 3.58336 65.9817 3.90007C65.7066 3.59241 65.3711 3.3448 64.996 3.17273C64.6209 3.00067 64.2143 2.90785 63.8017 2.90007H55.7417C55.1674 2.89957 54.6034 3.05219 54.1077 3.34221C53.612 3.63224 53.2026 4.04917 52.9217 4.55007L52.5817 5.16007V5.09007C52.182 4.41177 51.6094 3.85167 50.9225 3.46693C50.2356 3.08219 49.4589 2.88658 48.6717 2.90007H42.3517C41.9083 2.89938 41.4693 2.98752 41.0605 3.15927C40.6517 3.33102 40.2815 3.58291 39.9717 3.90007C39.7022 3.58316 39.3663 3.32933 38.9879 3.15653C38.6095 2.98373 38.1977 2.89618 37.7817 2.90007H35.1417C34.4208 2.89572 33.7184 3.12753 33.1417 3.56007C32.6232 3.13375 31.9729 2.90049 31.3017 2.90007H28.7417C28.1546 2.9005 27.5781 3.05612 27.0706 3.35116C26.5631 3.64619 26.1426 4.07015 25.8517 4.58007C25.4935 4.06711 25.016 3.6489 24.4603 3.36146C23.9046 3.07403 23.2873 2.92598 22.6617 2.93007H16.6617C15.6675 2.92934 14.6913 3.19522 13.8347 3.69999C12.9782 4.20476 12.2727 4.92997 11.7917 5.80007L10.7917 7.52007C10.5224 7.99763 10.3541 8.52546 10.2973 9.07078C10.2406 9.6161 10.2965 10.1673 10.4617 10.6901C9.97536 10.779 9.51418 10.9727 9.11012 11.2576C8.70607 11.5425 8.3688 11.9118 8.12169 12.3401L7.46169 13.6001C7.15701 14.1516 7.0007 14.7727 7.00806 15.4027C7.01542 16.0328 7.18618 16.6501 7.50366 17.1943C7.82113 17.7386 8.27444 18.1911 8.81923 18.5076C9.36403 18.8241 9.98165 18.9938 10.6117 19.0001H17.0517C17.8297 18.9977 18.5986 18.8318 19.3084 18.5131C20.0182 18.1944 20.653 17.73 21.1717 17.1501C21.5382 17.7253 22.0458 18.1972 22.6462 18.521C23.2465 18.8448 23.9197 19.0097 24.6017 19.0001H30.1917C31.4899 19.0001 32.7531 18.579 33.7917 17.8001C34.0448 18.1841 34.3893 18.4993 34.7942 18.7174C35.1991 18.9356 35.6518 19.0499 36.1117 19.0501C37.3795 19.0543 38.6308 18.7628 39.7661 18.1986C40.9014 17.6344 41.8895 16.8131 42.6517 15.8001H45.6517C46.1616 15.7995 46.6692 15.7323 47.1617 15.6001C47.1484 16.0376 47.2222 16.4734 47.379 16.8821C47.5357 17.2908 47.7722 17.6642 48.0747 17.9807C48.3772 18.2971 48.7395 18.5502 49.1408 18.7252C49.542 18.9002 49.974 18.9936 50.4117 19.0001H57.8217C58.3288 18.9986 58.8288 18.8805 59.2831 18.6551C59.7373 18.4297 60.1337 18.103 60.4417 17.7001C60.7543 18.1078 61.1572 18.4374 61.6188 18.663C62.0803 18.8886 62.588 19.004 63.1017 19.0001H65.0517C65.8323 19.0043 66.5884 18.7274 67.1817 18.2201C67.8091 18.7292 68.5937 19.0049 69.4017 19.0001H70.9517C71.457 18.9963 71.9542 18.8729 72.4026 18.64C72.8511 18.4071 73.238 18.0713 73.5317 17.6601C73.8484 17.2363 74.0606 16.7437 74.151 16.2223C74.2414 15.701 74.2073 15.1657 74.0517 14.6601C74.0517 14.6101 74.0517 14.5601 74.0517 14.5001C75.4073 14.0301 76.5497 13.09 77.2717 11.8501L78.5717 9.55007C78.9502 8.86651 79.1433 8.09585 79.1319 7.31459C79.1205 6.53333 78.9049 5.76864 78.5066 5.09642C78.1084 4.42421 77.5412 3.86784 76.8615 3.48256C76.1817 3.09727 75.413 2.89647 74.6317 2.90007Z"
        fill="#3C4DFF" fill-opacity="0.3" />
    <path fill-rule="evenodd" clip-rule="evenodd"
        d="M41.1815 5.58995L35.4215 15.9199C35.3532 16.0403 35.3177 16.1766 35.3186 16.315C35.3194 16.4535 35.3567 16.5892 35.4266 16.7087C35.4965 16.8282 35.5965 16.9273 35.7167 16.9959C35.8369 17.0646 35.9731 17.1005 36.1115 17.0999C37.2121 17.0997 38.2925 16.8047 39.2404 16.2454C40.1883 15.6862 40.9691 14.8832 41.5015 13.9199L41.5615 13.8099H45.6115C46.323 13.8095 47.0215 13.6193 47.6349 13.259C48.2484 12.8986 48.7547 12.3812 49.1015 11.7599L50.8515 8.60995C51.0649 8.23035 51.1749 7.80145 51.1708 7.36602C51.1666 6.9306 51.0483 6.50389 50.8277 6.12846C50.6071 5.75303 50.2919 5.44202 49.9136 5.22646C49.5352 5.01089 49.107 4.89831 48.6715 4.89995H42.3515C42.1127 4.90027 41.8783 4.9644 41.6726 5.08572C41.4669 5.20703 41.2974 5.38111 41.1815 5.58995ZM44.8215 8.15995C44.7949 8.1614 44.7691 8.16947 44.7464 8.18345C44.7237 8.19742 44.7048 8.21684 44.6915 8.23995L43.4415 10.3299C43.4271 10.3529 43.4191 10.3793 43.4184 10.4064C43.4178 10.4334 43.4245 10.4602 43.4378 10.4838C43.4511 10.5074 43.4706 10.5269 43.4941 10.5403C43.5177 10.5537 43.5444 10.5605 43.5715 10.5599H44.5715C44.6758 10.5601 44.7783 10.5335 44.8693 10.4827C44.9603 10.4319 45.0368 10.3587 45.0915 10.2699L45.8915 8.91995C45.9378 8.84393 45.963 8.75693 45.9644 8.66794C45.9658 8.57894 45.9434 8.49119 45.8996 8.41372C45.8558 8.33626 45.7921 8.2719 45.7151 8.22729C45.638 8.18267 45.5505 8.15943 45.4615 8.15995H44.8215ZM28.7415 4.89995H31.3115C31.4718 4.90037 31.6293 4.94268 31.7682 5.02268C31.9071 5.10267 32.0227 5.21758 32.1036 5.35602C32.1844 5.49446 32.2277 5.65162 32.2291 5.81193C32.2304 5.97223 32.1899 6.13012 32.1115 6.26995L28.5015 12.6399C28.4721 12.6928 28.457 12.7523 28.4574 12.8128C28.4579 12.8732 28.4741 12.9325 28.5043 12.9849C28.5345 13.0373 28.5777 13.0809 28.6298 13.1116C28.6819 13.1423 28.7411 13.1589 28.8015 13.1599H29.2815C29.4148 13.1583 29.5455 13.1225 29.661 13.056C29.7766 12.9894 29.8732 12.8944 29.9415 12.7799L33.9415 5.57995C34.0594 5.37366 34.2297 5.20216 34.4352 5.08276C34.6406 4.96336 34.8739 4.9003 35.1115 4.89995H37.7515C37.9115 4.89835 38.0691 4.93898 38.2084 5.01773C38.3477 5.09649 38.4638 5.21058 38.545 5.34851C38.6261 5.48644 38.6694 5.64333 38.6706 5.80335C38.6717 5.96337 38.6307 6.12086 38.5515 6.25995L33.6915 14.9999C33.3438 15.6226 32.836 16.141 32.2206 16.5015C31.6053 16.8619 30.9047 17.0513 30.1915 17.0499H24.6015C24.2472 17.0567 23.8975 16.9692 23.5882 16.7964C23.2788 16.6237 23.0209 16.3718 22.8408 16.0666C22.6608 15.7614 22.565 15.4139 22.5634 15.0595C22.5617 14.7052 22.6543 14.3568 22.8315 14.0499L27.5715 5.59995C27.6844 5.38784 27.853 5.21055 28.0591 5.0872C28.2653 4.96384 28.5013 4.8991 28.7415 4.89995ZM20.1715 15.2599L20.9515 13.9099C21.2595 13.3791 21.3614 12.7534 21.2378 12.1523C21.1143 11.5511 20.7739 11.0164 20.2815 10.6499L18.0515 8.99995C17.9648 8.95542 17.8883 8.89325 17.8269 8.81743C17.7656 8.74161 17.7208 8.65381 17.6954 8.55966C17.6699 8.46551 17.6645 8.36709 17.6793 8.2707C17.6942 8.17432 17.729 8.08209 17.7815 7.99995C17.8814 7.85371 18.0136 7.73251 18.168 7.64578C18.3224 7.55905 18.4947 7.50915 18.6715 7.49995C18.7756 7.48254 18.8825 7.49721 18.9781 7.54202C19.0736 7.58683 19.1533 7.65965 19.2065 7.75081C19.2596 7.84197 19.2838 7.94715 19.2758 8.05238C19.2678 8.15761 19.2279 8.25791 19.1615 8.33995C19.102 8.44463 19.0718 8.56341 19.0741 8.68379C19.0764 8.80417 19.1111 8.92171 19.1746 9.02405C19.238 9.12638 19.3279 9.20972 19.4347 9.26532C19.5415 9.32091 19.6613 9.34669 19.7815 9.33995H22.7015C22.9428 9.33937 23.1795 9.27413 23.3871 9.15102C23.5946 9.02792 23.7653 8.85143 23.8815 8.63995L24.3715 7.75995C24.5331 7.46616 24.6153 7.13535 24.6101 6.80011C24.605 6.46486 24.5125 6.13675 24.342 5.8481C24.1714 5.55945 23.9286 5.32021 23.6374 5.15395C23.3462 4.98769 23.0168 4.90015 22.6815 4.89995H16.6815C16.0444 4.8994 15.4188 5.06984 14.87 5.39348C14.3212 5.71713 13.8693 6.18212 13.5615 6.73995L12.5615 8.45995C12.3243 8.89098 12.2483 9.39242 12.3473 9.87437C12.4463 10.3563 12.7136 10.7873 13.1015 11.0899L15.6115 12.9999C15.7934 13.1172 15.9231 13.3002 15.9734 13.5107C16.0237 13.7213 15.9908 13.9431 15.8815 14.1299C15.8013 14.23 15.6964 14.3075 15.5772 14.3549C15.458 14.4022 15.3285 14.4177 15.2015 14.3999C14.6615 14.3999 14.3715 14.1499 14.5915 13.7499C14.6643 13.6226 14.7012 13.4778 14.6981 13.3311C14.6951 13.1845 14.6523 13.0414 14.5742 12.9171C14.4962 12.7929 14.3859 12.6922 14.2551 12.6257C14.1243 12.5593 13.9779 12.5297 13.8315 12.5399H12.4715H11.0815C10.8424 12.5443 10.6085 12.6113 10.4033 12.7341C10.198 12.8569 10.0285 13.0313 9.91152 13.2399L9.20152 14.4899C9.04526 14.7396 8.95911 15.0267 8.95212 15.3212C8.94514 15.6156 9.01757 15.9065 9.16182 16.1633C9.30607 16.4201 9.51681 16.6333 9.7719 16.7805C10.027 16.9277 10.317 17.0035 10.6115 16.9999H17.0515C17.6788 17.0105 18.2977 16.8552 18.8456 16.5496C19.3935 16.2441 19.8509 15.7992 20.1715 15.2599ZM63.8015 4.91995H55.7415C55.5196 4.92117 55.3019 4.98099 55.1105 5.09338C54.9191 5.20576 54.7607 5.36672 54.6515 5.55995L49.2815 15.0999C49.1793 15.2964 49.1289 15.5156 49.1352 15.737C49.1415 15.9583 49.2042 16.1744 49.3173 16.3647C49.4305 16.555 49.5904 16.7132 49.7819 16.8244C49.9734 16.9356 50.1901 16.996 50.4115 16.9999H57.8215C58.0516 17.0007 58.2777 16.9399 58.4764 16.8239C58.6751 16.7078 58.8391 16.5407 58.9515 16.3399L59.9515 14.6399C60.0308 14.4914 60.0687 14.3243 60.0614 14.1561C60.054 13.9879 60.0016 13.8248 59.9096 13.6838C59.8177 13.5428 59.6895 13.429 59.5386 13.3545C59.3876 13.2799 59.2194 13.2473 59.0515 13.2599H54.5715L55.0515 12.4099H58.4115C58.653 12.4104 58.8902 12.3456 59.0979 12.2224C59.3056 12.0992 59.4762 11.9221 59.5915 11.7099L60.0615 10.8699C60.1345 10.7376 60.1717 10.5886 60.1695 10.4375C60.1674 10.2864 60.1259 10.1385 60.0492 10.0083C59.9725 9.87815 59.8632 9.77018 59.7321 9.69507C59.601 9.61995 59.4526 9.58028 59.3015 9.57995H56.6515L57.1315 8.71995H62.3215C62.6118 8.71963 62.8969 8.64272 63.148 8.49699C63.3991 8.35126 63.6072 8.14187 63.7515 7.88995L64.6215 6.34995C64.6918 6.20371 64.7255 6.04256 64.7196 5.8804C64.7137 5.71825 64.6685 5.55996 64.5878 5.4192C64.507 5.27843 64.3933 5.15943 64.2563 5.07245C64.1193 4.98547 63.9632 4.93313 63.8015 4.91995ZM67.1815 5.58995L61.9315 15.0499C61.816 15.2541 61.7561 15.485 61.7577 15.7195C61.7594 15.9541 61.8226 16.1841 61.9411 16.3866C62.0595 16.589 62.229 16.7569 62.4327 16.8733C62.6363 16.9897 62.867 17.0506 63.1015 17.0499H65.0515C65.288 17.0514 65.5204 16.9878 65.7232 16.8661C65.9261 16.7444 66.0915 16.5693 66.2015 16.3599L67.7715 13.5399V13.5999C67.7689 14.4446 67.8628 15.2867 68.0515 16.1099C68.1448 16.3907 68.327 16.6334 68.5706 16.8012C68.8143 16.969 69.106 17.0529 69.4015 17.0399H70.9515C71.1531 17.0258 71.3489 16.9666 71.5246 16.8667C71.7002 16.7668 71.8512 16.6287 71.9663 16.4627C72.0815 16.2967 72.1579 16.1069 72.19 15.9074C72.222 15.7079 72.2089 15.5037 72.1515 15.3099C71.9215 14.5599 71.6815 13.6999 71.5215 12.9399H71.9315C72.6472 12.9427 73.3513 12.7599 73.9753 12.4094C74.5992 12.0589 75.1216 11.5526 75.4915 10.9399L76.8015 8.64995C77.0212 8.26954 77.1367 7.83797 77.1365 7.39871C77.1362 6.95945 77.0203 6.528 76.8003 6.14781C76.5803 5.76761 76.264 5.4521 75.8833 5.23303C75.5025 5.01396 75.0708 4.89908 74.6315 4.89995H68.3615C68.1212 4.89953 67.8852 4.96326 67.6777 5.08456C67.4703 5.20586 67.299 5.38033 67.1815 5.58995ZM70.7815 8.23995C70.7948 8.21684 70.8137 8.19742 70.8364 8.18345C70.8591 8.16947 70.8849 8.1614 70.9115 8.15995H71.5815C71.6705 8.15943 71.758 8.18267 71.8351 8.22729C71.9121 8.2719 71.9758 8.33626 72.0196 8.41372C72.0634 8.49119 72.0858 8.57894 72.0844 8.66794C72.083 8.75693 72.0578 8.84393 72.0115 8.91995L71.2015 10.2699C71.1484 10.3579 71.0737 10.4308 70.9844 10.4815C70.8951 10.5323 70.7942 10.5593 70.6915 10.5599H69.6915C69.6644 10.5605 69.6377 10.5537 69.6141 10.5403C69.5906 10.5269 69.5711 10.5074 69.5578 10.4838C69.5445 10.4602 69.5378 10.4334 69.5384 10.4064C69.5391 10.3793 69.5471 10.3529 69.5615 10.3299L70.7815 8.23995Z"
        fill="white" />
    <defs>
        <linearGradient id="paint0_linear_852_38759" x1="2" y1="-11.5" x2="79" y2="23.5"
            gradientUnits="userSpaceOnUse">
            <stop stop-color="#26FF55" />
            <stop offset="0.523569" stop-color="#268AFF" />
            <stop offset="1" stop-color="#FC55FF" />
        </linearGradient>
    </defs>
</svg>