<svg xmlns="http://www.w3.org/2000/svg" width="121" height="116" viewBox="0 0 121 116" fill="none">
    <path
        d="M75.4057 100.212C74.942 97.4163 75.763 93.1967 79.2932 91.8897C82.8234 90.5828 85.3843 93.2434 86.0611 96.0472C86.7379 98.8511 87.0763 100.019 90.702 103.009C94.3277 105.998 93.4134 110.775 89.1551 112.532C85.6249 113.839 80.8643 111.798 78.5681 108.52C76.2719 105.241 75.8693 103.009 75.4057 100.212Z"
        fill="#E619DF" />
    <path
        d="M99.5485 100.204C98.0089 97.6799 97.8753 91.908 100.66 89.3755C103.446 86.843 106.341 89.1922 108.057 91.1643C109.772 93.1363 110.621 95.272 114.051 96.7237C117.481 98.1753 119.664 102.741 116.372 105.963C113.587 108.496 108.174 108.145 104.818 105.963C101.462 103.782 101.088 102.729 99.5485 100.204Z"
        fill="#E619DF" />
    <path
        d="M10.5436 23.1248C17.7758 29.0721 24.5313 36.2368 28.218 38.8392L32.9891 70.0676C26.4621 70.5375 11.3049 66.9229 4.68836 53.8028C-0.831177 42.8581 0.436286 30.8082 3.24519 24.4317C4.51281 21.554 8.1149 21.1276 10.5436 23.1248Z"
        fill="url(#paint0_radial_5716_153092)" />
    <path
        d="M96.8554 23.984C96.8554 30.4036 97.8343 58.8555 95.4611 64.4073C94.556 81.9062 79.3622 92.051 60.3504 92.051C35.562 92.051 17.2114 76.5368 16.2993 46.9748C16.2757 46.2079 15.6674 44.5272 15.6674 43.7415C15.6674 29.2006 20.3865 16.0482 27.0253 10.8632C27.0253 8.74601 26.2951 5.63429 29.8445 3.9236C30.789 3.46841 31.0502 6.92747 31.5795 7.82715C32.1088 6.1216 32.7078 1.00162 37.0011 0.237005C38.1687 0.0290971 37.185 3.50455 38.1938 3.16509C41.3383 1.32164 43.0416 1.32164 45.4587 1.32164C51.5919 1.32164 53.6656 7.60247 60.2055 9.56257C63.3248 10.4975 68.8856 6.37189 73.5426 1.86391C74.9268 0.524049 78.7473 1.24075 78.7473 3.16509C88.3222 2.82978 96.8554 6.29568 96.8554 23.984Z"
        fill="url(#paint1_radial_5716_153092)" />
    <path
        d="M104.245 13.4998C93.4893 23.2707 75.7942 40.6465 75.7942 40.6465L79.7887 63.0469C90.3624 65.0833 107.292 67.7523 115.583 50.8286C122.826 36.0413 116.956 20.6378 110.611 13.5006C108.932 11.612 106.116 11.8007 104.245 13.4998Z"
        fill="url(#paint2_radial_5716_153092)" />
    <path fill-rule="evenodd" clip-rule="evenodd"
        d="M81.5856 8.92154C82.0992 8.7864 82.625 9.09314 82.7601 9.60666C83.5946 12.7776 82.7541 15.179 81.2946 16.8465C80.3141 17.9667 79.0803 18.7293 77.9585 19.1994C78.524 20.0463 78.949 21.0409 79.1443 22.2173C79.4334 23.9579 79.2072 26.0214 78.3025 28.4995C77.7989 29.8789 77.3209 31.3267 76.8221 32.8375C75.6476 36.3946 74.3576 40.3018 72.3458 44.4916C72.2197 44.7544 72.0929 45.0218 71.9646 45.2926C70.684 47.9951 69.2406 51.0411 66.5571 53.2301C63.5386 55.6924 59.1048 56.9784 51.9635 56.05C51.437 55.9816 51.0656 55.4992 51.134 54.9726C51.2025 54.446 51.6848 54.0747 52.2114 54.1431C59.021 55.0284 62.8623 53.7624 65.3416 51.74C67.6707 49.8402 68.9312 47.1906 70.2444 44.4302C70.3663 44.174 70.4887 43.9169 70.6124 43.6593C72.5688 39.5846 73.7929 35.8751 74.951 32.3653C75.46 30.823 75.9562 29.3193 76.4962 27.8401C77.3206 25.582 77.4681 23.8614 77.2474 22.5322C77.0287 21.2154 76.4368 20.2089 75.6488 19.3881C75.4096 19.139 75.3224 18.7807 75.4204 18.4495C75.5184 18.1183 75.7865 17.8651 76.1227 17.7862C77.2063 17.5319 78.7577 16.8252 79.8476 15.58C80.8941 14.3845 81.5696 12.6386 80.9005 10.096C80.7654 9.58252 81.0721 9.05668 81.5856 8.92154ZM29.9852 47.4627C30.4479 47.7232 30.6117 48.3095 30.3511 48.7722C29.3839 50.4895 26.9029 52.86 22.4899 52.3695C21.9621 52.3109 21.5818 51.8355 21.6405 51.3077C21.6991 50.78 22.1745 50.3997 22.7023 50.4584C26.2052 50.8477 28.0103 49.0098 28.6756 47.8286C28.9362 47.3659 29.5225 47.2021 29.9852 47.4627Z"
        fill="#1F66FB" />
    <path fill-rule="evenodd" clip-rule="evenodd"
        d="M18.6127 28.4521C19.1293 28.575 19.4484 29.0934 19.3256 29.61C18.069 34.8923 16.7116 41.9679 18.8277 52.7748C18.9297 53.2959 18.59 53.801 18.0689 53.9031C17.5478 54.0051 17.0426 53.6654 16.9406 53.1443C14.753 41.9719 16.1621 34.5995 17.4548 29.165C17.5777 28.6484 18.0961 28.3292 18.6127 28.4521Z"
        fill="#C7FFFE" />
    <path fill-rule="evenodd" clip-rule="evenodd"
        d="M6.03655 56.1707C5.55629 55.4184 5.10562 54.6297 4.68885 53.8032C-0.830688 42.8585 0.436774 30.8087 3.24568 24.4321C3.70087 23.3988 4.45708 22.6815 5.35189 22.2791C5.70524 22.2566 6.07517 22.4071 6.27761 22.6985C6.58067 23.1347 6.47272 23.734 6.0365 24.0371C5.23207 24.596 4.39774 26.0315 3.77559 28.3255C3.17005 30.5583 2.81882 33.405 2.81597 36.513C2.81027 42.7487 4.20526 49.8455 7.54607 54.9903C7.83534 55.4358 7.70871 56.0314 7.26323 56.3207C6.86579 56.5788 6.34884 56.5058 6.03655 56.1707Z"
        fill="#C7FFFE" />
    <path fill-rule="evenodd" clip-rule="evenodd"
        d="M96.8238 20.3892C99.4509 17.9129 102 15.5407 104.246 13.5003C104.724 13.066 105.264 12.7304 105.831 12.5029C106.099 12.5559 106.351 12.6777 106.505 12.8506C106.858 13.247 106.824 13.8549 106.427 14.2085C99.2705 20.5918 92.4461 27.7642 88.7576 31.6408C87.616 32.8406 86.7748 33.7247 86.317 34.1721C85.9372 34.5433 85.3283 34.5363 84.957 34.1565C84.5858 33.7766 84.5928 33.1677 84.9727 32.7964C85.3804 32.398 86.1661 31.572 87.2481 30.4347L87.2482 30.4346C87.8788 29.7716 88.6023 29.0002 89.4051 28.1441C91.4413 25.9729 93.9876 23.2576 96.8238 20.3892Z"
        fill="#C7FFFE" />
    <path fill-rule="evenodd" clip-rule="evenodd"
        d="M28.8132 12.5776C28.9443 12.4243 29.0501 12.3005 29.1273 12.2056C28.3784 10.1623 27.848 6.44575 29.9285 3.89223C29.9013 3.89901 29.8735 3.90917 29.845 3.92288C26.7918 5.39443 26.9053 7.90268 26.9967 9.92284C27.0115 10.2511 27.0258 10.5665 27.0258 10.8625C22.7424 14.2079 19.2582 20.8701 17.325 29.082C17.3174 29.0749 17.3097 29.0679 17.3021 29.0609C17.2659 29.3114 17.2306 29.5787 17.1927 29.8658C17.1099 30.4921 17.0147 31.2125 16.8708 32.0577C17.0632 32.2246 17.1376 32.2152 17.2628 32.1995C17.4247 32.1792 17.6715 32.1482 18.3675 32.4734C18.8928 30.6485 19.5534 29.2046 20.179 27.8372C20.5244 27.0822 20.8591 26.3504 21.1545 25.5907C24.0491 18.1476 27.5691 14.0321 28.8132 12.5776ZM61.1723 9.69535C60.8296 9.69502 60.5064 9.65191 60.206 9.56186C57.2272 8.66906 55.1749 6.87984 53.2436 5.19605C50.9348 3.18316 48.7988 1.32092 45.4592 1.32092C43.0421 1.32092 41.3388 1.32092 38.1943 3.16438C38.044 3.21495 37.938 3.18085 37.8624 3.08689L38.0857 4.40777L40.9708 5.69856C43.4763 4.40777 45.9805 3.496 49.3984 5.24294C51.0258 6.07472 52.041 6.91536 52.9299 7.65152C54.5196 8.96799 55.7059 9.95032 59.2686 9.95032C59.9041 9.95032 60.5422 9.85756 61.1723 9.69535ZM37.6624 1.90369C37.6617 1.88063 37.661 1.8575 37.6602 1.83434C37.6418 1.25497 37.6225 0.649492 37.4043 0.376465L37.6624 1.90369Z"
        fill="#C7FFFE" />
    <path fill-rule="evenodd" clip-rule="evenodd"
        d="M96.4663 17.9653C96.5792 18.7603 96.6685 19.5953 96.733 20.4722C96.7686 20.4386 96.8041 20.4051 96.8397 20.3716C95.1997 22.1174 93.3351 24.1395 91.4851 26.1459L91.4839 26.1472C91.0534 26.614 90.6237 27.0801 90.1978 27.5416C88.4322 29.4546 86.7343 31.2872 85.3272 32.7669C83.9363 34.2296 82.7864 35.3941 82.1373 35.9351C81.7292 36.2751 81.1228 36.2199 80.7827 35.8119C80.4427 35.4038 80.4979 34.7974 80.9059 34.4574C81.4522 34.0021 82.5212 32.9265 83.9333 31.4415C85.3292 29.9734 87.0183 28.1506 88.7843 26.237C89.2097 25.7761 89.6397 25.3098 90.0711 24.8418C92.31 22.4137 94.5882 19.9429 96.4663 17.9653Z"
        fill="#1F66FB" />
    <g style="mix-blend-mode:overlay">
        <path
            d="M22.3689 61.6944L32.3124 62.5625C32.8453 62.609 33.1755 63.1841 32.9644 63.6981C31.9501 66.1681 29.4954 67.7206 26.8683 67.4913C24.2413 67.2619 22.0954 65.3078 21.5283 62.6998C21.4103 62.1569 21.8359 61.6479 22.3689 61.6944Z"
            fill="#1F66FB" />
    </g>
    <g style="mix-blend-mode:overlay">
        <path
            d="M41.1596 63.3958L52.0988 62.6775C52.6851 62.639 53.1361 63.1547 52.9894 63.696C52.2847 66.2966 49.868 68.2192 46.9778 68.4089C44.0877 68.5987 41.4431 67.0084 40.4082 64.5221C40.1928 64.0046 40.5733 63.4343 41.1596 63.3958Z"
            fill="#1F66FB" />
    </g>
    <g style="mix-blend-mode:overlay">
        <path
            d="M33.9634 71.3011L44.9238 71.0774C45.5113 71.0654 45.9385 71.601 45.7675 72.1351C44.9461 74.7012 42.445 76.5127 39.5493 76.5718C36.6536 76.6309 34.0834 74.9228 33.1618 72.3923C32.97 71.8656 33.3759 71.313 33.9634 71.3011Z"
            fill="#1F66FB" />
    </g>
    <path fill-rule="evenodd" clip-rule="evenodd"
        d="M37.9868 3.17666C38.0137 3.26196 38.0431 3.34163 38.0755 3.41705C38.3182 3.98255 38.7704 4.40629 40.1505 5.26649C41.0098 5.80207 41.8818 6.48503 42.7312 7.16309C42.8426 7.25196 42.9536 7.34083 43.0645 7.42953C43.8157 8.03077 44.5573 8.62426 45.3165 9.16095C47.0874 10.4128 48.7044 11.1671 50.2743 10.978C50.8603 10.9074 51.3925 11.3251 51.4631 11.9111C51.5337 12.497 51.1159 13.0292 50.53 13.0998C48.1177 13.3905 45.9253 12.2086 44.0828 10.9061C43.2674 10.3297 42.4717 9.69272 41.7248 9.09482L41.7248 9.0948C41.6147 9.00671 41.5057 8.91947 41.3979 8.8334C40.5416 8.14983 39.7597 7.5413 39.02 7.08023C37.6556 6.22984 36.6453 5.50378 36.1115 4.25986C35.7151 3.3361 35.62 2.1961 35.5979 0.692617C36.0159 0.486072 36.4816 0.329602 37.0016 0.237005C37.606 0.129381 37.634 1.00876 37.6602 1.83505C37.6806 2.47613 37.7 3.08526 37.9868 3.17666Z"
        fill="#1F66FB" />
    <path fill-rule="evenodd" clip-rule="evenodd"
        d="M78.7667 3.16135C79.0037 4.19294 78.9614 5.23608 78.7638 6.19648C78.3649 8.13554 77.325 9.84174 76.5412 10.7538C76.1565 11.2014 75.4819 11.2525 75.0343 10.8678C74.5867 10.4832 74.5356 9.80848 74.9203 9.36088C75.5151 8.66871 76.3582 7.28382 76.6704 5.76585C76.974 4.29024 76.7665 2.80092 75.4614 1.59075C75.3387 1.47699 75.2488 1.34116 75.192 1.19503C76.5067 1.06295 78.0358 1.54002 78.5603 2.46084C78.6337 2.66308 78.6949 2.86662 78.7451 3.07071C78.7471 3.10083 78.748 3.13126 78.748 3.16199C78.7543 3.16178 78.7605 3.16156 78.7667 3.16135Z"
        fill="#1F66FB" />
    <path fill-rule="evenodd" clip-rule="evenodd"
        d="M57.8571 8.59912C58.5767 8.97799 59.3533 9.30693 60.2059 9.56244C60.8275 9.74874 61.546 9.73409 62.335 9.55551C62.1703 9.74612 61.9313 9.87212 61.6598 9.88692C60.3723 9.95715 56.7596 10.5567 53.1516 12.3904C52.6781 12.631 52.0991 12.4423 51.8585 11.9687C51.6178 11.4952 51.8066 10.9163 52.2801 10.6756C54.2396 9.67979 56.2005 9.01937 57.8571 8.59912Z"
        fill="#C7FFFE" />
    <path fill-rule="evenodd" clip-rule="evenodd"
        d="M46.1315 26.084C46.6413 26.2334 46.9333 26.7677 46.7839 27.2774C46.0822 29.6715 45.9208 31.9604 46.7264 33.6216C48.8005 37.8986 54.7631 40.1211 59.5072 36.4779C60.4289 35.7701 61.1878 34.7334 61.9705 33.2796C62.5871 32.1344 63.1857 30.796 63.8877 29.2268C64.0829 28.7902 64.2862 28.3358 64.5001 27.8626C64.7189 27.3786 65.2886 27.1637 65.7726 27.3825C66.2566 27.6012 66.4716 28.171 66.2528 28.655C66.0496 29.1044 65.8533 29.5436 65.662 29.9712C64.9547 31.5529 64.3175 32.978 63.6642 34.1914C62.8289 35.7429 61.9146 37.0544 60.6788 38.0035C54.8601 42.4719 47.5403 39.7081 44.9957 34.4609C43.8699 32.1394 44.1977 29.2626 44.9381 26.7364C45.0875 26.2267 45.6218 25.9346 46.1315 26.084Z"
        fill="#1F66FB" />
    <path fill-rule="evenodd" clip-rule="evenodd"
        d="M21.7194 23.8012C22.2022 24.0226 22.4141 24.5935 22.1927 25.0763C20.3795 29.03 20.8243 31.6952 21.8569 33.0117C22.8471 34.2741 24.6434 34.6325 26.4994 33.4605C27.2358 32.9956 27.8743 32.0751 28.5543 30.5847C29.0086 29.5888 29.438 28.4444 29.9249 27.1471C30.1646 26.5085 30.4182 25.8328 30.6955 25.1195C30.888 24.6244 31.4453 24.3791 31.9404 24.5715C32.4354 24.764 32.6807 25.3214 32.4883 25.8164C32.2339 26.4708 31.9917 27.1157 31.757 27.741C31.2547 29.0788 30.7863 30.3265 30.3042 31.3831C29.5989 32.9292 28.7676 34.3032 27.5264 35.0869C24.9865 36.6907 22.0462 36.3697 20.3435 34.1988C18.6832 32.082 18.4788 28.5601 20.4443 24.2744C20.6657 23.7916 21.2366 23.5797 21.7194 23.8012Z"
        fill="#1F66FB" />
    <path
        d="M35.5737 51.027C36.7066 50.0357 36.5844 49.5286 37.6465 38.3413L31.8979 39.5299C31.6855 42.6689 31.3882 49.1189 31.8979 50.3085C32.5352 51.7954 34.4408 52.0184 35.5737 51.027Z"
        fill="#1F66FB" />
    <path fill-rule="evenodd" clip-rule="evenodd"
        d="M40.6047 37.248C41.1319 37.313 41.5066 37.793 41.4416 38.3202C41.0917 41.161 40.8699 43.3483 40.7021 45.0723C40.6743 45.3583 40.6479 45.6325 40.6225 45.8954C40.496 47.2078 40.3964 48.2417 40.2826 49.0786C40.1452 50.0885 39.979 50.882 39.6875 51.6014C39.3909 52.3329 38.9862 52.9354 38.4399 53.5943C35.5672 57.0586 30.7575 55.8197 29.3611 52.5034C28.8729 51.3437 28.6874 50.4661 28.6358 49.7545C28.6103 49.4021 28.6188 49.1064 28.6323 48.8627C28.6377 48.7644 28.6429 48.6858 28.6473 48.6188C28.6552 48.5007 28.6606 48.4188 28.6606 48.3291C28.6606 47.798 29.0911 47.3674 29.6223 47.3674C30.1535 47.3673 30.5841 47.7979 30.5841 48.3291C30.5841 48.4838 30.5722 48.6657 30.5622 48.8188C30.5586 48.8733 30.5553 48.924 30.5529 48.9687C30.5419 49.167 30.5368 49.3742 30.5543 49.6155C30.5888 50.0913 30.7159 50.7642 31.1339 51.7569C32.0033 53.8218 35.0622 54.6543 36.9592 52.3665C37.4306 51.798 37.7075 51.3657 37.9049 50.8788C38.1072 50.3796 38.2472 49.7711 38.3766 48.8194C38.4849 48.0232 38.5801 47.0363 38.7067 45.7231C38.7323 45.4578 38.7592 45.1791 38.7877 44.8861C38.9563 43.1532 39.1799 40.9482 39.5326 38.085C39.5975 37.5578 40.0775 37.1831 40.6047 37.248Z"
        fill="#1F66FB" />
    <path
        d="M32.8128 39.1333C32.0126 34.7821 33.876 32.436 37.7021 31.1109C31.7505 29.7853 28.581 33.8606 27.8474 36.5231L32.8128 39.1333Z"
        fill="#C7FFFE" />
    <path fill-rule="evenodd" clip-rule="evenodd"
        d="M35.3008 31.4383C35.3939 30.9154 35.8933 30.567 36.4163 30.6601C38.9675 31.1144 40.3994 32.2808 41.1564 33.7039C41.7999 34.9136 41.8964 36.2282 41.9571 37.0551C41.9635 37.1432 41.9696 37.2259 41.9759 37.3022C42.0149 37.7763 41.7013 38.2077 41.2383 38.317L32.2575 40.437C32.0178 40.4936 31.7656 40.456 31.5527 40.3321L27.9114 38.2121C27.4523 37.9449 27.2969 37.3561 27.5641 36.8971C27.8314 36.4381 28.4201 36.2826 28.8791 36.5498L32.189 38.4768L39.9901 36.6353C39.9224 35.9524 39.803 35.2553 39.4582 34.6072C39.0177 33.7791 38.1356 32.92 36.079 32.5538C35.5561 32.4607 35.2077 31.9612 35.3008 31.4383Z"
        fill="#1F66FB" />
    <defs>
        <radialGradient id="paint0_radial_5716_153092" cx="0" cy="0" r="1"
            gradientUnits="userSpaceOnUse"
            gradientTransform="translate(38.949 8.85836) rotate(60.4571) scale(92.5711 145.537)">
            <stop stop-color="#26FF55" />
            <stop offset="0.615306" stop-color="#268AFF" />
            <stop offset="1" stop-color="#FC55FF" />
        </radialGradient>
        <radialGradient id="paint1_radial_5716_153092" cx="0" cy="0" r="1"
            gradientUnits="userSpaceOnUse"
            gradientTransform="translate(38.949 8.85836) rotate(60.4571) scale(92.5711 145.537)">
            <stop stop-color="#26FF55" />
            <stop offset="0.615306" stop-color="#268AFF" />
            <stop offset="1" stop-color="#FC55FF" />
        </radialGradient>
        <radialGradient id="paint2_radial_5716_153092" cx="0" cy="0" r="1"
            gradientUnits="userSpaceOnUse"
            gradientTransform="translate(38.949 8.85836) rotate(60.4571) scale(92.5711 145.537)">
            <stop stop-color="#26FF55" />
            <stop offset="0.615306" stop-color="#268AFF" />
            <stop offset="1" stop-color="#FC55FF" />
        </radialGradient>
    </defs>
</svg>