<svg width="19" height="23" viewBox="0 0 19 23" fill="none" xmlns="http://www.w3.org/2000/svg"><path d="M1.95703 9.00208H16.7897V21.34C16.7897 22.3484 15.7925 23.0538 14.8417 22.718L9.37335 20.787L3.90498 22.718C2.95415 23.0538 1.95703 22.3484 1.95703 21.34V9.00208Z" fill="#AFAFAF"/><path d="M16.7398 14.679C13.8227 18.7474 8.15988 19.6808 4.09144 16.7638C0.022994 13.8468 -0.910409 8.18393 2.00662 4.11548C4.92365 0.0470419 10.5865 -0.886362 14.6549 2.03067C18.7234 4.9477 19.6568 10.6105 16.7398 14.679Z" fill="#E5E5E5"/><path d="M15.0457 9.39721C15.0457 12.5301 12.506 15.0699 9.37304 15.0699C6.24013 15.0699 3.7004 12.5301 3.7004 9.39721C3.7004 6.2643 6.24013 3.72457 9.37304 3.72457C12.506 3.72457 15.0457 6.2643 15.0457 9.39721Z" stroke="#AFAFAF" stroke-width="1.83928"/><path d="M11.5377 6.47638C11.2524 6.19103 11.2524 5.72839 11.5377 5.44304L12.8351 4.14565C13.1205 3.8603 13.5831 3.8603 13.8685 4.14565L15.1659 5.44304C15.4512 5.72839 15.4512 6.19103 15.1659 6.47638L13.8685 7.77376C13.5831 8.05911 13.1205 8.05911 12.8351 7.77376L11.5377 6.47638Z" fill="white"/></svg>