<svg width="30" height="30" viewBox="0 0 30 30" fill="none" xmlns="http://www.w3.org/2000/svg"><path fill-rule="evenodd" clip-rule="evenodd" d="M28.5355 8.53553C30.4882 6.58291 30.4882 3.41709 28.5355 1.46447C26.5829 -0.488155 23.4171 -0.488155 21.4645 1.46447L14.9995 7.92942L8.53602 1.46593C6.5834 -0.486691 3.41758 -0.486691 1.46495 1.46593C-0.487667 3.41855 -0.487667 6.58438 1.46495 8.537L7.92844 15.0005L1.46447 21.4645C-0.488155 23.4171 -0.488155 26.5829 1.46447 28.5355C3.41709 30.4882 6.58291 30.4882 8.53553 28.5355L14.9995 22.0716L21.465 28.537C23.4176 30.4896 26.5834 30.4896 28.536 28.537C30.4886 26.5844 30.4886 23.4186 28.536 21.4659L22.0706 15.0005L28.5355 8.53553Z" fill="#EA2B2B"/></svg>