<svg width="270" height="271" viewBox="0 0 270 271" fill="none" xmlns="http://www.w3.org/2000/svg">
    <g clip-path="url(#clip0_44_53966)">
        <path fill-rule="evenodd" clip-rule="evenodd"
            d="M83.8312 134.051C81.1608 134.147 78.9315 134.258 77.5088 134.051C71.9411 133.243 65.7621 135.16 60.9844 137.901C49.9785 144.214 42.2617 144.554 35.1697 141.082C31.3085 139.192 28.1382 136.716 25.1454 133.685C24.1343 132.661 23.3277 131.844 22.3682 131.044C20.0017 129.072 17.9835 128.462 15.1199 128.3C13.5189 128.209 11.718 128.266 9.37067 128.368C9.13228 128.378 8.88917 128.388 8.64143 128.399C6.52209 128.492 -34.9357 128.6 -37.6803 128.6V117.004C-35.2046 117.004 6.0021 116.907 8.13688 116.814C8.38253 116.803 8.62724 116.792 8.87128 116.782C11.1667 116.683 13.5169 116.594 15.7757 116.722C20.6316 116.997 22.1673 117.23 26.7916 121.083C30.3373 124.038 34.8037 128.98 39.0191 131.044C41.6238 132.319 47.1858 133.334 55.9881 128.286C61.3291 125.222 64.0954 123.902 67.9685 123.132C71.9215 122.346 75.2319 122.402 77.7505 122.767C82.5232 123.461 85.7581 119.712 89.6475 117.117C93.2684 114.702 97.4666 115.35 101.115 114.109C105.947 112.466 111.34 112.354 119.7 112.941C126.265 113.401 132.993 117.36 138.345 121.839C144.177 126.721 145.586 133.072 152.76 130.848C155.967 129.854 158.862 129.725 161.369 129.77C162.384 129.788 163.314 129.826 164.188 129.861C167.732 130.005 170.364 130.112 174.073 128.73C179.514 126.703 184.345 123.058 189.19 119.896C194.886 116.178 201.335 113.245 213.705 112.928C225.563 112.624 231.878 113.672 236.903 114.388C241.462 115.038 244.731 115.396 251.315 114.126C260.937 112.27 267.238 113.795 273.046 116.577C274.708 117.373 276.504 118.368 278.185 119.299C279.038 119.772 279.862 120.228 280.623 120.633C283.089 121.946 318.578 123.198 321.781 124.244V135.268C321.781 135.268 289.381 136.595 285.317 135.268C281.254 133.941 277.982 132.364 275.173 130.869C274 130.244 273.005 129.691 272.092 129.184C270.658 128.386 269.429 127.703 268.036 127.036C264.277 125.235 260.494 124.165 253.512 125.513C245.244 127.108 240.594 126.628 235.266 125.868C230.404 125.175 224.865 124.242 214.002 124.521C203.65 124.786 198.983 126.97 195.195 129.443C194.28 130.04 193.294 130.759 192.21 131.55C188.781 134.052 184.373 137.268 178.122 139.597C172.027 141.868 166.725 141.477 163.014 141.299C161.012 141.203 158.875 140.857 157.808 142.963C156.74 145.068 158.775 146.175 160.411 146.506C162.046 146.836 172.84 145.879 181.815 150.483C188.783 154.058 191.792 158.863 192.878 167.186C193.348 170.792 194.986 173.52 195.716 175.634C196.997 179.349 198.787 179.964 202.445 179.964C203.47 180.03 203.938 179.815 205.171 179.964C207.949 180.301 208.583 181.454 210.666 183.89C215.091 189.063 219.236 189.239 226.729 189.239C227.831 189.239 233.624 169.866 234.526 169.709C236.727 169.324 269.669 167.043 269.669 180.95C269.669 193.62 249.891 192.292 249.891 194.786C249.891 196.9 252.486 197.111 254.171 199.371C255.637 201.338 256.03 203.737 257.671 205.663C258.345 206.454 259.045 207.033 260.447 207.484C262.072 208.006 264.821 208.406 269.669 208.201C284.565 207.572 320.449 208.5 324.078 208.934C324.595 208.995 325.028 209.047 325.385 209.083L324.231 220.622C323.846 220.583 323.395 220.529 322.864 220.466C319.316 220.041 284.141 219.196 270.158 219.787C264.665 220.019 260.371 219.641 256.895 218.523C253.197 217.333 250.739 215.408 248.844 213.184C247.974 212.163 247.251 211.111 246.66 210.235C246.546 210.065 246.436 209.902 246.33 209.744C245.848 209.026 245.437 208.414 244.96 207.775C243.898 206.349 242.622 204.954 240.509 203.584C231.946 198.032 225.925 203.031 216.274 201.011C212.752 200.274 209.808 199.154 207.689 197.201C205.66 195.332 204.995 192.914 204.073 191.69C203.152 190.466 199.785 191.435 198.277 191.251C196.183 190.997 193.18 190.436 190.627 188.433C190.589 188.41 190.55 188.386 190.51 188.363C187.579 186.598 183.637 190.466 179.512 188.775C174.867 186.872 171.547 186.506 169.668 187.203C166.141 188.514 162.521 188.739 159.363 188.715C157.769 188.704 156.169 188.625 154.695 188.551L154.64 188.548C153.146 188.474 151.772 188.406 150.418 188.389C145.028 188.322 141.285 189.099 138.16 192.727C135.21 196.15 131.124 198.479 126.943 200.045C122.711 201.63 118.008 202.574 113.397 202.997C104.464 203.818 94.5278 202.789 88.2621 199.371C81.5346 195.702 82.6787 190.68 80.9416 188.54C78.4217 185.436 69.3599 184.479 66.8783 184.351C57.7449 183.878 51.8961 181.938 47.4465 178.418C45.326 176.74 43.7464 174.875 42.4249 173.197C41.9802 172.632 41.5801 172.111 41.1974 171.612C40.3582 170.519 39.6029 169.535 38.6457 168.444C37.7617 167.437 36.1532 166.433 33.4878 165.649C30.858 164.875 27.6472 164.448 24.0991 164.262C20.5773 164.079 16.9353 164.142 13.4867 164.261C12.4956 164.295 11.4958 164.335 10.5135 164.374C8.21288 164.466 -35.9052 164.554 -37.6807 164.554V152.957C-36.144 152.957 7.59273 152.884 9.751 152.798C10.7851 152.757 11.8959 152.712 13.0888 152.671C16.6354 152.549 21.4979 151.292 25.5269 151.502C29.5296 151.711 33.7391 152.214 37.5823 153.344C41.3899 154.463 45.3072 156.336 48.1852 159.616C50.8388 162.64 51.2635 166.651 54.641 169.323C56.5289 170.816 58.5009 172.158 66.2627 172.559C70.9818 172.803 72.5198 174.457 75.612 175.949C78.7936 177.484 82.3577 176.667 83.8309 180.398C85.304 184.13 89.7507 186.974 93.8149 189.191C97.162 191.016 104.318 191.727 112.252 190.998C118.044 190.466 128.177 187.737 132.282 182.972C139.335 174.786 145.158 178.49 154.695 178.561C157.343 178.581 165.373 180.395 168.365 179.284C174.212 177.112 179.634 177.752 184.562 179.646C181.38 172.848 179.618 161.696 175.379 159.522C171.779 157.675 167.25 156.625 158.72 157.336C156.264 157.54 153.849 157.481 151.622 156.766C149.169 155.978 147.384 154.54 146.066 152.771C144.918 151.231 144.146 149.444 143.572 148.102C143.474 147.872 143.377 147.643 143.28 147.415C142.746 146.156 142.221 144.919 141.504 143.511C139.365 139.311 135.44 134.53 130.902 130.732C126.217 126.811 120.514 122.736 116.218 121.839C107.938 120.112 102.144 121.006 99.6939 121.839C93.1423 124.067 90.7923 133.802 83.8312 134.051Z"
            fill="url(#paint0_radial_44_53966)" />
        <path
            d="M84.1914 227.56C84.1914 224.692 86.5168 222.366 89.3854 222.366H99.7912C102.66 222.366 104.985 224.692 104.985 227.56C104.985 230.429 102.66 232.754 99.7912 232.754H89.3854C86.5168 232.754 84.1914 230.429 84.1914 227.56Z"
            fill="#FFD111" />
        <path
            d="M37.8096 114.878C37.8096 112.486 39.7482 110.548 42.1395 110.548H50.8143C53.2057 110.548 55.1442 112.486 55.1442 114.878C55.1442 117.269 53.2057 119.208 50.8143 119.208H42.1395C39.7482 119.208 37.8096 117.269 37.8096 114.878Z"
            fill="#FFD111" />
        <path
            d="M259.279 135.477C259.576 137.358 261.342 138.641 263.223 138.344C265.104 138.047 266.388 136.281 266.091 134.4C265.794 132.519 264.028 131.235 262.147 131.532C260.266 131.83 258.982 133.595 259.279 135.477Z"
            fill="#FFD111" />
        <path
            d="M267.433 167.41C268.149 159.269 261.081 157.181 256.25 157.181C256.25 155.064 254.603 155.135 256.25 150.411C258.308 144.506 260.634 145.49 260.634 142.18C260.634 136.238 253.482 136.01 250.703 140.212C248.677 143.274 250.076 150.053 250.076 153.632L212.946 155.064C211.372 151.556 206.057 151.931 204.179 153.185C204.983 147.817 203.284 141.734 200.51 139.139C196.306 135.206 190.161 134.966 188.074 139.14C184.585 146.117 193.889 146.564 193.889 160.163C193.889 167.321 193.621 166.606 193.353 171.527C193.084 176.447 193.621 184.231 201.852 183.158C210.083 182.084 213.036 185.752 220.014 192.015C226.993 198.278 229.14 193.983 239.429 194.162C249.718 194.341 247.22 186.751 252.134 186.378C258.039 185.931 256.339 180.473 259.471 176.447C262.602 172.421 266.663 176.179 267.433 167.41Z"
            fill="#FFD111" />
        <path
            d="M171.746 191.914H150.895C134.758 191.914 124.384 197.884 122.552 206.364C122.552 215.187 122.619 213.157 122.619 219.602C122.618 224.643 128.528 230.918 134.186 230.918C146.598 230.918 154.64 236.852 163.768 236.852C176.927 236.852 176.05 232.77 183.193 229.728C188.816 227.333 194.805 230.262 195.933 221.573C197.061 212.884 196.22 210.537 194.974 204.475C193.729 198.413 181.885 191.914 171.746 191.914Z"
            fill="#FFD212" />
        <path
            d="M74.5336 213.515C74.5336 211.054 72.3999 210.506 72.3999 206.462C72.3999 203.864 75.1831 204.793 78.5235 203.123C91.5881 196.59 80.0081 179.74 64.6052 180.482C59.5316 181.305 54.3715 175.657 46.4192 175.657C40.5233 175.657 34.7959 176.708 33.1505 181.781C31.505 186.854 25.7261 182.638 22.5726 187.163C19.4191 191.688 18.4944 191.06 14.7781 191.06C8.1969 191.06 6.75889 195.799 6.98374 198.947L6.98596 198.978C7.26022 202.818 7.68424 208.755 13.5917 209.895C17.7312 210.694 17.6274 211.674 19.4174 216.484C21.2741 221.474 24.2987 224.353 29.9024 223.907C36.3086 223.398 38.8162 223.384 43.8207 223.907C52.139 224.776 47.3865 221.525 58.574 222.979C69.7615 224.434 74.5336 218.898 74.5336 213.515Z"
            fill="#FFD111" />
        <path
            d="M238.813 146.399C229.042 146.398 234.904 146.399 225.256 146.399C217.562 146.399 212.539 145.915 210.647 154.112C208.894 161.708 193.927 156.817 195.032 164.914C195.986 171.906 192.892 180.958 203.685 180.269C208.379 179.969 209.951 184.609 214.713 187.676C218.04 189.819 223.674 189.778 226.324 189.778C233.119 189.778 231.645 186.975 239.837 186.975C244.845 186.975 243.342 179.908 248.8 178.992C254.105 178.102 257.072 172.47 258.743 163.482C259.198 161.031 256.578 155.397 249.565 155.397C247.929 149.554 242.678 146.399 238.813 146.399Z"
            fill="#FF6E35" />
        <path
            d="M238.795 141.929C229.025 141.928 234.886 141.929 225.238 141.929C217.544 141.929 212.521 141.445 210.629 149.642C208.876 157.238 197.891 152.564 195.553 160.394C194.067 165.371 194.909 173.41 204.435 175.12C209.769 176.077 221.069 188.425 227.576 185.171C233.653 182.132 233.298 183.768 237.744 183.768C242.751 183.768 241.718 176.172 249.548 175.12C254.879 174.404 259.014 170.328 259.014 159.576C259.014 157.083 256.56 150.928 249.548 150.928C247.912 145.084 242.66 141.929 238.795 141.929Z"
            fill="#5B3837" />
        <path
            d="M170.412 191.985H152.581C138.78 191.985 129.909 197.514 128.342 204.416C128.342 211.597 128.399 209.275 128.399 214.521C128.399 218.624 133.452 222.763 138.292 222.763C148.906 222.763 155.783 228.561 163.589 228.561C174.843 228.561 174.093 225.239 180.202 222.763C185.011 220.814 190.277 222.334 190.277 215.592V204.66C190.277 199.917 179.083 191.985 170.412 191.985Z"
            fill="url(#paint1_linear_44_53966)" />
        <path
            d="M170.411 182.018H152.58C138.779 182.018 144.275 189.59 136.214 193.254C128.154 196.918 129.547 198.761 128.398 203.879C127.644 207.239 133.527 211.94 138.29 212.795C143.219 213.68 142.443 212.917 149.282 214.016C156.121 215.115 155.511 223.298 164.793 223.298C174.075 223.298 176.762 221.466 179.082 216.825C181.402 212.184 187.021 210.474 189.585 205.467C192.15 200.46 186.899 195.208 182.013 193.254C177.61 191.493 179.082 182.018 170.411 182.018Z"
            fill="#5B3837" />
        <path
            d="M162.904 183.91C162.904 183.28 162.864 182.649 162.785 182.018H152.59C144.336 182.018 142.984 184.726 141.507 187.687L141.507 187.687C140.514 189.677 139.464 191.781 136.224 193.254C129.632 196.25 129.363 198.029 128.855 201.377C128.742 202.123 128.617 202.947 128.408 203.879C128.166 204.955 128.605 206.169 129.47 207.349C130.458 207.44 131.448 207.487 132.437 207.487C149.263 207.487 162.904 196.931 162.904 183.91Z"
            fill="#442A29" />
        <path
            d="M123.309 135.396C111.846 135.395 107.02 134.812 95.6995 134.812C86.672 134.812 63.5072 135.636 63.507 145.507C63.5069 154.803 63.5067 146.713 63.5069 154.191C63.5071 161.365 65.4731 169.696 76.6502 171.703C87.8272 173.709 82.7316 182.146 92.9442 182.146C103.417 182.146 96.7308 184.901 109.583 184.901C120.209 184.901 120.311 173.681 125.418 172.621C131.499 171.358 135.185 170.96 138.155 165.391C144.351 153.772 139.653 135.397 123.309 135.396Z"
            fill="#FFD212" />
        <path
            d="M120.032 135.628C110.262 135.628 106.476 135.628 96.8276 135.628C89.1334 135.628 70.1594 137.424 70.1593 145.836C70.1592 153.758 70.1591 146.864 70.1593 153.236C70.1594 159.349 71.0656 165.356 80.5918 167.066C90.118 168.775 85.775 175.965 94.4792 175.965C103.405 175.965 97.7066 178.312 108.66 178.312C117.717 178.312 117.804 168.751 122.156 167.848C127.34 166.772 130.481 166.433 133.012 161.687C136.142 155.819 136.24 148.581 136.24 143.105C136.24 138.462 128.38 135.629 120.032 135.628Z"
            fill="url(#paint2_linear_44_53966)" />
        <path
            d="M120.032 123.793C110.262 123.793 106.476 123.793 96.8277 123.793C89.1335 123.793 86.2638 124.587 82.5998 132.159C78.9359 139.731 71.8523 135.945 70.5089 142.173C69.4138 147.251 70.2644 152.554 79.7906 154.264C89.3168 155.974 86.5688 159.699 91.393 164.523C96.2171 169.347 101.408 167.943 108.369 168.553C117.391 169.345 116.259 158.05 120.704 158.05C125.712 158.05 128.643 157.44 132.062 153.287C135.482 149.135 138.169 139.975 134.383 137.288C130.597 134.601 128.38 123.794 120.032 123.793Z"
            fill="#5B3837" />
        <path fill-rule="evenodd" clip-rule="evenodd"
            d="M136.196 142.826C135.947 146.471 134.14 150.843 132.062 153.367C128.642 157.519 125.711 158.13 120.703 158.13C118.892 158.13 118.006 160.006 116.983 162.175C115.494 165.328 113.713 169.102 108.368 168.633C106.69 168.485 105.114 168.455 103.621 168.427C101.847 168.393 100.19 168.361 98.6176 168.138C98.4757 167.287 98.4023 166.434 98.4023 165.583C98.4023 152.562 112.043 142.007 128.87 142.007C131.322 142.007 133.782 142.294 136.196 142.826Z"
            fill="#442A29" />
        <path fill-rule="evenodd" clip-rule="evenodd"
            d="M65.0265 185.03C71.5553 184.94 78.5707 184.844 78.5707 190.151C78.5707 197.545 77.2762 200.159 70.8033 200.159C68.0699 200.159 66.5303 201.923 65.0538 203.614C63.6934 205.172 62.3865 206.669 60.249 206.669H53.5507C52.3908 206.669 51.8121 206.114 51.1049 205.434C50.0251 204.397 48.6455 203.071 44.4389 202.997C39.5845 202.912 35.5786 204.715 37.2883 207.158C38.7583 209.259 41.1051 208.72 43.2166 208.236C44.0711 208.039 44.887 207.852 45.5908 207.852C48.1974 207.852 49.9224 209.117 49.9224 212.395C49.9224 215.672 49.5015 219.549 42.0515 219.549C40.3522 219.549 39.3551 219.398 38.2383 219.228C36.8167 219.013 35.2012 218.767 31.6966 218.767C26.6893 218.767 24.4647 218.15 23.4877 213.509C23.308 212.655 23.1944 211.884 23.0922 211.191C22.6387 208.113 22.4094 206.557 17.6253 206.059C12.3747 205.513 12.1362 202.151 11.8979 198.79C11.8936 198.73 11.8893 198.67 11.885 198.609C11.6847 195.805 13.4727 191.77 19.335 191.77C22.5231 191.77 23.833 191.951 24.8164 191.467C25.6413 191.062 26.2366 190.189 27.518 188.35C28.8517 186.437 30.6259 186.065 32.2785 185.718C34.1066 185.335 35.7858 184.983 36.5556 182.61C38.0214 178.091 41.5628 176.137 46.8146 176.137C50.6127 176.137 53.5678 178.911 56.1887 181.371C58.4558 183.499 60.4728 185.392 62.5689 185.052C63.3698 185.052 64.1942 185.041 65.0265 185.03ZM56.7625 210.223C55.428 210.316 53.1707 211.348 52.3374 212.395C52.3374 215.883 53.3632 219.18 57.3995 219.18C61.4358 219.18 64.2112 219.272 65.5457 219.18C66.8802 219.087 68.1144 218.438 68.9477 217.392C70.0944 215.951 69.9705 213.065 69.9705 211.379C69.2741 209.538 67.189 209.497 64.883 209.658L56.7625 210.223Z"
            fill="#FF6E35" />
        <path fill-rule="evenodd" clip-rule="evenodd"
            d="M62.5689 182.478C69.6527 182.478 77.8983 182.844 78.4464 188.463C78.9349 193.47 77.103 196.035 70.6301 196.035C68.1774 196.035 67.2431 197.793 66.2473 199.667C65.1108 201.806 63.8941 204.095 60.249 204.095H54.5088C53.3483 204.095 52.628 203.463 51.7492 202.692C50.4085 201.516 48.6988 200.017 44.4937 199.943C37.5322 199.821 35.5786 202.141 37.2883 204.584C38.7253 206.638 39.286 206.483 40.3174 206.2C40.7681 206.076 41.3087 205.927 42.0515 205.927C44.4944 205.927 49.7457 208.003 49.7457 210.935C49.7457 213.866 49.5015 217.652 42.0515 217.652C39.9054 217.652 38.999 217.478 38.0029 217.287C36.7883 217.055 35.4403 216.797 31.5483 216.797C26.5409 216.797 24.4647 215.575 23.4877 210.935C23.308 210.081 23.1944 209.31 23.0922 208.616C22.6387 205.539 22.4094 203.983 17.6253 203.485C12.3747 202.939 12.1362 199.576 11.8979 196.216C11.8936 196.156 11.8893 196.095 11.885 196.035C11.6847 193.231 13.4727 189.196 19.335 189.196C22.5231 189.196 23.833 189.377 24.8164 188.893C25.6413 188.488 26.2366 187.615 27.518 185.776C28.8517 183.862 30.6259 183.491 32.2785 183.144C34.1066 182.761 35.7858 182.409 36.5556 180.036C38.0214 175.517 41.5628 173.562 46.8146 173.562C50.6127 173.562 53.5678 176.336 56.1887 178.797C58.4558 180.925 60.4727 182.818 62.5689 182.478ZM56.7625 207.649C55.428 207.742 54.1938 208.39 53.3605 209.437C50.7738 212.685 53.2827 217.459 57.4252 217.171L65.5457 216.605C66.8802 216.512 68.1144 215.864 68.9477 214.817C71.5344 211.569 69.0255 206.795 64.883 207.084L56.7625 207.649Z"
            fill="#5B3837" />
        <path
            d="M40.1445 181.649C40.1445 180.458 41.1101 179.492 42.3012 179.492H48.7475C49.9386 179.492 50.9042 180.458 50.9042 181.649C50.9042 182.84 49.9386 183.806 48.7475 183.806H42.3012C41.1101 183.806 40.1445 182.84 40.1445 181.649Z"
            fill="#FF6E35" />
        <path
            d="M211.769 178.061C211.769 181.015 212.368 185.28 212.368 187.343L219.155 192.034L226.94 189.739C223.709 189.876 222.786 187.336 220.427 186.627C219.745 186.422 219.156 185.869 219.172 185.157C219.276 180.65 219.752 173.811 217.757 169.278C215.561 164.288 208.375 163.19 207.078 169.278C205.78 175.366 211.769 174.368 211.769 178.061Z"
            fill="#FFD111" />
        <path
            d="M225.046 180.41C225.282 180.991 226.105 180.991 226.341 180.41L228.532 175.012C229.35 172.998 227.868 170.796 225.694 170.796C223.52 170.796 222.037 172.998 222.855 175.012L225.046 180.41Z"
            fill="#FFD111" />
        <path
            d="M185.548 105.442C187.162 102.98 190.653 103.111 192.643 105.288C195.957 108.914 191.876 115.044 189.052 117.626C186.875 119.616 183.888 119.458 182.168 117.577C180.178 115.4 180.075 113.488 181.938 111.209C183.802 108.93 183.934 107.905 185.548 105.442Z"
            fill="#FF9900" />
        <path fill-rule="evenodd" clip-rule="evenodd"
            d="M193.731 110.001C193.129 112.942 190.839 115.995 189.052 117.628C186.875 119.618 183.889 119.461 182.169 117.58C181.791 117.167 181.482 116.764 181.241 116.366C181.862 113.988 183.695 114.151 185.358 114.299C186.364 114.388 187.308 114.472 187.885 113.985C188.296 113.638 188.663 113.164 189.051 112.664C190.074 111.344 191.24 109.841 193.731 110.001Z"
            fill="#FFF600" />
        <path
            d="M126.853 132.338C127.676 135.56 124.605 138.37 121.273 138.37C115.724 138.37 113.475 130.904 113.955 126.545C114.436 122.187 117.435 120.083 119.738 120.081C123.07 120.079 124.161 121.25 124.963 124.448C125.765 127.645 126.031 129.116 126.853 132.338Z"
            fill="#FF9900" />
        <path fill-rule="evenodd" clip-rule="evenodd"
            d="M116.971 136.455C116.873 135.914 117.053 135.337 117.496 134.95C118.167 134.365 119.184 134.434 119.769 135.104C120.77 136.25 121.956 136.533 123.089 136.298C124.287 136.05 125.506 135.194 126.292 133.899C126.463 133.616 126.708 133.405 126.987 133.275C127.07 136.086 124.278 138.37 121.273 138.37C119.514 138.37 118.086 137.619 116.971 136.455Z"
            fill="#FFF600" />
        <path
            d="M160.95 42.6276C160.355 45.3517 153.884 77.3939 153.884 77.3939C153.29 80.118 155.348 82.5717 158.497 82.4008C171.764 81.6781 168.09 78.9708 173.632 67.1225C180.341 52.7789 173.84 43.2758 167.199 39.8866C164.64 38.5803 161.545 39.9036 160.95 42.6276Z"
            fill="#B0CC00" />
        <path
            d="M177.473 59.7887C182.709 66.2811 189.899 90.38 174.64 114.795C167.581 126.088 156.775 130.076 146.519 130.781C128.334 132.03 106.917 118.226 106.917 99.2449C106.917 88.8541 112.948 88.9994 110.008 74.24C108.257 65.4497 115.778 56.5871 124.574 54.7023C133.37 52.8174 132.153 44.3157 145.138 42.6402C158.123 40.9647 172.238 53.2963 177.473 59.7887Z"
            fill="#B0CC00" />
        <path fill-rule="evenodd" clip-rule="evenodd"
            d="M182.798 94.3069C181.537 100.839 179.008 107.803 174.64 114.793C167.581 126.086 156.775 130.074 146.519 130.779C128.334 132.028 106.917 118.224 106.917 99.2431C106.917 95.0147 107.916 92.531 108.902 90.0777C110.103 87.0921 111.285 84.1515 110.628 78.166C118.643 81.8672 118.525 84.0487 118.045 91.8087C117.931 93.6662 117.648 95.3516 117.38 96.9485C116.456 102.455 115.709 106.91 122.636 113.74C137.325 128.225 159.219 122.648 165.682 118.738C170.852 115.611 174.771 108.542 178.713 101.431C180.055 99.0099 181.4 96.5838 182.798 94.3069Z"
            fill="#FFF600" />
        <path fill-rule="evenodd" clip-rule="evenodd"
            d="M160.606 44.2686C160.509 44.7372 160.397 45.2854 160.271 45.901C166.95 49.2768 172.815 54.4856 176.28 58.381C176.375 57.6291 176.431 56.8969 176.45 56.1845C173.614 53.1876 169.636 49.6842 165.075 46.7896C163.65 45.8853 162.154 45.0315 160.606 44.2686Z"
            fill="#9AB200" />
        <path fill-rule="evenodd" clip-rule="evenodd"
            d="M183.294 75.9912C184.678 85.7819 183.671 98.5592 176.489 111.643C174.436 111.723 174.426 110.289 174.526 108.777C174.247 109.218 174.047 109.734 173.8 110.373C173.219 111.872 172.378 114.046 169.635 117.514C164.701 123.752 156.464 123.317 151.313 119.557C146.737 116.219 147.855 110.362 148.863 105.079C149.04 104.153 149.213 103.245 149.352 102.372C150.295 96.4347 152.073 93.9095 156.355 91.5621C155.964 90.7535 155.302 89.0359 156.051 86.5194C157.007 83.3026 158.841 83.9379 159.637 85.0631C160.267 85.9543 160.954 86.4815 161.777 86.8934C161.535 86.4574 160.687 84.4016 161.777 81.8902C162.777 79.5862 164.096 79.7625 165.332 81.4337C165.581 81.7705 165.842 82.2132 166.136 82.7122C167.304 84.6899 168.994 87.5526 172.504 88.215C176.765 89.0187 178.677 82.3026 179.395 77.4779C179.629 75.9034 179.738 74.5677 179.826 73.4925C180.024 71.0797 180.114 69.9787 181.264 70.435C182.373 70.8752 182.969 73.9242 183.294 75.9912Z"
            fill="#C7E20B" />
        <path fill-rule="evenodd" clip-rule="evenodd"
            d="M172.663 112.95C172.033 114.162 171.108 115.651 169.635 117.513C164.701 123.751 156.464 123.316 151.312 119.556C149.432 118.184 148.513 116.387 148.153 114.379C148.732 114.173 149.393 114.405 149.706 114.958C151.442 118.019 154.576 119.728 157.898 120.265C161.256 120.809 164.55 120.115 166.463 118.689C168.207 117.389 169.453 116.191 170.255 115.283C170.657 114.828 170.938 114.457 171.113 114.193C171.194 114.069 171.244 113.982 171.271 113.93C171.418 113.314 172 112.886 172.648 112.948C172.653 112.949 172.658 112.949 172.663 112.95ZM171.292 113.883C171.292 113.883 171.29 113.889 171.285 113.9C171.289 113.889 171.292 113.883 171.292 113.883Z"
            fill="#FFF600" />
        <path
            d="M165.892 93.0947C170.635 93.0947 172.01 96.9973 171.315 101.66C170.621 106.322 170.309 107.525 169.133 110.852C167.957 114.18 164.188 116.342 160.701 116.342C155.958 116.342 154.224 112.832 154.98 107.876C155.904 101.821 158.069 93.0947 165.892 93.0947Z"
            fill="#FFFF7A" />
        <path
            d="M167.181 99.1464C169.132 98.7499 169.859 100.375 170.025 102.586C170.191 104.796 169.289 109.737 166.789 110.303C164.614 110.796 163.941 109.199 164.569 106.421C165.197 103.644 164.337 100.139 167.181 99.1464Z"
            fill="#A97424" />
        <path
            d="M160.152 112.525C161.28 112.859 161.273 111.455 163.258 112.351C165.243 113.246 165.803 112.373 166.62 112.023C167.437 111.674 168.088 112.372 167.289 113.081C165.675 114.515 163.373 115.363 161.188 115.363C158.739 115.363 157.146 114.427 156.33 112.859C155.666 111.586 156.956 110.298 158.216 110.982C159.476 111.665 158.821 112.131 160.152 112.525Z"
            fill="#FFF600" />
        <path fill-rule="evenodd" clip-rule="evenodd"
            d="M183.758 80.9111C184.063 87.1634 183.341 94.2925 180.832 101.76C180.584 102.058 180.35 102.202 180.144 102.164C178.553 101.868 177.924 99.0994 177.997 95.7285C178 95.6002 178.002 95.4511 178.005 95.2833C178.073 91.6392 178.303 79.1794 182.268 79.9172C182.943 80.0428 183.425 80.3899 183.758 80.9111Z"
            fill="#FFFF7A" />
        <path
            d="M181.334 94.9803C181.125 97.6202 180.845 99.5317 179.746 99.445C179.019 99.3876 178.81 97.2895 179.019 94.6496C179.227 92.0098 179.539 90.2007 180.606 90.285C181.674 90.3693 181.542 92.3405 181.334 94.9803Z"
            fill="#A97424" />
        <path
            d="M171.055 108.936C171.429 107.159 173.268 105.055 174.938 105.055C176.138 105.055 176.793 107.135 176.793 108.859C176.793 110.582 176.715 111.883 176.465 113.645C176.216 115.406 175.251 116.934 173.581 116.934C171.911 116.934 170.666 114.884 170.666 113.161C170.666 111.438 170.682 110.714 171.055 108.936Z"
            fill="#FF9900" />
        <path
            d="M175.888 106.784C175.888 108.952 175.811 110.479 175.686 111.898C175.561 113.317 175.061 114.486 173.846 114.486C172.631 114.486 172.022 113.582 172.022 111.68C172.022 110.739 172.32 108.703 172.942 107.362C173.578 105.991 175.888 105.682 175.888 106.784Z"
            fill="#D98100" />
        <path
            d="M180.721 106.645C179.802 107.617 176.871 106.552 170.76 110.574C170.9 107.861 171.96 104.353 174.127 102.077C176.294 99.8007 179.542 100.868 180.722 102.669C181.876 104.43 181.64 105.673 180.721 106.645Z"
            fill="#FFC200" />
        <path fill-rule="evenodd" clip-rule="evenodd"
            d="M175.5 116.019C175.024 116.581 174.384 116.934 173.581 116.934C172.339 116.934 171.332 115.8 170.897 114.51C171.121 114.485 171.35 114.579 171.491 114.774C172.017 115.506 172.875 116.109 173.749 116.303C174.357 116.438 174.963 116.377 175.5 116.019Z"
            fill="#FFF600" />
        <path
            d="M103.973 85.5946C106.648 86.383 138.208 96.261 138.208 96.261C140.883 97.0494 142.044 100.034 140.38 102.713C133.367 113.998 128.718 118.087 115.726 116.573C102.144 114.99 95.04 100.282 98.199 89.072C98.9785 86.3061 101.299 84.8062 103.973 85.5946Z"
            fill="#B0CC00" />
        <path fill-rule="evenodd" clip-rule="evenodd"
            d="M130.099 114.561C126.474 116.709 122.106 117.317 115.726 116.573C103.824 115.186 96.8961 103.719 97.4905 93.3601C98.768 91.4393 100.917 90.9917 103.11 93.4471C104.074 94.5271 104.667 96.4599 105.358 98.7094C106.926 103.817 108.994 110.557 117.047 112.659C123.273 114.284 126.335 113.15 128.114 112.491C129.252 112.07 129.865 111.843 130.444 112.659C130.933 113.347 130.747 113.987 130.099 114.561Z"
            fill="#FFF600" />
        <path fill-rule="evenodd" clip-rule="evenodd"
            d="M109.898 87.4138C110.057 86.9201 110.203 86.4063 110.33 85.8613C115.454 87.4556 122.249 89.5777 127.715 91.286C128.139 91.4187 128.376 91.8704 128.243 92.2949C128.11 92.7194 127.659 92.956 127.234 92.8233C121.777 91.1177 115.009 89.0041 109.898 87.4138Z"
            fill="#9AB200" />
        <path
            d="M185.946 66.9228C185.64 67.4701 186.154 68.1124 186.755 67.9333L192.339 66.2698C194.422 65.649 195.214 63.1158 193.855 61.4187C192.496 59.7216 189.851 59.9407 188.79 61.8383L185.946 66.9228Z"
            fill="#D1F7D0" />
        <path
            d="M187.93 71.6523C188.072 72.5506 188.915 73.1637 189.813 73.0217C190.712 72.8798 191.325 72.0365 191.183 71.1382C191.041 70.2399 190.198 69.6268 189.299 69.7688C188.401 69.9107 187.788 70.754 187.93 71.6523Z"
            fill="#D1F7D0" />
    </g>
    <defs>
        <radialGradient id="paint0_radial_44_53966" cx="0" cy="0" r="1"
            gradientUnits="userSpaceOnUse"
            gradientTransform="translate(132.464 132.072) rotate(101.086) scale(32.9698 82.3718)">
            <stop stop-color="#FF6E35" />
            <stop offset="1" stop-color="#FFD111" />
        </radialGradient>
        <linearGradient id="paint1_linear_44_53966" x1="161.644" y1="211.894" x2="161.644"
            y2="233.501" gradientUnits="userSpaceOnUse">
            <stop stop-color="#794C49" />
            <stop offset="1" stop-color="#FF6E35" />
        </linearGradient>
        <linearGradient id="paint2_linear_44_53966" x1="103.199" y1="156.97" x2="103.199"
            y2="182.752" gradientUnits="userSpaceOnUse">
            <stop stop-color="#794C49" />
            <stop offset="1" stop-color="#FF6E35" />
        </linearGradient>
        <clipPath id="clip0_44_53966">
            <rect width="270" height="270" fill="white" transform="translate(0 0.691406)" />
        </clipPath>
    </defs>
</svg>