<svg width="270" height="271" viewBox="0 0 270 271" fill="none" xmlns="http://www.w3.org/2000/svg">
    <g clip-path="url(#clip0_44_53926)">
        <path
            d="M136.717 177.799C136.717 179.777 138.32 181.38 140.298 181.38H155.719C157.698 181.38 159.301 179.777 159.301 177.799C159.301 175.821 157.698 174.217 155.719 174.217H140.298C138.32 174.217 136.717 175.821 136.717 177.799Z"
            fill="#70324E" />
        <path d="M2 187.56H268V270.691H2V187.56Z" fill="url(#paint0_linear_44_53926)" />
        <path
            d="M2 218.179H221.546C227.592 218.179 232.493 223.08 232.493 229.126C232.493 235.172 227.592 240.073 221.546 240.073H2V218.179Z"
            fill="url(#paint1_linear_44_53926)" />
        <path fill-rule="evenodd" clip-rule="evenodd"
            d="M68.8757 188.879C57.0386 188.879 50.7315 196.192 50.7315 201.601C50.7315 207.01 57.0386 214.323 68.8757 214.323C80.7127 214.323 87.0198 207.01 87.0198 201.601C87.0198 196.192 80.7127 188.879 68.8757 188.879ZM34.9658 201.601C34.9658 184.25 51.9641 173.113 68.8757 173.113C85.7873 173.113 102.786 184.25 102.786 201.601C102.786 218.951 85.7873 230.088 68.8757 230.088C51.9641 230.088 34.9658 218.951 34.9658 201.601Z"
            fill="white" />
        <path fill-rule="evenodd" clip-rule="evenodd"
            d="M205.296 188.879C193.459 188.879 187.151 196.192 187.151 201.601C187.151 207.01 193.459 214.323 205.296 214.323C217.133 214.323 223.44 207.01 223.44 201.601C223.44 196.192 217.133 188.879 205.296 188.879ZM171.386 201.601C171.386 184.25 188.384 173.113 205.296 173.113C222.207 173.113 239.205 184.25 239.205 201.601C239.205 218.951 222.207 230.088 205.296 230.088C188.384 230.088 171.386 218.951 171.386 201.601Z"
            fill="white" />
        <path fill-rule="evenodd" clip-rule="evenodd"
            d="M68.8752 180.929C54.1957 180.929 43.8065 190.956 43.8065 201.601C43.8065 212.245 54.1957 222.273 68.8752 222.273C83.5546 222.273 93.9438 212.245 93.9438 201.601C93.9438 190.956 83.5546 180.929 68.8752 180.929ZM32.7705 201.601C32.7705 183.317 49.7695 169.893 68.8752 169.893C87.9808 169.893 104.98 183.317 104.98 201.601C104.98 219.885 87.9808 233.309 68.8752 233.309C49.7695 233.309 32.7705 219.885 32.7705 201.601Z"
            fill="#70324E" />
        <path fill-rule="evenodd" clip-rule="evenodd"
            d="M68.875 180.929C60.732 180.929 53.6655 184.132 49.1576 188.863C47.0554 191.07 43.5626 191.154 41.3562 189.052C39.1498 186.95 39.0653 183.457 41.1675 181.251C47.877 174.208 57.8889 169.893 68.875 169.893C87.0405 169.893 103.187 181.951 104.845 198.838C105.142 201.871 102.925 204.571 99.8922 204.869C96.8593 205.167 94.1592 202.95 93.8614 199.917C92.8835 189.957 82.7453 180.929 68.875 180.929Z"
            fill="#8A4765" />
        <path fill-rule="evenodd" clip-rule="evenodd"
            d="M205.295 180.929C190.616 180.929 180.226 190.956 180.226 201.601C180.226 212.245 190.616 222.273 205.295 222.273C219.975 222.273 230.364 212.245 230.364 201.601C230.364 190.956 219.975 180.929 205.295 180.929ZM169.19 201.601C169.19 183.317 186.189 169.893 205.295 169.893C224.401 169.893 241.4 183.317 241.4 201.601C241.4 219.885 224.401 233.309 205.295 233.309C186.189 233.309 169.19 219.885 169.19 201.601Z"
            fill="#70324E" />
        <path fill-rule="evenodd" clip-rule="evenodd"
            d="M199.775 175.411C199.775 172.364 202.246 169.893 205.293 169.893C224.399 169.893 241.398 183.317 241.398 201.601C241.398 210.18 237.537 217.829 231.529 223.403C229.295 225.476 225.804 225.345 223.731 223.111C221.658 220.877 221.789 217.386 224.023 215.313C228.077 211.552 230.362 206.727 230.362 201.601C230.362 190.956 219.973 180.929 205.293 180.929C202.246 180.929 199.775 178.459 199.775 175.411Z"
            fill="#8A4765" />
        <path fill-rule="evenodd" clip-rule="evenodd"
            d="M153.286 122.141C156.248 124.913 157.417 129.105 156.316 133.01L149.794 156.146C148.168 161.915 142.174 165.273 136.405 163.647C130.636 162.021 127.278 156.026 128.904 150.257L129.734 147.312L126.22 148.56C120.572 150.566 114.368 147.614 112.362 141.966C110.356 136.318 113.309 130.113 118.957 128.108L142.239 119.839C146.062 118.482 150.323 119.37 153.286 122.141Z"
            fill="#FBC8F1" />
        <path
            d="M135.25 169.114C135.25 172.032 137.616 174.398 140.535 174.398H153.277C156.196 174.398 158.562 172.032 158.562 169.114C158.562 166.195 156.196 163.829 153.277 163.829H140.535C137.616 163.829 135.25 166.195 135.25 169.114Z"
            fill="#F67AE2" />
        <path fill-rule="evenodd" clip-rule="evenodd"
            d="M160.911 111.893C158.382 113.849 154.508 115.552 149.275 114.636C145.09 113.904 142.856 114.633 141.754 115.276C141.189 115.606 140.855 115.95 140.676 116.174C140.586 116.287 140.533 116.372 140.51 116.411C140.502 116.427 140.497 116.435 140.497 116.435C140.497 116.435 140.498 116.434 140.498 116.433C140.5 116.43 140.503 116.424 140.508 116.413L140.516 116.395L140.521 116.384L140.523 116.378L140.525 116.374C140.525 116.373 140.526 116.371 138.609 115.566C136.691 114.76 136.692 114.758 136.693 114.757L136.694 114.753L136.697 114.746L136.704 114.729C136.709 114.718 136.715 114.705 136.721 114.692C136.734 114.664 136.749 114.632 136.766 114.596C136.802 114.524 136.848 114.436 136.907 114.333C137.025 114.129 137.194 113.869 137.426 113.579C137.891 112.995 138.607 112.296 139.659 111.683C141.794 110.438 145.073 109.678 149.992 110.539C153.865 111.217 156.582 109.983 158.367 108.603C159.277 107.899 159.951 107.15 160.394 106.579C160.614 106.296 160.774 106.061 160.873 105.906C160.923 105.829 160.958 105.772 160.977 105.739C160.987 105.722 160.993 105.712 160.995 105.708L160.994 105.711L160.991 105.715C160.991 105.716 160.99 105.717 162.816 106.713C164.641 107.71 164.641 107.711 164.64 107.712L164.637 107.718L164.63 107.73L164.613 107.761C164.599 107.785 164.581 107.817 164.558 107.854C164.514 107.93 164.452 108.032 164.372 108.155C164.214 108.403 163.983 108.739 163.679 109.131C163.073 109.911 162.158 110.929 160.911 111.893ZM160.995 105.708C160.996 105.706 160.996 105.707 160.995 105.708Z"
            fill="#9CAEF7" />
        <path fill-rule="evenodd" clip-rule="evenodd"
            d="M144.236 99.8773C142.952 99.1975 141.248 98.7748 138.465 99.1533L137.904 95.0317C141.407 94.5554 144.011 95.052 146.182 96.2009C148 97.163 149.422 98.5559 150.652 99.7613C150.811 99.9175 150.968 100.071 151.121 100.219C152.519 101.573 153.875 102.77 155.796 103.618C157.705 104.461 160.333 105.024 164.304 104.789L164.55 108.941C160.061 109.207 156.749 108.586 154.116 107.423C151.494 106.266 149.704 104.637 148.228 103.208C148.063 103.048 147.904 102.893 147.749 102.742C146.461 101.488 145.487 100.54 144.236 99.8773Z"
            fill="#B6C2FA" />
        <path fill-rule="evenodd" clip-rule="evenodd"
            d="M162.863 105.386C157.854 109.824 148.76 110.387 141.902 101.891L138.665 104.503C146.939 114.754 158.749 114.588 165.621 108.499L162.863 105.386Z"
            fill="#9CAEF7" />
        <path
            d="M64.5566 201.502C64.5566 198.636 66.8807 196.312 69.7475 196.312H136.495C139.362 196.312 141.686 198.636 141.686 201.502C141.686 204.369 139.362 206.693 136.495 206.693H69.7475C66.8807 206.693 64.5566 204.369 64.5566 201.502Z"
            fill="#FACB6C" />
        <path
            d="M119.095 163.499C119.095 160.633 121.419 158.309 124.286 158.309H171.618C174.484 158.309 176.809 160.633 176.809 163.499C176.809 166.366 174.485 168.69 171.618 168.69H124.286C121.419 168.69 119.095 166.366 119.095 163.499Z"
            fill="#FFB100" />
        <path
            d="M65.7436 204.478C64.0072 202.196 64.4488 198.94 66.73 197.203L116.673 159.186C118.955 157.45 122.211 157.891 123.948 160.173C125.684 162.454 125.243 165.711 122.961 167.447L73.018 205.464C70.7369 207.2 67.48 206.759 65.7436 204.478Z"
            fill="#FACB6C" />
        <path
            d="M208.604 205.731C210.763 203.845 210.984 200.566 209.097 198.407L170.82 154.598C168.934 152.439 165.654 152.218 163.496 154.104C161.337 155.991 161.116 159.27 163.002 161.429L201.279 205.238C203.166 207.397 206.445 207.618 208.604 205.731Z"
            fill="#FACB6C" />
        <path
            d="M127.873 205.03C125.899 202.95 125.986 199.665 128.065 197.691L168.07 159.734C170.15 157.761 173.435 157.848 175.409 159.927C177.382 162.007 177.295 165.292 175.216 167.266L135.211 205.223C133.131 207.196 129.846 207.109 127.873 205.03Z"
            fill="#FACB6C" />
        <path
            d="M106.418 180.041H89.2773L116.674 159.187C118.955 157.45 122.212 157.892 123.948 160.173C125.684 162.454 125.243 165.711 122.962 167.447L106.418 180.041Z"
            fill="#FFB100" />
        <path
            d="M142.524 201.502C142.524 207.051 137.467 211.548 131.228 211.548C124.99 211.548 119.933 207.051 119.933 201.502C119.933 195.954 124.99 191.456 131.228 191.456C137.467 191.456 142.524 195.954 142.524 201.502Z"
            fill="#8A4765" />
        <path
            d="M94.624 159.439C94.624 152.97 99.8679 147.726 106.337 147.726H120.092C126.561 147.726 131.805 152.97 131.805 159.439C131.805 165.907 126.561 171.151 120.092 171.151H106.337C99.8679 171.151 94.624 165.907 94.624 159.439Z"
            fill="#70324E" />
        <path
            d="M167.455 95.9253C170.552 95.9253 173.062 98.436 173.062 101.533L173.062 119.86C173.062 122.957 170.552 125.468 167.455 125.468C164.357 125.468 161.847 122.957 161.847 119.86L161.847 101.533C161.847 98.436 164.357 95.9253 167.455 95.9253Z"
            fill="#8A4765" />
        <path
            d="M167.455 114.254C170.552 114.254 173.062 116.765 173.062 119.862C173.062 122.959 170.552 125.47 167.455 125.47C164.358 125.47 161.847 122.959 161.847 119.862C161.847 116.765 164.358 114.254 167.455 114.254Z"
            fill="#70324E" />
        <path
            d="M132.963 132.881C135.972 144.109 128.534 155.857 116.351 159.122C104.168 162.386 91.8523 155.931 88.8438 144.702C85.8352 133.474 93.2728 121.726 105.456 118.461C117.639 115.197 129.955 121.652 132.963 132.881Z"
            fill="#FBC8F1" />
        <path
            d="M136.508 216.174C137.323 217.976 139.445 218.777 141.248 217.961L155.298 211.606C157.1 210.791 157.901 208.669 157.085 206.866C156.27 205.064 154.148 204.264 152.346 205.079L138.295 211.435C136.493 212.25 135.693 214.372 136.508 216.174Z"
            fill="#70324E" />
        <path fill-rule="evenodd" clip-rule="evenodd"
            d="M124.944 187.462C120.025 173.084 112.012 161.075 104.337 156.335C99.2381 153.185 97.6578 146.498 100.808 141.399C103.957 136.3 110.644 134.719 115.743 137.869C129.708 146.495 139.915 164.17 145.48 180.437C147.42 186.108 144.396 192.277 138.725 194.217C133.054 196.157 126.884 193.133 124.944 187.462Z"
            fill="#FBC8F1" />
        <path
            d="M117.335 157.579C115.279 154.998 111.722 154.061 108.47 153.497C105.131 152.917 101.375 151.481 99.4245 149.357L99.4246 149.357C97.5897 147.391 96.2135 144.995 95.4829 142.268C93.4802 134.794 96.9231 127.049 103.484 122.708L103.484 119.078C92.4841 123.021 86.0011 134.094 88.8438 144.703C91.2324 153.618 99.4877 159.524 108.886 159.946C115.049 165.899 120.994 175.917 124.944 187.463C126.578 192.238 131.211 195.137 136.019 194.775C133.24 186.093 129.302 176.654 124.848 168.646C122.726 164.83 119.886 160.784 117.335 157.579Z"
            fill="#F9B4EE" />
        <path
            d="M119.397 120.406C120.577 124.94 117.177 131.906 108.172 134.249C98.5607 136.75 92.8034 132.168 91.6232 127.634C90.4431 123.099 96.2291 119.823 103.899 117.827C111.568 115.831 118.217 115.871 119.397 120.406Z"
            fill="#FB9CE7" />
        <path d="M103.172 122.921L106.882 121.659L111.105 135.644L107.905 136.643L103.172 122.921Z"
            fill="#FFC2E7" />
        <path d="M114.052 120.438L116.265 117.835L119.128 128.899L117.046 130.591L114.052 120.438Z"
            fill="#FFC2E7" />
        <path
            d="M183.487 143.926C182.871 143.372 182.254 142.815 181.646 142.263C181.652 140.453 181.997 138.72 182.622 137.127C182.797 136.681 183.301 136.461 183.747 136.636C184.194 136.811 184.414 137.315 184.238 137.761C183.686 139.169 183.383 140.702 183.383 142.308C183.383 142.857 183.418 143.396 183.487 143.926Z"
            fill="#4EB800" />
        <path
            d="M95.6712 132.971C93.6803 131.684 92.3634 129.916 91.7656 128.115C94.4478 124.111 98.5029 120.863 103.484 119.077V122.707C99.6811 125.223 96.9257 128.883 95.6712 132.971Z"
            fill="#F67AE2" />
        <path fill-rule="evenodd" clip-rule="evenodd"
            d="M115.387 101.221C122.138 80.12 126.825 67.4803 137.398 42.7816C138.648 39.8614 137.294 36.4806 134.374 35.2305C131.454 33.9804 128.073 35.3343 126.823 38.2545C116.121 63.2551 111.302 76.2362 104.431 97.7153C103.463 100.741 105.131 103.978 108.156 104.946C111.182 105.914 114.419 104.246 115.387 101.221Z"
            fill="#B6C2FA" />
        <path
            d="M119.282 113.276C121.101 120.064 115.362 127.5 106.465 129.884C97.5678 132.268 88.8807 128.697 87.0619 121.909C85.243 115.121 90.9812 107.686 99.8785 105.302C108.776 102.918 117.463 106.488 119.282 113.276Z"
            fill="#B6C2FA" />
        <path
            d="M91.6758 111.284C92.0097 110.793 92.1194 110.173 91.9817 109.594L91.445 107.34C91.1475 106.091 89.835 105.377 88.6053 105.748C80.1572 108.297 73.6145 108.019 64.8874 106.145C62.4939 105.631 60.2403 107.544 60.4517 109.983L60.8548 114.634C60.9401 115.618 60.8379 116.61 60.5534 117.557C59.0424 122.586 62.2696 127.683 67.4672 126.936C74.5492 125.919 84.1748 122.321 91.6758 111.284Z"
            fill="#F9B4EE" />
        <path
            d="M116.672 102.006C117.764 107.225 111.343 112.985 102.331 114.871C93.319 116.756 85.128 114.054 84.0359 108.836C82.9439 103.617 89.3643 97.8575 98.3765 95.9716C107.389 94.0858 115.58 96.7877 116.672 102.006Z"
            fill="#FBC8F1" />
        <path
            d="M106.072 98.6803C102.332 100.634 98.9221 105.479 100.584 109.281C101.566 111.528 106.1 113.765 110.836 111.528C108.492 113.007 105.58 114.19 102.332 114.87C93.3201 116.756 85.1291 114.054 84.037 108.835C82.945 103.616 89.3655 97.857 98.3776 95.9712L106.072 98.6803Z"
            fill="#F9B4EE" />
        <path
            d="M129.922 71.3437C129.922 91.7235 113.401 108.245 93.021 108.245C72.6412 108.245 56.1201 91.7235 56.1201 71.3437C56.1201 50.9639 72.6412 34.4429 93.021 34.4429C113.401 34.4429 129.922 50.9639 129.922 71.3437Z"
            fill="#FBC8F1" />
        <path
            d="M121.01 95.3922C114.243 103.261 104.214 108.245 93.021 108.245C72.6412 108.245 56.1201 91.7235 56.1201 71.3437C56.1201 50.9639 72.6412 34.4429 93.021 34.4429C104.214 34.4429 114.243 39.4262 121.01 47.2953C116.082 41.8068 109.466 38.4478 102.193 38.4478C86.9617 38.4478 74.6146 53.1758 74.6146 71.3437C74.6146 89.5116 86.9617 104.24 102.193 104.24C109.466 104.24 116.082 100.881 121.01 95.3922Z"
            fill="#F9B4EE" />
        <path
            d="M98.4141 107.853C101.285 107.071 104.096 105.913 106.783 104.362C114.106 100.133 119.359 93.6452 122.205 86.1997C122.788 86.5199 123.309 86.9268 123.753 87.423C123.77 87.4418 123.786 87.4607 123.803 87.4796C121.538 93.1327 117.942 98.2423 113.14 102.283C108.782 105.123 103.786 107.066 98.4141 107.853Z"
            fill="#F9B4EE" />
        <path
            d="M127.856 59.7715C133.778 75.2806 126.157 92.5955 110.836 98.4455C95.5139 104.296 78.2928 96.4653 72.3712 80.9562C66.4497 65.4471 74.0702 48.1322 89.392 42.2822C104.714 36.4322 121.935 44.2624 127.856 59.7715Z"
            fill="#F8969B" />
        <path
            d="M82.5753 94.4635C78.116 91.1488 74.5079 86.5522 72.3711 80.9557C66.4928 65.5599 73.9595 48.3844 89.0575 42.4116C80.4555 47.9803 74.6152 58.8483 74.6152 71.3434C74.6152 80.3559 77.6537 88.5219 82.5753 94.4635Z"
            fill="#EE7E84" />
        <path
            d="M113.649 61.5201C114.816 62.6867 114.928 64.8473 113.665 66.1108C112.401 67.3744 110.24 67.2623 109.074 66.0957C107.907 64.9292 107.087 59.724 107.182 59.6287C107.278 59.5334 112.483 60.3535 113.649 61.5201Z"
            fill="#CF5C5C" />
        <path fill-rule="evenodd" clip-rule="evenodd"
            d="M113.216 58.2547C114.159 57.6094 115.518 56.9033 117.207 56.6245C119.32 56.2759 120.957 56.5736 122.05 56.9415C122.599 57.1262 123.013 57.3296 123.282 57.4809C123.417 57.5564 123.515 57.6187 123.574 57.6588C123.604 57.6787 123.625 57.6931 123.635 57.7008L123.643 57.7067C124.117 58.0679 124.795 57.9792 125.16 57.5069C125.526 57.0326 125.439 56.351 124.964 55.9846L124.301 56.8434C124.964 55.9846 124.964 55.9843 124.964 55.9839L124.963 55.9832L124.961 55.9816L124.956 55.9778L124.943 55.9681C124.933 55.9607 124.92 55.9514 124.905 55.9404C124.874 55.9183 124.833 55.8894 124.781 55.8548C124.678 55.7856 124.532 55.6936 124.346 55.5887C123.973 55.3792 123.435 55.1174 122.743 54.8845C121.354 54.4171 119.357 54.07 116.854 54.4831C114.77 54.8269 113.117 55.6925 111.99 56.4634C111.425 56.8499 110.986 57.2169 110.685 57.4914C110.534 57.6288 110.417 57.7436 110.335 57.8269C110.294 57.8685 110.262 57.9024 110.239 57.9273L110.21 57.9578L110.201 57.9678L110.198 57.9714L110.197 57.9729C110.197 57.9732 110.196 57.9741 110.991 58.6854L110.196 57.9741C109.796 58.421 109.835 59.107 110.282 59.5064C110.728 59.9056 111.414 59.8674 111.813 59.4213L111.812 59.4223L111.823 59.4105C111.835 59.3981 111.855 59.3772 111.883 59.3487C111.939 59.2917 112.027 59.2047 112.147 59.0961C112.386 58.8784 112.746 58.5762 113.216 58.2547Z"
            fill="#CF5C5C" />
        <path fill-rule="evenodd" clip-rule="evenodd"
            d="M100.945 58.076C100.011 57.1746 98.6278 56.1141 96.8097 55.438C93.1813 54.0888 89.8718 54.9036 87.6827 56.244C87.1106 56.5943 86.3629 56.4146 86.0126 55.8425C85.6623 55.2704 85.8421 54.5227 86.4142 54.1724C89.134 52.507 93.2206 51.5117 97.6564 53.1612C99.8705 53.9845 101.53 55.2645 102.632 56.3286C103.185 56.8623 103.603 57.3474 103.887 57.7043C104.029 57.8829 104.138 58.0302 104.213 58.1361C104.251 58.1891 104.28 58.2319 104.302 58.2631L104.327 58.3013L104.335 58.3137L104.338 58.3182L104.34 58.32C104.34 58.3204 104.34 58.3215 103.336 58.9705L104.34 58.3215C104.704 58.885 104.543 59.6368 103.979 60.0007C103.417 60.3641 102.667 60.2035 102.302 59.6425C102.302 59.6419 102.301 59.6414 102.301 59.6409L102.291 59.6257C102.28 59.6096 102.261 59.5826 102.235 59.5456C102.182 59.4717 102.099 59.3587 101.985 59.2156C101.758 58.9291 101.41 58.5251 100.945 58.076Z"
            fill="#CF5C5C" />
        <path
            d="M114.75 75.1494C115.113 73.2012 113.709 71.4908 111.779 71.0371C107.525 70.0364 103.493 68.3788 99.6182 65.3757C98.2356 64.3041 96.2192 64.5319 95.4197 66.0878C93.2164 70.3753 90.0019 78.5763 93.5764 84.8337C95.8187 88.7591 99.8566 91.3392 104.845 89.5499C111.532 87.1512 113.914 79.6254 114.75 75.1494Z"
            fill="#AF4B4B" />
        <path
            d="M93.8575 70.9519C95.8343 71.6833 97.9506 71.3027 99.5203 70.1259C99.9459 72.041 101.305 73.7074 103.282 74.4389C106.377 75.584 109.814 74.0033 110.959 70.9084C110.967 70.8861 110.975 70.8637 110.983 70.8414C107.022 69.8237 103.251 68.191 99.6196 65.3761C99.6079 65.367 99.5961 65.3581 99.5843 65.3492C99.4082 65.2463 99.2311 65.1423 99.0528 65.0372C99.0137 65.0141 98.9744 64.9918 98.9348 64.9703C97.6387 64.4076 96.0962 64.7746 95.4211 66.0882C94.77 67.3552 94.0307 68.9638 93.4043 70.763C93.5515 70.8315 93.7026 70.8945 93.8575 70.9519Z"
            fill="white" />
        <path
            d="M103.337 89.967C103.54 89.2403 103.649 88.4742 103.649 87.6827C103.649 83.0044 99.8565 79.2119 95.1781 79.2119C94.0702 79.2119 93.012 79.4246 92.042 79.8114C92.204 81.5467 92.6737 83.2524 93.5772 84.834C95.5889 88.3556 99.0458 90.7945 103.337 89.967Z"
            fill="#E95555" />
        <path fill-rule="evenodd" clip-rule="evenodd"
            d="M57.8022 82.2268C55.3972 79.3928 53.2788 76.8966 51.6065 74.8901C49.5729 72.4499 49.9024 68.8231 52.3426 66.7894C54.7828 64.7557 58.4096 65.0853 60.4433 67.5255C61.9698 69.3572 64.0241 71.7784 66.3939 74.5715C70.5149 79.4288 75.59 85.4106 80.5032 91.3721C88.2433 100.764 96.1677 110.798 100.21 117.497C101.852 120.216 100.977 123.752 98.2575 125.393C95.5378 127.034 92.0026 126.16 90.3613 123.44C86.8266 117.583 79.455 108.187 71.6262 98.6881C66.7136 92.7273 61.8517 86.9983 57.8022 82.2268Z"
            fill="#B6C2FA" />
        <path
            d="M77.5592 51.9195C93.474 56.8018 106.142 47.606 109.634 42.0157C108.462 41.2663 106.138 39.4898 100.747 38.6107C91.2564 37.0631 86.3759 38.5574 78.6674 40.3246C73.4328 41.5247 67.7849 38.641 66.9427 38.9429C65.9625 39.2943 69.5912 49.4752 77.5592 51.9195Z"
            fill="#70324E" />
        <path
            d="M88.2786 113.719C86.8275 116.303 86.3242 119.159 87.061 121.908C88.8799 128.696 97.567 132.266 106.464 129.882C108.565 129.32 110.489 128.475 112.179 127.425C104.875 129.629 96.477 127.379 94.0409 121.853C93.1416 119.813 92.7499 116.86 92.7499 116.86L88.2786 113.719Z"
            fill="#9CAEF7" />
        <path
            d="M131.317 137.095C131.317 136.556 130.879 136.119 130.34 136.119C129.801 136.119 129.363 136.556 129.363 137.095C129.363 141.336 128.513 144.045 127.21 146.751L126.931 147.331L127.353 147.816C130.11 150.984 132.66 154.564 134.955 158.31H137.237C134.853 154.309 132.171 150.448 129.243 147.017C130.503 144.261 131.317 141.364 131.317 137.095Z"
            fill="#F9B4EE" />
        <path
            d="M161.88 179.918H146.797L168.07 159.734C170.15 157.761 173.435 157.847 175.408 159.927C177.381 162.006 177.295 165.292 175.216 167.265L161.88 179.918Z"
            fill="#FFB100" />
        <path
            d="M166.19 125.325C163.701 124.752 161.846 122.523 161.846 119.86V101.696C161.855 98.6073 164.362 96.106 167.454 96.106C167.873 96.106 168.282 96.152 168.675 96.2393C167.239 96.6517 166.19 97.9742 166.19 99.542V125.255C166.19 125.278 166.19 125.302 166.19 125.325Z"
            fill="#70324E" />
        <path
            d="M167.454 116.448C169.66 116.448 171.449 118.237 171.449 120.443L171.449 159.032C171.449 161.239 169.66 163.028 167.454 163.028C165.247 163.028 163.458 161.239 163.458 159.032L163.458 120.443C163.458 118.237 165.247 116.448 167.454 116.448Z"
            fill="#FFB100" />
        <path
            d="M205.948 194.804H192.162L163.001 161.428C161.114 159.269 161.335 155.99 163.494 154.104C165.653 152.217 168.932 152.438 170.819 154.597L205.948 194.804Z"
            fill="#FFB100" />
        <path
            d="M181.296 120.449C181.296 114.132 186.417 109.01 192.735 109.01H220.402C226.719 109.01 231.841 114.132 231.841 120.449V173.058C231.841 179.375 226.719 184.496 220.402 184.496H192.735C186.417 184.496 181.296 179.375 181.296 173.057V120.449Z"
            fill="#BF6167" />
        <path
            d="M181.296 171.099V176.859C181.296 181.077 184.716 184.497 188.935 184.497H224.202C228.421 184.497 231.841 181.077 231.841 176.859V171.099C231.841 175.318 228.421 178.738 224.202 178.738H188.935C184.716 178.738 181.296 175.318 181.296 171.099Z"
            fill="#A65156" />
        <path
            d="M181.296 109.833C181.296 105.614 184.716 102.194 188.935 102.194H198.217V184.497H188.935C184.716 184.497 181.296 181.077 181.296 176.858V109.833Z"
            fill="#A65156" />
        <path
            d="M186.562 113.033C186.562 109.954 189.058 107.458 192.137 107.458H221.002C224.081 107.458 226.576 109.954 226.576 113.033V144.883C226.576 147.961 224.081 150.457 221.002 150.457H192.137C189.058 150.457 186.562 147.961 186.562 144.883V113.033Z"
            fill="#70324E" />
        <path
            d="M212.204 100.078C216.672 104.247 220.727 109.856 223.211 115.873C225.491 121.396 228.369 131.989 224.318 141.738L212.204 100.078Z"
            fill="#D9D9D9" />
        <path
            d="M225.955 92.7636C227.477 91.8042 229.46 92.2851 230.092 93.9694C232.873 101.374 230.462 114.913 225.177 121.022L208.483 108.547C210.089 105.929 219.337 96.9347 225.955 92.7636Z"
            fill="#A7DA53" />
        <path
            d="M212.198 99.9314C212.15 100.045 212.129 100.177 212.144 100.315C211.369 99.9216 210.526 99.7312 209.689 99.7895C209.256 99.8197 209.023 100.316 209.229 100.769C209.229 100.769 210.675 103.038 211.427 104.689C212.179 106.34 213.08 109.226 213.08 109.226C213.093 109.254 213.108 109.282 213.123 109.308C213.25 109.774 213.426 110.285 213.657 110.846C214.832 113.692 213.428 115.284 210.636 115.609L210.594 115.603C208.305 115.281 204.599 114.198 204.599 114.198C203.971 114.11 203.442 114.659 203.554 115.282C203.828 116.801 204.592 118.157 205.683 119.181C204.261 118.912 203.123 118.652 203.123 118.652C202.469 118.599 201.956 119.198 202.111 119.834C202.573 121.74 203.782 123.346 205.409 124.348C203.834 127.482 203.8 131.274 205.532 134.522L207.047 137.361C209.948 142.8 216.727 146.09 220.956 141.604C223.596 138.804 225.205 134.568 222.809 128.304C222.344 127.086 221.848 125.948 221.34 124.89C222.9 124.495 224.365 123.952 225.539 123.457C224.915 120.463 224.025 117.846 223.211 115.875C221.59 111.947 219.299 108.193 216.661 104.9C215.35 103.059 213.85 101.397 212.198 99.9314Z"
            fill="#D3E757" />
        <path
            d="M207.636 158.237C207.395 158.359 207.147 158.472 206.894 158.577C206.664 158.671 201.36 155.654 194.836 152.617C193.693 152.617 192.581 152.27 191.693 151.551C186.998 147.752 176.237 137.81 174.889 136.392L172.136 133.496C166.436 127.499 166.667 118.569 171.532 112.814C170.236 104.389 174.791 95.8572 183.02 92.4597C198.2 86.1925 215.587 93.4177 221.854 108.598L225.699 117.911C232.108 133.436 224.719 151.217 209.194 157.627L207.661 158.26L207.636 158.237Z"
            fill="#A7DA53" />
        <path
            d="M207.636 158.237C207.395 158.359 207.147 158.472 206.894 158.577C206.664 158.671 201.36 155.654 194.836 152.617C193.693 152.617 192.581 152.27 191.693 151.551C186.998 147.752 176.237 137.81 174.889 136.392L172.136 133.496C166.436 127.499 166.667 118.569 171.532 112.814C170.236 104.389 174.791 95.8572 183.02 92.4597C198.2 86.1925 215.587 93.4177 221.854 108.598L225.699 117.911C232.108 133.436 224.719 151.217 209.194 157.627L207.661 158.26L207.636 158.237Z"
            fill="#A7DA53" />
        <path
            d="M213.997 97.7752C218.465 101.944 222.52 107.553 225.004 113.57C227.284 119.093 230.162 129.686 226.111 139.434L213.997 97.7752Z"
            fill="#A7DA53" />
        <path
            d="M205.964 92.5347C212.851 95.4906 217.154 99.8866 222.576 108.675C222.576 108.675 227.593 118.189 226.082 119.166C224.572 120.143 221.098 117.439 219.643 115.045L205.964 92.5347Z"
            fill="#D3E757" />
        <path
            d="M208.888 110.662C208.888 110.662 205.676 111.89 203.412 112.356C201.148 112.823 197.294 113.049 197.294 113.049C196.672 113.177 196.358 113.872 196.674 114.421C198.189 117.059 201.28 118.46 204.344 117.829C207.407 117.198 209.679 114.693 210.008 111.675C210.077 111.047 209.509 110.534 208.888 110.662Z"
            fill="#D3E757" />
        <path
            d="M204.09 91.8032C205.012 92.1276 205.918 92.497 206.804 92.9099C208.197 93.875 209.515 94.9645 210.739 96.1726C210.921 97.6331 210.564 99.0644 209.698 100.105C209.42 100.44 208.884 100.338 208.64 99.9039C208.64 99.9039 207.498 97.1049 206.61 95.5229C205.733 93.9616 204.131 91.8577 204.09 91.8032Z"
            fill="#D3E757" />
        <path
            d="M209.222 114.565C209.222 114.565 205.982 116.029 203.674 116.649C201.366 117.269 197.401 117.739 197.401 117.739C196.768 117.91 196.486 118.646 196.845 119.193C198.571 121.823 201.848 123.079 204.971 122.24C208.094 121.402 210.286 118.677 210.44 115.542C210.472 114.889 209.855 114.394 209.222 114.565Z"
            fill="#D3E757" />
        <path
            d="M212.374 98.7642C213.907 100.528 213.564 103.995 214.683 106.165L219.3 115.121C219.882 116.249 220.386 117.397 220.815 118.559C216.98 120.491 210.535 122.825 207.228 118.856C201.958 118.185 203.034 112.217 204.848 111.985C208.057 111.574 212.074 108.113 209.102 100.792C206.21 95.1828 210.827 98.8491 212.374 98.7642Z"
            fill="#D3E757" />
        <path
            d="M213.637 107.617C211.123 102.259 213.082 99.016 217.104 102.161C222.297 106.22 224.537 112.877 224.729 113.403C225.691 116.03 224.914 118.009 223.183 117.68C219.434 116.966 215.904 112.448 213.637 107.617Z"
            fill="white" />
        <path
            d="M223.959 111.422C224.31 112.269 224.834 113.338 224.931 113.626C225.88 116.258 225.813 118.771 224.055 118.443C223.943 118.422 223.16 117.674 223.049 117.646C222.687 115.959 222.918 114.315 223.388 112.872C223.559 112.346 223.658 111.823 223.959 111.422Z"
            fill="#D3E757" />
        <path
            d="M218.779 111.309C219.252 112.115 219.137 113.061 218.522 113.422C217.907 113.784 217.024 113.424 216.551 112.618C216.077 111.812 216.192 110.866 216.807 110.505C217.422 110.143 218.305 110.503 218.779 111.309Z"
            fill="#8A4765" />
        <path fill-rule="evenodd" clip-rule="evenodd"
            d="M206.72 164.626C206.281 165.723 206.281 165.723 206.282 165.724L206.285 165.725L206.29 165.727L206.307 165.734C206.321 165.739 206.34 165.746 206.364 165.755C206.412 165.773 206.479 165.798 206.565 165.828C206.735 165.888 206.979 165.969 207.283 166.058C207.889 166.236 208.743 166.449 209.745 166.591C211.724 166.872 214.405 166.895 216.877 165.688C217.464 165.402 217.707 164.695 217.421 164.108C217.135 163.522 216.428 163.278 215.841 163.564C213.97 164.477 211.831 164.5 210.077 164.251C209.211 164.128 208.47 163.944 207.948 163.79C207.687 163.714 207.483 163.646 207.347 163.598C207.28 163.574 207.229 163.556 207.197 163.544L207.163 163.531L207.157 163.529C207.157 163.528 207.157 163.528 207.157 163.529M207.158 163.529C207.158 163.529 207.158 163.529 207.158 163.529L207.157 163.529ZM207.158 163.529C207.158 163.529 207.158 163.529 207.158 163.529C206.553 163.287 205.865 163.582 205.623 164.187C205.38 164.793 205.676 165.481 206.282 165.724L206.72 164.626"
            fill="#A65156" />
        <path fill-rule="evenodd" clip-rule="evenodd"
            d="M206.726 164.626C207.165 165.723 207.165 165.723 207.165 165.724L207.162 165.725L207.156 165.727L207.139 165.734C207.125 165.739 207.106 165.746 207.082 165.755C207.035 165.773 206.967 165.798 206.882 165.828C206.711 165.888 206.468 165.969 206.164 166.058C205.558 166.236 204.703 166.449 203.702 166.591C201.722 166.872 199.041 166.895 196.569 165.688C195.982 165.402 195.739 164.695 196.025 164.108C196.311 163.522 197.019 163.278 197.605 163.564C199.477 164.477 201.615 164.5 203.37 164.251C204.235 164.128 204.976 163.944 205.498 163.79C205.759 163.714 205.963 163.646 206.099 163.598C206.167 163.574 206.217 163.556 206.249 163.544L206.283 163.531L206.289 163.529C206.289 163.528 206.289 163.528 206.289 163.529M206.288 163.529C206.288 163.529 206.288 163.529 206.288 163.529L206.289 163.529ZM206.288 163.529C206.288 163.529 206.288 163.529 206.288 163.529C206.894 163.287 207.581 163.582 207.823 164.187C208.066 164.793 207.771 165.481 207.165 165.724L206.726 164.626"
            fill="#A65156" />
        <path
            d="M222.603 137.357C223.067 136.719 224.718 134.319 225.323 133.325C225.683 132.756 226.046 133.058 226.181 133.257C226.351 133.508 226.954 135.48 225.285 137.346C223.615 139.212 222.139 137.995 222.603 137.357Z"
            fill="#D3E757" />
        <path
            d="M192.135 150.456H184.987V157.902H195.686L206.805 158.804L217.678 157.902H229.164V147.023H226.148C225.309 149.039 223.32 150.456 221 150.456H192.135Z"
            fill="#BF6167" />
        <path
            d="M198.216 150.457V158.804H184.987V150.457H187.566C187.566 150.457 189.815 150.457 192.135 150.457H198.216Z"
            fill="#A65156" />
        <path fill-rule="evenodd" clip-rule="evenodd"
            d="M205.545 179.046L205.545 160.791C205.545 160.138 206.074 159.609 206.727 159.609C207.379 159.609 207.908 160.138 207.908 160.791L207.908 179.046C207.908 179.698 207.379 180.227 206.727 180.227C206.074 180.227 205.545 179.698 205.545 179.046Z"
            fill="#A65156" />
        <path
            d="M209.148 149.425C210.55 150.423 211.035 152.529 209.674 153.581C204.339 157.703 196.157 157.67 190.194 154.234C182.918 150.041 188.874 135.264 188.855 134.83C188.855 134.83 196.475 140.406 201.413 143.684C204.2 145.534 206.879 147.811 209.148 149.425Z"
            fill="#A7DA53" />
        <path
            d="M209.863 143.444C209.863 150.504 204.14 156.227 197.081 156.227C190.021 156.227 184.298 150.504 184.298 143.444C184.298 136.384 190.021 130.661 197.081 130.661C204.14 130.661 209.863 136.384 209.863 143.444Z"
            fill="#A7DA53" />
        <path
            d="M182.306 131.476C182.721 131.913 184.15 133.268 186.011 134.99C186.54 135.479 186.784 136.198 186.722 136.916C186.685 137.336 186.664 137.762 186.664 138.186C186.664 139.374 186.794 140.531 187.04 141.645C187.136 142.081 187.251 142.511 187.382 142.932C188.367 146.099 190.311 148.842 192.874 150.823C195.571 152.908 198.954 154.148 202.626 154.148C205.479 154.148 208.157 153.399 210.475 152.088C210.43 152.657 210.179 153.192 209.674 153.582C205.259 156.994 198.892 157.559 193.448 155.704C192.417 155.398 191.439 154.966 190.535 154.426C190.421 154.363 190.307 154.299 190.195 154.235C189.747 153.977 189.35 153.679 188.998 153.347C186.568 151.361 184.883 148.498 184.425 145.241C180.086 141.341 175.716 137.263 174.89 136.393L172.136 133.497C166.436 127.499 166.667 118.57 171.532 112.815C170.236 104.39 174.791 95.8578 183.02 92.4603C188.446 90.2203 194.153 89.7039 199.534 90.6583L199.489 90.6583C196.15 90.655 192.33 90.6512 189.057 92.0027C181.785 95.0049 178.727 100.385 179.873 107.83C174.706 112.916 174.401 123.617 179.873 128.917L182.306 131.476Z"
            fill="#87C71E" />
        <path
            d="M202.935 131.506C199.862 127.45 199.952 121.822 203.154 117.868L204.175 116.607C206.345 113.926 209.988 112.909 212.723 115.01C214.671 116.506 216.934 118.7 219.01 121.839C222.794 127.563 221.85 132.177 219.556 135.572C215.972 140.876 208.457 138.794 204.591 133.691L202.935 131.506Z"
            fill="#D3E757" />
        <path
            d="M205.628 130.914C202.725 127.246 202.665 122.081 205.481 118.346C207.149 116.134 210.114 115.312 212.335 116.968C214.765 118.778 217.659 121.712 219.102 126.05C220.601 130.559 218.816 133.668 216.624 135.661C214.058 137.992 210.264 136.773 208.113 134.055L205.628 130.914Z"
            fill="white" />
        <path
            d="M203.329 128.287C206.886 124.741 208.739 118.817 208.261 113.893C206.837 114.115 205.466 114.929 204.474 116.172C201.534 119.857 200.964 124.306 203.329 128.287Z"
            fill="#D3E757" />
        <path
            d="M219.647 129.673C219.517 132.292 218.172 134.254 216.625 135.661C214.39 137.692 210.21 137.663 208.009 135.661C209.964 132.854 215.985 130.13 219.647 129.673Z"
            fill="#D3E757" />
        <path
            d="M210.254 127.154C210.37 128.081 209.712 128.927 208.784 129.042C207.857 129.158 207.011 128.5 206.896 127.572C206.78 126.645 207.438 125.799 208.366 125.684C209.293 125.568 210.139 126.226 210.254 127.154Z"
            fill="#8A4765" />
        <path
            d="M218.305 121.077C217.56 120.033 217.803 118.582 218.847 117.837C220.384 116.741 222.539 117.31 223.335 119.021L225.464 123.596C225.901 124.534 225.626 125.65 224.802 126.277C223.813 127.03 222.397 126.816 221.675 125.804L218.305 121.077Z"
            fill="#F1A941" />
        <path
            d="M220.352 121.603C219.472 120.357 219.77 118.633 221.017 117.754L221.671 117.293C221.71 117.265 221.765 117.279 221.787 117.323L224.727 123.358C224.999 123.916 224.835 124.589 224.336 124.959C223.754 125.391 222.931 125.259 222.513 124.667L220.352 121.603Z"
            fill="#D3882F" />
        <path
            d="M217.391 116.926C219.565 113.37 224.143 116.929 223.524 117.279C220.476 119.001 219.565 122.823 219.565 122.823C216.86 119.83 216.88 117.761 217.391 116.926Z"
            fill="#FECF3A" />
        <path
            d="M224.678 123.259L224.727 123.359C224.999 123.917 224.835 124.59 224.336 124.961C223.754 125.392 222.93 125.26 222.513 124.668L221.282 122.923C221.614 122.571 222.065 122.328 222.583 122.264C223.442 122.157 224.247 122.571 224.678 123.259Z"
            fill="#FFBDE5" />
        <path
            d="M209.973 150.457H211.943C211.714 149.882 211.355 149.356 210.928 148.874C210.289 148.152 209.453 147.478 208.535 146.836C207.613 146.191 206.575 145.553 205.517 144.915C205.333 144.805 205.149 144.694 204.964 144.583C204.078 144.05 203.185 143.513 202.317 142.955L202.315 142.953L197.535 139.911C197.13 139.654 196.593 139.773 196.336 140.178C196.079 140.582 196.198 141.119 196.602 141.376L201.379 144.416C202.271 144.99 203.19 145.542 204.076 146.075C204.259 146.185 204.44 146.294 204.62 146.402C205.678 147.04 206.671 147.651 207.539 148.258C208.41 148.868 209.12 149.451 209.628 150.025C209.759 150.173 209.874 150.317 209.973 150.457Z"
            fill="#87C71E" />
        <path fill-rule="evenodd" clip-rule="evenodd"
            d="M206.702 172.294C206.263 173.391 206.264 173.391 206.264 173.392L206.267 173.393L206.273 173.395L206.29 173.402C206.304 173.407 206.323 173.414 206.346 173.423C206.394 173.441 206.462 173.466 206.547 173.496C206.718 173.556 206.961 173.637 207.265 173.726C207.871 173.904 208.725 174.117 209.727 174.259C211.706 174.54 214.387 174.562 216.86 173.356C217.446 173.07 217.69 172.363 217.404 171.776C217.118 171.19 216.41 170.946 215.824 171.232C213.952 172.145 211.813 172.168 210.059 171.919C209.194 171.796 208.453 171.612 207.93 171.458C207.67 171.382 207.466 171.314 207.33 171.266C207.262 171.242 207.211 171.224 207.179 171.212L207.146 171.199L207.14 171.197C207.14 171.196 207.139 171.196 207.14 171.197M207.141 171.197C207.141 171.197 207.141 171.197 207.141 171.197L207.14 171.197ZM207.141 171.197C207.141 171.197 207.141 171.197 207.141 171.197C206.535 170.955 205.848 171.25 205.605 171.855C205.363 172.461 205.658 173.149 206.264 173.392L206.702 172.294"
            fill="#A65156" />
        <path fill-rule="evenodd" clip-rule="evenodd"
            d="M206.709 172.294C207.148 173.391 207.147 173.391 207.147 173.392L207.144 173.393L207.139 173.395L207.121 173.402C207.108 173.407 207.089 173.414 207.065 173.423C207.017 173.441 206.95 173.466 206.864 173.496C206.693 173.556 206.45 173.637 206.146 173.726C205.54 173.904 204.686 174.117 203.684 174.259C201.705 174.54 199.024 174.562 196.551 173.356C195.965 173.07 195.721 172.363 196.007 171.776C196.294 171.19 197.001 170.946 197.588 171.232C199.459 172.145 201.598 172.168 203.352 171.919C204.217 171.796 204.958 171.612 205.481 171.458C205.741 171.382 205.945 171.314 206.081 171.266C206.149 171.242 206.2 171.224 206.232 171.212L206.265 171.199L206.271 171.197C206.272 171.196 206.272 171.196 206.271 171.197M206.27 171.197C206.27 171.197 206.27 171.197 206.27 171.197L206.271 171.197ZM206.27 171.197C206.27 171.197 206.27 171.197 206.27 171.197C206.876 170.955 207.563 171.25 207.806 171.855C208.048 172.461 207.753 173.149 207.147 173.392L206.709 172.294"
            fill="#A65156" />
        <path fill-rule="evenodd" clip-rule="evenodd"
            d="M148.973 212.356C148.224 213.654 146.565 214.099 145.267 213.35L130.695 204.944C129.397 204.196 128.952 202.537 129.701 201.239C130.449 199.941 132.108 199.496 133.406 200.244L147.978 208.65C149.276 209.399 149.721 211.058 148.973 212.356Z"
            fill="#70324E" />
        <path
            d="M133.413 207.891C134.62 210.548 137.753 211.724 140.41 210.517L152.012 205.247C154.67 204.04 155.846 200.908 154.638 198.25C153.431 195.593 150.299 194.417 147.641 195.624L136.039 200.893C133.382 202.1 132.206 205.233 133.413 207.891Z"
            fill="#F67AE2" />
        <path
            d="M66.0108 74.1258C63.7928 71.5115 61.8687 69.2421 60.4199 67.5036C58.3857 65.0628 54.7579 64.7331 52.3171 66.7674C49.8763 68.8016 49.5466 72.4293 51.5808 74.8702C53.0913 76.6826 54.9658 78.8945 57.0866 81.3939L66.0108 74.1258Z"
            fill="#F8969B" />
        <path
            d="M133.744 51.4365L123.341 46.4981C124.455 43.8435 125.559 41.2121 126.824 38.2552C128.075 35.335 131.455 33.9811 134.376 35.2312C137.296 36.4814 138.65 39.8621 137.4 42.7823C136.066 45.8976 134.906 48.6637 133.744 51.4365Z"
            fill="#F8969B" />
        <path
            d="M122.646 36.3094C123.498 43.0035 129.616 47.7393 136.31 46.8872C143.004 46.0351 147.74 39.9177 146.888 33.2237C146.036 26.5296 139.918 21.7938 133.224 22.6459C126.53 23.498 121.794 29.6154 122.646 36.3094Z"
            fill="#F8969B" />
        <path fill-rule="evenodd" clip-rule="evenodd"
            d="M130.895 29.7588C130.36 29.83 129.985 30.3212 130.056 30.8559C130.565 34.6794 132.955 37.379 135.804 38.8527C138.624 40.3113 142.002 40.6254 144.627 39.5671C145.128 39.3655 145.37 38.7964 145.168 38.2961C144.966 37.7958 144.397 37.5537 143.897 37.7554C141.893 38.5631 139.113 38.3652 136.701 37.1177C134.319 35.8853 132.404 33.6848 131.992 30.5979C131.921 30.0632 131.43 29.6875 130.895 29.7588Z"
            fill="#ED777E" />
        <path fill-rule="evenodd" clip-rule="evenodd"
            d="M137.179 30.7855C136.994 32.2982 136.442 34.2522 134.979 36.0715C134.641 36.4919 134.707 37.1067 135.128 37.4447C135.548 37.7828 136.163 37.7162 136.501 37.2959C138.25 35.121 138.902 32.7928 139.118 31.0218C139.226 30.1357 139.226 29.3823 139.198 28.8453C139.184 28.5765 139.163 28.3607 139.145 28.2082C139.136 28.132 139.127 28.0715 139.121 28.028C139.118 28.0062 139.115 27.9887 139.113 27.9756L139.11 27.9592L139.109 27.9536L139.109 27.9514L139.109 27.9504C139.109 27.95 139.108 27.9496 138.197 28.1103L139.108 27.9496C139.015 27.4184 138.508 27.0637 137.977 27.1574C137.447 27.2509 137.092 27.7559 137.184 28.2861C137.184 28.2865 137.184 28.2869 137.185 28.2874C137.185 28.2875 137.185 28.2876 137.185 28.2877L137.185 28.2875L137.185 28.2893L137.189 28.3151C137.193 28.3405 137.198 28.382 137.205 28.4386C137.219 28.5517 137.236 28.7241 137.247 28.9461C137.27 29.3909 137.271 30.0297 137.179 30.7855Z"
            fill="#ED777E" />
        <path fill-rule="evenodd" clip-rule="evenodd"
            d="M139.484 39.3532C139.132 38.9443 139.178 38.3277 139.587 37.9758C141.059 36.7088 141.777 35.0695 142.125 33.7053C142.298 33.0265 142.375 32.43 142.409 32.0065C142.425 31.7953 142.431 31.6288 142.433 31.5186C142.434 31.4635 142.434 31.4227 142.434 31.3975L142.433 31.3717L142.433 31.3707C142.433 31.3704 142.433 31.3702 142.433 31.37M142.433 31.37C142.415 30.8312 142.836 30.3791 143.375 30.36C143.914 30.3409 144.367 30.7624 144.386 31.3015L143.41 31.3361C144.386 31.3015 144.386 31.3019 144.386 31.3023L144.386 31.3032L144.386 31.3053L144.386 31.3107L144.386 31.3264C144.387 31.3391 144.387 31.3561 144.387 31.3772C144.388 31.4193 144.388 31.478 144.386 31.5516C144.384 31.6988 144.376 31.9064 144.356 32.1621C144.315 32.6725 144.223 33.3811 144.018 34.1874C143.609 35.7933 142.734 37.844 140.861 39.4562C140.452 39.8081 139.836 39.762 139.484 39.3532"
            fill="#ED777E" />
        <path
            d="M120.188 33.4214C120.446 36.2849 122.977 38.3968 125.841 38.1384C128.704 37.88 130.816 35.3492 130.558 32.4857C130.299 29.6221 127.768 27.5102 124.905 27.7686C122.041 28.027 119.93 30.5579 120.188 33.4214Z"
            fill="#F8969B" />
        <path
            d="M124.748 27.7723C124.803 27.7763 124.86 27.7758 124.917 27.7707C127.772 27.513 130.296 29.6189 130.553 32.4742C130.75 34.6587 129.564 36.6515 127.713 37.5815C127.2 37.8393 126.993 38.4643 127.25 38.9775C127.508 39.4907 128.133 39.6977 128.647 39.4399C131.235 38.1395 132.901 35.3509 132.625 32.2873C132.319 28.896 129.731 26.2596 126.512 25.7563C125.852 26.3626 125.26 27.0391 124.748 27.7723Z"
            fill="#ED777E" />
        <path fill-rule="evenodd" clip-rule="evenodd"
            d="M164.024 170.559C154.528 177.771 142.825 176.197 135.439 171.859L137.546 168.272C143.871 171.988 153.685 173.189 161.508 167.247L164.024 170.559Z"
            fill="#BFB6F2" />
        <path fill-rule="evenodd" clip-rule="evenodd"
            d="M145.153 166.393C142.547 166.032 139.684 165.058 136.405 162.898L138.693 159.424C141.491 161.267 143.772 162.003 145.723 162.273C147.558 162.526 149.167 162.386 150.911 162.234C151.071 162.22 151.231 162.206 151.393 162.192C153.262 162.032 155.384 161.891 157.619 162.607C159.901 163.338 162.069 164.876 164.327 167.613L161.118 170.26C159.212 167.949 157.67 166.991 156.35 166.568C154.984 166.13 153.611 166.177 151.747 166.336C151.583 166.35 151.415 166.365 151.243 166.38C149.536 166.532 147.476 166.714 145.153 166.393Z"
            fill="#9CAEF7" />
        <path fill-rule="evenodd" clip-rule="evenodd"
            d="M150.966 172.145C147.656 173.705 144.82 176.53 143.106 181.1L139.212 179.639C141.29 174.098 144.863 170.423 149.192 168.382C153.479 166.362 158.362 166.009 163.036 166.808L162.335 170.908C158.302 170.218 154.318 170.565 150.966 172.145Z"
            fill="#9CAEF7" />
        <path
            d="M167.455 147.457C170.552 147.457 173.062 149.968 173.062 153.065L173.062 174.434C173.062 177.531 170.552 180.042 167.455 180.042C164.357 180.042 161.847 177.531 161.847 174.434L161.847 153.065C161.847 149.968 164.357 147.457 167.455 147.457Z"
            fill="#8A4765" />
        <path
            d="M168.675 147.59C168.282 147.503 167.873 147.457 167.454 147.457C164.356 147.457 161.846 149.968 161.846 153.065V174.434C161.846 177.531 164.356 180.042 167.454 180.042C167.873 180.042 168.282 179.996 168.675 179.909C167.24 179.496 166.19 178.174 166.19 176.606V150.893C166.19 149.325 167.24 148.003 168.675 147.59Z"
            fill="#70324E" />
        <path
            d="M59.6521 56.4202C63.9446 61.627 63.2035 69.3277 57.9967 73.6202C52.7899 77.9127 45.0892 77.1716 40.7967 71.9648C36.5042 66.758 37.2453 59.0573 42.4521 54.7648C47.6589 50.4723 55.3596 51.2134 59.6521 56.4202Z"
            fill="#F8969B" />
        <path fill-rule="evenodd" clip-rule="evenodd"
            d="M44.5771 64.0018C44.3176 64.4747 44.4906 65.0684 44.9635 65.3279C46.2992 66.0609 47.6204 67.06 48.6819 67.9797C49.7621 68.9155 50.4972 69.7027 50.7012 69.9882C51.0147 70.4271 51.6247 70.5288 52.0636 70.2153C52.5026 69.9018 52.6042 69.2918 52.2907 68.8528C51.9472 68.3718 51.0671 67.4617 49.961 66.5033C48.8361 65.5287 47.3998 64.4367 45.9032 63.6154C45.4304 63.3559 44.8366 63.5289 44.5771 64.0018Z"
            fill="#ED777E" />
        <path fill-rule="evenodd" clip-rule="evenodd"
            d="M47.6937 57.7669C47.4399 58.2429 47.6201 58.8345 48.0961 59.0882C50.5855 60.4154 52.087 61.8303 52.9568 62.8829C53.3926 63.4104 53.6724 63.8501 53.8391 64.1468C53.9225 64.2953 53.9777 64.4081 54.01 64.4783C54.0262 64.5135 54.0367 64.538 54.0421 64.551L54.0463 64.5613C54.2371 65.0623 54.7968 65.3163 55.3 65.1287C55.8055 64.9404 56.0625 64.3779 55.8741 63.8725L54.9589 64.2135C55.8741 63.8725 55.8739 63.8719 55.8737 63.8714L55.8733 63.8703L55.8724 63.8678L55.8702 63.8619L55.8643 63.8467C55.8597 63.835 55.8537 63.8203 55.8464 63.8026C55.8317 63.7672 55.8114 63.72 55.7846 63.6619C55.7312 63.5457 55.6522 63.3859 55.5421 63.1899C55.3217 62.7977 54.9768 62.2611 54.4627 61.6387C53.4323 60.3917 51.7321 58.813 49.015 57.3645C48.539 57.1107 47.9475 57.2909 47.6937 57.7669Z"
            fill="#ED777E" />
        <path fill-rule="evenodd" clip-rule="evenodd"
            d="M54.7845 61.0536C55.3187 60.979 55.8122 61.3517 55.8868 61.8859C56.411 65.6424 54.9082 68.7401 52.6285 70.7619C50.3767 72.759 47.3073 73.7581 44.5919 73.2822C44.0606 73.1891 43.7054 72.6829 43.7985 72.1516C43.8916 71.6203 44.3978 71.2651 44.9291 71.3582C46.9736 71.7165 49.4577 70.9631 51.3324 69.3005C53.1792 67.6626 54.376 65.1936 53.9521 62.1559C53.8776 61.6216 54.2502 61.1281 54.7845 61.0536Z"
            fill="#ED777E" />
        <path
            d="M63.6039 57.5122C63.5843 60.4124 61.2173 62.7476 58.3171 62.728C55.4169 62.7084 53.0817 60.3415 53.1013 57.4413C53.1208 54.541 55.4878 52.2058 58.388 52.2254C61.2882 52.245 63.6235 54.612 63.6039 57.5122Z"
            fill="#F8969B" />
        <path
            d="M55.4414 53.1402C54.0577 54.0711 53.1428 55.6473 53.1307 57.4407C53.1112 60.3246 55.4333 62.6782 58.3171 62.6977C58.8914 62.7016 59.3538 63.1703 59.35 63.7446C59.3461 64.3189 58.8774 64.7813 58.3031 64.7775C54.2706 64.7502 51.0237 61.4592 51.051 57.4267C51.0644 55.4384 51.8713 53.641 53.1694 52.333C53.9476 52.5256 54.7091 52.7951 55.4414 53.1402Z"
            fill="#ED777E" />
        <path
            d="M53.1758 76.7563L53.9708 76.1088C56.6091 73.9601 60.4794 74.3163 62.6676 76.9218C73.33 89.6178 89.8403 109.573 94.4526 116.848C95.5116 118.519 95.016 120.731 93.3456 121.79C92.0095 122.637 90.3265 122.49 89.1644 121.542C85.3192 115.666 78.6566 107.218 71.6253 98.6867C66.7127 92.726 57.2252 81.5278 53.1758 76.7563Z"
            fill="#9CAEF7" />
        <path
            d="M62.6307 76.8788C60.4362 74.3129 56.5943 73.9726 53.9708 76.1092L53.1758 76.7567C54.193 77.9554 55.5535 79.5596 57.0984 81.3845L62.6307 76.8788Z"
            fill="#EE7E84" />
        <path
            d="M109.249 41.7644C106.823 40.8178 104.183 40.2983 101.422 40.2983C92.7077 40.2983 85.2022 45.4716 81.8086 52.9143C95.6983 55.1618 106.459 47.0984 109.633 42.0157C109.535 41.9527 109.428 41.8825 109.312 41.8061C109.292 41.7924 109.27 41.7785 109.249 41.7644Z"
            fill="#8A4765" />
    </g>
    <defs>
        <linearGradient id="paint0_linear_44_53926" x1="268" y1="200.697" x2="2" y2="200.697"
            gradientUnits="userSpaceOnUse">
            <stop offset="0.0153825" stop-color="#FF88DE" stop-opacity="0" />
            <stop offset="0.4062" stop-color="#FF88DE" />
            <stop offset="0.612552" stop-color="#FF88DE" />
            <stop offset="1" stop-color="#FF88DE" stop-opacity="0" />
        </linearGradient>
        <linearGradient id="paint1_linear_44_53926" x1="232.493" y1="229.126" x2="8.56317"
            y2="229.126" gradientUnits="userSpaceOnUse">
            <stop offset="0.641557" stop-color="#FF64BF" />
            <stop offset="0.980305" stop-color="#FF64BF" stop-opacity="0" />
        </linearGradient>
        <clipPath id="clip0_44_53926">
            <rect width="270" height="270" fill="white" transform="translate(0 0.691406)" />
        </clipPath>
    </defs>
</svg>