<svg width="270" height="271" viewBox="0 0 270 271" fill="none" xmlns="http://www.w3.org/2000/svg">
    <g clip-path="url(#clip0_44_53923)">
        <path opacity="0.2" fill-rule="evenodd" clip-rule="evenodd"
            d="M125.747 132.548C125.747 132.548 54.7069 127.72 64.5204 153.12C79.5872 192.116 89.442 200.379 115.485 194.584C123.182 199.551 133.504 202.59 144.85 202.59C168.655 202.59 187.953 189.213 187.953 172.712C187.953 156.21 168.655 142.833 144.85 142.833C139.876 142.833 135.1 143.417 130.655 144.491L125.747 132.548Z"
            fill="black" />
        <path
            d="M223.797 129.119C223.797 129.119 210.967 127.534 202.629 125.089C194.29 122.645 181.094 116.601 181.094 116.601C178.805 115.93 176.538 117.682 176.617 120.061C176.995 131.491 184.789 141.593 196.071 144.9C207.353 148.208 219.316 143.898 225.73 134.458C227.064 132.494 226.086 129.79 223.797 129.119Z"
            fill="#46DA00" />
        <path fill-rule="evenodd" clip-rule="evenodd"
            d="M161.575 199.874C159.605 203.463 155.098 204.776 151.509 202.806C148.087 200.928 145.569 198.86 143.862 197.2C143.008 196.369 142.353 195.636 141.884 195.072C141.65 194.789 141.461 194.548 141.317 194.358C141.245 194.262 141.184 194.179 141.134 194.11C141.109 194.075 141.087 194.044 141.067 194.016L141.04 193.977L141.028 193.959L141.022 193.951L141.019 193.947C141.018 193.945 141.016 193.943 147.119 189.733L141.016 193.943C138.691 190.572 139.539 185.955 142.909 183.63C146.249 181.326 150.813 182.138 153.158 185.433C153.176 185.456 153.22 185.513 153.291 185.598C153.453 185.794 153.755 186.137 154.202 186.572C155.096 187.443 156.557 188.662 158.644 189.808C162.233 191.778 163.545 196.285 161.575 199.874Z"
            fill="#F49000" />
        <path
            d="M53.9714 132.779C55.6448 123.538 62.682 116.813 75.7489 115.712L95.2822 114.066C104.798 113.264 113.758 118.646 117.521 127.423C122.931 140.043 121.709 149.816 119.61 163.359C118.043 173.471 117.319 178.088 106.465 180.229C95.6116 182.369 95.1808 182.425 83.8277 183.382C72.4746 184.339 64.9225 177.055 60.2916 167.364C55.6607 157.674 52.298 142.02 53.9714 132.779Z"
            fill="#95492B" />
        <path fill-rule="evenodd" clip-rule="evenodd"
            d="M54.7308 129.788C54.4102 130.751 54.1571 131.749 53.9707 132.779C53.6448 134.578 53.5099 136.622 53.5382 138.817C53.9712 139.216 54.5425 139.506 55.2662 139.65C57.7121 140.139 59.6739 137.772 60.1981 137.107C60.2425 137.051 60.2929 136.985 60.3492 136.912C60.958 136.123 62.2537 134.444 64.0111 133.722C66.0159 132.899 69.933 132.065 73.3697 132.001C84.4721 131.792 90.152 134.114 98.3717 137.475C100.125 138.192 101.994 138.956 104.056 139.753C106.383 140.652 107.97 139.151 108.869 136.824C109.461 135.293 106.426 132.393 104.59 131.665C103.862 131.376 103.066 131.047 102.217 130.695C99.4335 129.544 96.0756 128.156 92.6786 127.18C91.7912 126.925 90.8374 126.559 89.7848 126.156C86.5953 124.933 82.4995 123.363 76.6014 123.474C72.698 123.548 64.0887 123.925 60.5791 125.367C58.3976 126.263 56.2741 127.723 54.7308 129.788Z"
            fill="#883D29" />
        <path
            d="M51.5809 117.584C49.1834 123.708 45.6824 131.24 53.0986 135.596C52.7134 133.999 55.2801 129.585 67.8501 124.39C80.4201 119.195 96.2638 126.601 102.614 130.953L133.602 82.6638C125.428 77.1182 106.906 67.2255 94.6988 74.9461C79.4403 84.5968 57.5977 102.218 51.5809 117.584Z"
            fill="#CD7A2F" />
        <path fill-rule="evenodd" clip-rule="evenodd"
            d="M62.2207 130.141C60.3086 130.949 58.9586 132.893 58.441 133.563C57.9234 134.233 56.8494 136.593 54.3989 136.128C51.9484 135.663 50.3577 133.552 50.8227 131.102C51.7202 126.372 55.1275 123.332 58.7073 121.82C62.2026 120.344 70.8078 119.883 74.7103 119.771C82.553 119.547 87.2368 122.327 90.8229 123.319C95.269 124.549 99.6551 126.484 102.777 127.687C104.621 128.398 107.684 131.268 107.107 132.805C106.231 135.14 104.411 135.721 102.076 134.844C97.8715 133.266 93.5321 131.674 89.128 130.455C86.2985 129.673 77.3759 128.533 70.5418 128.729C67.106 128.827 64.2174 129.298 62.2207 130.141Z"
            fill="#BF6D21" />
        <path
            d="M63.9003 84.2168C60.732 86.7708 51.6295 94.7435 55.2525 109.852C62.0753 114.603 73.0626 126.021 83.1101 124.798C93.1576 123.575 102.367 107.949 101.659 99.5501C108.587 96.9926 110.813 90.3199 112.224 85.5016C115.421 86.642 119.501 82.9175 120.282 77.3976C122.932 58.6589 106.477 52.9966 100.598 53.4923C96.5487 53.8337 89.7198 56.7586 87.4657 58.2643C67.0501 59.1388 62.1512 76.8452 63.9003 84.2168Z"
            fill="#C1473A" />
        <path
            d="M90.0051 120.738C84.3539 127.618 72.9952 127.281 63.5309 121.09C54.0665 114.899 52.1417 102.59 57.7929 95.711C63.4442 88.8317 75.2806 89.2149 84.2305 96.567C93.1803 103.919 95.0513 114.596 90.0051 120.738Z"
            fill="#A54238" />
        <path fill-rule="evenodd" clip-rule="evenodd"
            d="M87.8434 122.827C85.4046 124.689 82.3551 125.659 79.0362 125.799C74.5958 125.38 71.1234 123.74 68.4825 121.583C64.037 117.951 62.0668 112.947 61.7166 110.258C61.1078 105.583 62.5818 102.292 65.1347 100.393C67.6221 98.5428 70.9398 98.1618 73.7943 98.845C76.9233 99.594 79.6121 101.964 81.1768 104.594C82.7093 107.169 83.3931 110.433 81.7263 112.839C80.5623 114.518 79.1342 115.456 77.6352 115.736C76.1521 116.014 74.7328 115.624 73.6202 114.898C72.5173 114.178 71.6472 113.084 71.2955 111.848C70.9333 110.574 71.1333 109.157 72.1746 108C72.5916 107.536 73.3055 107.498 73.7691 107.915C74.2327 108.332 74.2705 109.046 73.8534 109.51C73.3873 110.028 73.2938 110.619 73.4675 111.23C73.6517 111.878 74.1469 112.545 74.8542 113.006C75.5518 113.462 76.3874 113.673 77.2196 113.517C78.0358 113.364 78.9831 112.833 79.8702 111.552C80.7811 110.238 80.5982 108.038 79.2362 105.748C77.9065 103.513 75.6731 101.617 73.2686 101.041C70.9219 100.479 68.3255 100.834 66.4824 102.205C64.7048 103.527 63.4319 105.943 63.9558 109.966C64.2386 112.137 65.952 116.6 69.9111 119.834C73.5771 122.829 79.2784 124.859 87.8434 122.827Z"
            fill="#7B3029" />
        <path fill-rule="evenodd" clip-rule="evenodd"
            d="M80.3782 111.798C80.5828 111.209 81.2261 110.898 81.8152 111.102C82.8905 111.476 83.8925 111.114 84.2514 110.907C84.7913 110.595 85.4819 110.78 85.7939 111.32C86.1059 111.86 85.9211 112.55 85.3812 112.862C84.6603 113.279 82.9636 113.891 81.0744 113.235C80.4853 113.031 80.1737 112.387 80.3782 111.798Z"
            fill="#7B3029" />
        <path fill-rule="evenodd" clip-rule="evenodd"
            d="M69.8845 110.379C71.2464 110.023 72.2179 110.549 73.0901 111.095C73.6186 111.426 73.7786 112.123 73.4476 112.651C73.1165 113.18 72.4198 113.34 71.8914 113.009C71.1061 112.517 70.8509 112.46 70.4564 112.564C69.8532 112.722 69.2362 112.361 69.0782 111.757C68.9203 111.154 69.2813 110.537 69.8845 110.379Z"
            fill="#7B3029" />
        <path fill-rule="evenodd" clip-rule="evenodd"
            d="M65.2938 116.781C65.807 116.685 66.3017 116.771 66.8385 116.986C67.4177 117.217 67.6998 117.873 67.4687 118.453C67.2376 119.032 66.5807 119.314 66.0016 119.083C65.8574 119.025 65.7767 119.008 65.7395 119.003C65.722 119 65.7135 119 65.7117 119C65.7102 119 65.7093 119 65.7067 119.001C65.6994 119.002 65.6705 119.008 65.586 119.044C65.5427 119.062 65.4955 119.083 65.4301 119.113C65.4271 119.114 65.4241 119.116 65.4211 119.117C65.3611 119.144 65.288 119.177 65.2093 119.211C64.6364 119.457 63.9724 119.193 63.7262 118.62C63.4801 118.047 63.7449 117.383 64.3178 117.137C64.3431 117.126 64.376 117.111 64.4152 117.093C64.6088 117.003 64.956 116.844 65.2938 116.781Z"
            fill="#7B3029" />
        <path fill-rule="evenodd" clip-rule="evenodd"
            d="M60.9353 100.96C61.5006 100.697 62.1722 100.942 62.4353 101.507C62.4339 101.504 62.4348 101.506 62.4384 101.51C62.4572 101.536 62.5475 101.656 62.7533 101.774C62.9715 101.899 63.2965 102.004 63.7414 101.967C64.3627 101.914 64.9089 102.376 64.9613 102.997C65.0136 103.618 64.5524 104.165 63.931 104.217C62.1066 104.371 60.8079 103.363 60.388 102.46C60.1249 101.895 60.3699 101.223 60.9353 100.96Z"
            fill="#7B3029" />
        <path fill-rule="evenodd" clip-rule="evenodd"
            d="M87.2392 86.2623C80.4532 81.9298 72.2003 80.1084 64.026 84.0458C63.4132 84.341 62.677 84.0835 62.3818 83.4707C62.0866 82.8578 62.3441 82.1217 62.957 81.8265C72.1174 77.414 81.289 79.5407 88.5648 84.186C95.8071 88.8099 101.353 96.0321 103.394 102.215C103.607 102.861 103.256 103.557 102.61 103.771C101.964 103.984 101.268 103.633 101.055 102.987C99.2113 97.4014 94.0586 90.6162 87.2392 86.2623Z"
            fill="#E0AF59" />
        <path fill-rule="evenodd" clip-rule="evenodd"
            d="M103.255 69.3252C98.2025 63.7306 91.788 59.5523 86.1425 59.0535C85.4649 58.9936 84.9641 58.3958 85.024 57.7182C85.0839 57.0406 85.6817 56.5398 86.3593 56.5996C92.9001 57.1775 99.8473 61.8764 105.083 67.6743C110.312 73.4652 114.156 80.7097 114.097 86.7311C114.09 87.4113 113.533 87.9573 112.853 87.9507C112.173 87.944 111.627 87.3872 111.634 86.707C111.684 81.5903 108.313 74.9269 103.255 69.3252Z"
            fill="#E0AF59" />
        <path
            d="M64.0835 153.597L90.6817 146.566L95.2631 167.616C96.4168 172.916 93.634 178.288 88.6384 180.402L87.5188 180.876C81.7225 183.33 75.0394 180.566 72.6704 174.734L64.0835 153.597Z"
            fill="#B26430" />
        <path fill-rule="evenodd" clip-rule="evenodd"
            d="M72.0378 173.177L71.3244 171.421C71.4035 171.498 71.4828 171.574 71.5622 171.649C72.0435 171.315 72.6822 170.818 73.5088 170.097C72.1007 168.823 70.8043 167.32 69.6852 165.554L70.3788 165.114C71.4727 166.841 72.7436 168.307 74.1264 169.548C74.2461 169.44 74.3691 169.327 74.4955 169.211L75.0523 169.814C74.9504 169.908 74.8505 170 74.7527 170.089C76.5417 171.573 78.4941 172.704 80.4787 173.55C81.3924 172.988 82.3454 172.331 83.3255 171.566C81.5409 170.84 79.7483 169.832 78.0405 168.47L78.5523 167.828C80.3307 169.246 82.2051 170.265 84.0629 170.974C85.0255 170.18 86.0106 169.281 87.0071 168.267C86.2803 167.93 85.5835 167.516 84.9436 167.013L85.4514 166.368C86.1116 166.887 86.8434 167.305 87.6121 167.638C88.2947 166.914 88.9814 166.134 89.6689 165.297C89.4349 165.223 89.1984 165.141 88.9596 165.052L89.2471 164.283C89.5781 164.407 89.9042 164.514 90.2243 164.607C90.3973 164.388 90.5703 164.166 90.7433 163.939L91.3959 164.437C91.2955 164.569 91.195 164.699 91.0945 164.828C92.4663 165.127 93.7015 165.166 94.7113 165.082L94.8873 165.891C93.6796 166.002 92.1842 165.95 90.53 165.54C89.8317 166.403 89.1328 167.208 88.4368 167.958C89.6748 168.387 90.9732 168.618 92.1986 168.711C92.6588 168.746 93.1068 168.762 93.535 168.761C94.0563 168.077 94.5597 167.355 95.0405 166.594L95.2627 167.615C95.2705 167.651 95.2782 167.687 95.2856 167.723C95.0562 168.066 94.8224 168.4 94.5846 168.727C94.8247 168.711 95.0548 168.69 95.2731 168.666C95.3289 168.659 95.3839 168.653 95.4379 168.646C95.4715 168.919 95.4949 169.192 95.5083 169.464C95.4613 169.47 95.4138 169.476 95.3659 169.481C94.9296 169.531 94.4511 169.565 93.9425 169.577C93.1534 170.586 92.327 171.513 91.4786 172.364C92.9632 172.372 94.2843 172.215 95.3508 171.972C95.1791 172.944 94.8809 173.886 94.4682 174.772C94.2342 175.058 93.9901 175.338 93.7379 175.613C93.846 175.601 93.9519 175.588 94.0556 175.574C93.8829 175.879 93.6958 176.176 93.4952 176.464C93.2899 176.484 93.0785 176.501 92.8613 176.515C92.1073 177.25 91.3048 177.936 90.4945 178.562C90.8474 178.58 91.1986 178.595 91.5478 178.61C91.2228 178.886 90.8803 179.145 90.5214 179.386C90.1695 179.368 89.8154 179.349 89.4592 179.326C88.7219 179.848 87.9874 180.318 87.2845 180.729C87.4593 180.738 87.6349 180.745 87.8114 180.752L87.5184 180.876C85.9954 181.521 84.4112 181.805 82.8601 181.768C82.9691 181.752 83.0957 181.725 83.2395 181.687C83.5433 181.606 83.907 181.48 84.3184 181.311C82.8874 181.133 81.4853 180.849 80.0906 180.387C79.7011 180.258 79.3125 180.115 78.9244 179.956C78.4339 180.094 77.9688 180.205 77.5354 180.289C77.1787 180.086 76.8325 179.864 76.4986 179.622C76.8613 179.58 77.2697 179.511 77.7178 179.413C76.5266 178.824 75.3345 178.077 74.1254 177.126C74.088 177.134 74.0509 177.142 74.014 177.149C73.4905 176.433 73.0438 175.642 72.6907 174.784C73.2429 175.315 73.7885 175.798 74.3291 176.238C74.7833 176.128 75.2757 175.985 75.8014 175.804C74.5267 175.086 73.2683 174.221 72.0378 173.177ZM74.1336 170.642C75.8504 172.082 77.7125 173.204 79.6085 174.064C78.6188 174.624 77.6831 175.071 76.8185 175.423C75.2413 174.596 73.6891 173.549 72.1825 172.216C72.6904 171.853 73.3328 171.344 74.1336 170.642ZM90.6498 173.164C92.1946 173.232 93.614 173.128 94.8188 172.916C94.1764 173.895 93.3824 174.835 92.5045 175.714C91.1334 175.784 89.5297 175.737 87.8026 175.515C88.7585 174.817 89.7141 174.035 90.6498 173.164ZM86.8215 176.204C88.5397 176.477 90.1671 176.581 91.6101 176.563C90.8432 177.256 90.034 177.901 89.2207 178.488C87.5213 178.375 85.789 178.194 84.0498 177.866C84.2392 177.766 84.4296 177.662 84.621 177.556C85.3444 177.152 86.081 176.702 86.8215 176.204ZM82.8638 178.461C84.6418 178.857 86.4109 179.086 88.1415 179.231C87.3117 179.776 86.5035 180.248 85.7624 180.633C83.8921 180.481 82.1104 180.191 80.3491 179.607C80.2983 179.59 80.2476 179.573 80.1969 179.556C81.0348 179.265 81.9311 178.902 82.8638 178.461ZM78.9741 179.087C79.7727 178.851 80.6472 178.538 81.5718 178.143C79.9669 177.708 78.3607 177.122 76.775 176.323C76.2003 176.545 75.6556 176.726 75.1454 176.872C76.4389 177.83 77.7078 178.547 78.9741 179.087ZM82.7672 177.597C83.2432 177.365 83.7288 177.113 84.221 176.839C84.6904 176.577 85.1656 176.295 85.6438 175.992C85.0063 175.864 84.3597 175.713 83.7085 175.535C82.6626 175.25 81.6027 174.898 80.5475 174.468C79.5816 175.043 78.6577 175.517 77.7894 175.902C79.4339 176.667 81.1007 177.209 82.7672 177.597ZM86.6307 175.34C87.5946 174.676 88.5633 173.926 89.5155 173.085L89.4953 173.083C87.8261 172.92 86.034 172.554 84.2176 171.906C83.2598 172.676 82.3232 173.346 81.4182 173.929C82.2548 174.247 83.0934 174.517 83.9243 174.743C84.842 174.993 85.7486 175.19 86.6307 175.34ZM90.3423 172.326C91.219 171.491 92.0758 170.575 92.8954 169.572C92.6466 169.563 92.3931 169.55 92.1361 169.53C90.7519 169.424 89.2497 169.149 87.8207 168.608C86.8563 169.605 85.8996 170.497 84.9603 171.293C86.5479 171.817 88.1098 172.123 89.5747 172.265C89.834 172.291 90.09 172.311 90.3423 172.326Z"
            fill="#95492B" />
        <path fill-rule="evenodd" clip-rule="evenodd"
            d="M69.1247 166.007L66.1491 158.683C66.7157 155.971 68.9549 153.348 72.0618 151.489L82.433 148.747C86.3597 148.736 89.7776 149.796 91.8195 151.796L93.3976 159.046C91.9906 163.18 87.2545 166.837 81.4668 167.757C76.3165 168.575 71.91 168.029 69.1247 166.007Z"
            fill="#5A5B8F" />
        <path fill-rule="evenodd" clip-rule="evenodd"
            d="M70.1891 168.626L66.6251 159.853C68.0336 155.716 73.1765 151.96 79.1596 151.009C84.5801 150.147 89.5763 151.164 92.2495 153.769L93.8472 161.109C92.4209 165.269 87.6523 168.945 81.8266 169.871C77.106 170.621 73.0051 170.235 70.1891 168.626Z"
            fill="#79617D" />
        <path fill-rule="evenodd" clip-rule="evenodd"
            d="M67.3345 161.6L64.0833 153.596L90.6815 146.566L92.473 154.797C91.2624 159.109 86.3977 162.994 80.4058 163.947C74.7801 164.841 70.0417 164.107 67.3345 161.6Z"
            fill="#B38A74" />
        <path
            d="M90.8381 146.71C91.7075 152.14 86.1012 157.838 78.7776 159.011C70.7684 160.293 64.5826 158.173 63.6278 152.21C62.7967 147.02 68.825 141.47 76.1486 140.298C83.4722 139.125 90.007 141.52 90.8381 146.71Z"
            fill="#D0B6AF" />
        <path fill-rule="evenodd" clip-rule="evenodd"
            d="M64.082 153.597L67.3332 161.6C68.0935 162.304 69.0139 162.869 70.0692 163.296L67.3956 154.174C67.2382 153.637 66.871 153.219 66.4095 152.982L64.082 153.597Z"
            fill="#D0B6AF" />
        <path
            d="M89.2604 146.899C89.9896 151.453 84.6366 156.45 78.4945 157.433C71.7775 158.509 65.9612 156.75 65.1605 151.749C64.4635 147.396 70.1476 142.723 76.2897 141.739C82.4318 140.756 88.5634 142.546 89.2604 146.899Z"
            fill="#B38A74" />
        <path
            d="M78.1946 158.278L82.6963 141.162L76.2326 141.185L69.1502 157.372L72.7068 158.741L78.1946 158.278Z"
            fill="#D0B6AF" />
        <g style="mix-blend-mode:overlay">
            <path fill-rule="evenodd" clip-rule="evenodd"
                d="M63.9002 84.2173C60.7319 86.7714 51.6293 94.7441 55.2523 109.853L55.2827 109.874C55.3255 110.03 55.3703 110.186 55.4173 110.341C53.8155 112.784 52.5088 115.212 51.5795 117.585C51.4514 117.912 51.3202 118.243 51.1877 118.577C48.9948 124.111 46.4417 130.553 51.8268 134.74C52.2969 135.25 52.9013 135.654 53.6032 135.91C53.5452 136.842 53.5241 137.813 53.537 138.817L53.538 138.818C53.6553 147.892 56.5619 159.562 60.2906 167.365C64.9215 177.055 72.4736 184.339 83.8267 183.382C95.1798 182.425 95.6106 182.37 106.464 180.229C117.318 178.088 118.042 173.471 119.609 163.36C121.708 149.817 122.93 140.043 117.52 127.423C115.977 123.823 113.559 120.794 110.586 118.528L133.601 82.6642C130.448 80.5258 125.758 77.741 120.484 75.5689C121.847 58.2891 106.281 53.0137 100.597 53.4929C97.4037 53.7621 92.4803 55.6389 89.4368 57.1586C88.4064 56.8801 87.3778 56.6901 86.3591 56.6001C85.6815 56.5403 85.0837 57.041 85.0238 57.7186C85.0008 57.9791 85.0606 58.2278 85.1815 58.4386C68.7358 60.2572 63.3818 73.6153 63.5781 81.5382C63.3711 81.6313 63.1641 81.7276 62.9571 81.8273C62.3443 82.1225 62.0868 82.8587 62.382 83.4715C62.6532 84.0346 63.2967 84.2977 63.8748 84.1077C63.8831 84.1445 63.8915 84.181 63.9002 84.2173Z"
                fill="#01F0FF" fill-opacity="0.25" />
        </g>
        <g style="mix-blend-mode:lighten">
            <path fill-rule="evenodd" clip-rule="evenodd"
                d="M63.9002 84.2173C60.7319 86.7714 51.6294 94.7441 55.2524 109.853L55.2826 109.874C55.3254 110.03 55.3702 110.186 55.4172 110.341C53.8155 112.785 52.5088 115.212 51.5795 117.585C51.4514 117.912 51.3202 118.243 51.1877 118.577C48.9948 124.111 46.4416 130.553 51.8271 134.74C52.2971 135.25 52.9014 135.654 53.6033 135.91C53.5453 136.842 53.5241 137.813 53.5371 138.817L53.538 138.818C53.6553 147.892 56.5619 159.562 60.2906 167.365C64.9215 177.055 72.4736 184.339 83.8267 183.382C95.1798 182.425 95.6106 182.37 106.464 180.229C117.318 178.088 118.042 173.471 119.609 163.36C121.708 149.817 122.93 140.043 117.52 127.423C115.977 123.823 113.559 120.794 110.586 118.528L133.601 82.6642C130.449 80.5258 125.758 77.741 120.484 75.569C121.847 58.2891 106.281 53.0137 100.597 53.4929C97.4038 53.7621 92.4804 55.6389 89.4369 57.1586C88.4064 56.8801 87.3779 56.6901 86.3592 56.6001C85.6816 56.5403 85.0837 57.041 85.0239 57.7186C85.0008 57.9791 85.0607 58.2278 85.1815 58.4386C68.7358 60.2572 63.3818 73.6153 63.5782 81.5382C63.3712 81.6313 63.1642 81.7276 62.9572 81.8273C62.3443 82.1225 62.0868 82.8587 62.382 83.4715C62.6533 84.0346 63.2968 84.2977 63.8749 84.1077C63.8832 84.1445 63.8916 84.181 63.9002 84.2173Z"
                fill="#01F0FF" fill-opacity="0.1" />
        </g>
        <path fill-rule="evenodd" clip-rule="evenodd"
            d="M142.401 195.731C142.887 195.731 143.368 195.713 143.845 195.677L143.871 195.731H146.81C163.519 195.731 178.451 188.125 188.334 176.187C200.369 163.033 202.648 144.717 202.648 134.505C202.648 126.975 201.434 119.278 199.34 112.101C193.945 88.7373 173.01 71.3193 148.007 71.3193C132.235 71.3193 119.006 82.2113 115.433 96.8838C103.576 103.019 97.159 117.486 102.439 131.161L104.99 137.765C106.386 141.38 106.626 145.339 105.678 149.097C99.7058 172.764 117.992 195.731 142.401 195.731Z"
            fill="#46DA00" />
        <path fill-rule="evenodd" clip-rule="evenodd"
            d="M96.9656 133.555C97.4904 131.455 99.6179 130.179 101.717 130.704C112.17 133.317 139.21 145.008 163.198 167.396C164.78 168.873 164.865 171.353 163.389 172.935C161.912 174.517 159.432 174.602 157.85 173.126C134.816 151.627 108.957 140.592 99.8167 138.307C97.7172 137.782 96.4407 135.654 96.9656 133.555Z"
            fill="#CD7A2F" />
        <path fill-rule="evenodd" clip-rule="evenodd"
            d="M103.119 173.396C104.634 172.26 106.783 172.567 107.919 174.082C111.465 178.81 119.821 182.439 130.102 183.568C140.222 184.679 151.102 183.23 158.889 179.003C160.553 178.1 162.634 178.717 163.538 180.381C164.441 182.045 163.825 184.126 162.16 185.03C152.804 190.109 140.418 191.599 129.353 190.384C118.45 189.187 107.703 185.223 102.433 178.196C101.297 176.681 101.604 174.532 103.119 173.396Z"
            fill="#CD7A2F" />
        <path fill-rule="evenodd" clip-rule="evenodd"
            d="M195.391 100.953C195.235 101.107 195.112 101.309 195.043 101.545C194.041 100.376 192.789 99.4946 191.378 99.024C190.648 98.7805 189.932 99.4352 189.963 100.317C189.963 100.317 190.797 105.01 190.912 108.223C191.027 111.435 190.552 116.769 190.552 116.769C190.554 116.825 190.559 116.88 190.567 116.934C190.46 117.782 190.402 118.738 190.402 119.812C190.402 125.267 187.027 126.925 182.234 125.57L182.169 125.532C178.639 123.457 173.302 119.179 173.302 119.179C172.332 118.609 171.095 119.149 170.858 120.246C170.279 122.92 170.613 125.657 171.707 128.072C169.561 126.669 167.873 125.473 167.873 125.473C166.838 124.945 165.594 125.578 165.416 126.725C164.884 130.159 165.779 133.606 167.766 136.347C163.068 140.414 160.448 146.601 161.089 153.09L161.649 158.764C162.723 169.633 171.601 179.603 181.558 175.117C187.774 172.316 193.273 166.467 193.585 154.589C193.646 152.281 193.604 150.081 193.487 148.006C196.309 148.413 199.076 148.515 201.332 148.497C202.335 143.172 202.647 138.285 202.647 134.506C202.647 126.977 201.433 119.28 199.338 112.103C198.438 108.203 197.104 104.468 195.391 100.953Z"
            fill="#73F010" />
        <path
            d="M198.908 180.733C198.908 180.733 184.784 176.895 175.832 172.816C172.103 171.117 166.891 168.793 161.503 166.833C156.733 165.099 147.638 163.012 143.87 161.935C133.584 158.996 146.319 167.813 148.042 172.816C150.09 181.907 156.322 189.874 165.3 193.965C177.413 199.484 191.512 196.576 200.216 187.027C202.028 185.04 201.365 181.853 198.908 180.733Z"
            fill="#46DA00" />
        <path fill-rule="evenodd" clip-rule="evenodd"
            d="M201.879 123.859C201.375 121.367 200.677 118.675 199.709 115.892C197.012 108.138 193.533 111.451 194.076 121.77C194.566 131.076 195.79 140.383 199.219 143.812C200.165 144.757 201.379 144.223 202.204 142.595C202.529 139.582 202.648 136.833 202.648 134.505C202.648 130.97 202.38 127.397 201.879 123.859ZM169.64 152.14C169.151 146.372 171.748 140.776 176.468 137.426C180.714 134.413 186.567 135.331 188.44 140.188C190.131 144.571 191.434 150.434 190.403 157.036C189.496 162.835 186.646 166.355 183.414 168.488C177.317 172.511 170.842 166.329 170.225 159.05L169.64 152.14Z"
            fill="white" />
        <path
            d="M192.361 150.179C192.361 144.399 202.647 148.22 202.647 150.179C202.647 152.139 200.198 155.322 197.749 155.812C195.565 156.249 192.361 155.567 192.361 150.179Z"
            fill="#FF8A00" />
        <path
            d="M194.32 142.833C198.449 138.704 206.076 147.731 204.116 149.69C201.667 152.139 194.81 152.629 192.361 150.18C191.871 146.752 193.341 143.813 194.32 142.833Z"
            fill="#FFC200" />
        <path fill-rule="evenodd" clip-rule="evenodd"
            d="M180.842 150.659C180.842 150.822 180.845 150.989 180.852 151.16C181.009 155.565 181.77 158.017 183.056 160.466C184.988 164.146 189.668 163.895 189.668 156.548C189.668 154.589 189.351 149.772 187.464 146.752C185.822 144.125 183.3 143.919 181.89 146.134C182.589 146.566 183.056 147.339 183.056 148.221C183.056 149.494 182.084 150.54 180.842 150.659Z"
            fill="#373737" />
        <path fill-rule="evenodd" clip-rule="evenodd"
            d="M195.309 133.75C195.856 136.833 196.604 139.537 197.633 141.541C198.544 141.865 199.709 141.387 199.709 138.915C199.709 136.956 199.694 134.017 198.456 130.678C197.521 128.158 195.829 128.478 195.046 130.237C195.769 130.525 196.28 131.231 196.28 132.057C196.28 132.779 195.89 133.41 195.309 133.75Z"
            fill="#373737" />
        <path fill-rule="evenodd" clip-rule="evenodd"
            d="M20.2693 220.705C18.94 221.881 16.7254 222.07 15.0919 221.147L10.3252 218.453C8.2059 217.255 8.02572 214.781 9.95921 213.427L14.2291 210.438C15.5286 209.528 17.4196 209.413 18.8967 210.153L23.3046 212.36C24.1981 212.808 24.7895 213.484 25.0495 214.226L36.2583 212.358C40.1181 211.715 43.0332 215.885 40.2274 218.036L35.6234 221.566C35.4744 221.68 35.3129 221.783 35.1406 221.873L28.1584 225.53C26.2781 226.515 23.6006 225.813 22.4378 224.03L20.2693 220.705Z"
            fill="#09CA4B" />
        <path fill-rule="evenodd" clip-rule="evenodd"
            d="M62.8381 219.994C61.8249 219.366 60.3299 219.585 59.5743 220.471L58.0381 222.274L56.1277 219.675C55.2022 218.416 53.1443 218.104 51.9191 219.038L49.8748 220.596L47.9253 217.498C46.9823 216 44.7538 215.41 43.2499 216.261L36.5535 220.049C35.4154 220.693 35.0631 221.973 35.7055 223.131L40.1338 231.111C41.0151 232.699 43.3379 233.366 44.8957 232.479L48.3869 230.491L50.4583 233.309C51.3838 234.568 53.4417 234.879 54.6669 233.946L59.538 230.234L60.6464 231.098C61.5697 231.817 63.0867 231.725 63.9497 230.897L67.9386 227.069C69.2908 225.771 69.0887 223.869 67.4934 222.88L62.8381 219.994Z"
            fill="#09CA4B" />
        <path fill-rule="evenodd" clip-rule="evenodd"
            d="M235.925 98.4835C234.943 98.5564 233.931 97.825 233.717 96.8867L233.363 95.3413L231.039 96.4812C229.88 97.0498 228.253 96.4915 227.713 95.3394L226.802 93.4002L222.814 95.7122C221.591 96.4213 219.803 96.0523 218.986 94.9222L215.044 89.4635C214.359 88.515 214.603 87.3498 215.615 86.7383L223.71 81.8456C224.972 81.0825 226.861 81.4988 227.643 82.7127L229.502 85.5994L232.097 84.3269C233.256 83.7582 234.882 84.3165 235.423 85.4687L237.419 89.7212L238.563 89.5118C239.515 89.3377 240.591 89.9852 240.906 90.9216L242.365 95.2503C242.86 96.7177 241.985 98.0339 240.438 98.1486L235.925 98.4835Z"
            fill="#09CA4B" />
        <path fill-rule="evenodd" clip-rule="evenodd"
            d="M209.524 78.6303C210.42 78.6985 211.348 79.475 211.535 80.3139L211.834 81.652L214.605 80.9486C215.715 80.6667 217.249 81.3483 217.737 82.3403L220.504 87.9701C220.83 88.6321 220.581 89.2426 219.887 89.4852L212.859 91.9421C211.757 92.3273 210.087 91.6367 209.578 90.5852L207.284 85.8491L205.785 85.8659C204.932 85.8755 203.973 85.1831 203.684 84.3495L202.327 80.4355C201.869 79.1158 202.647 78.1067 204.04 78.2128L209.524 78.6303Z"
            fill="#09CA4B" />
        <path fill-rule="evenodd" clip-rule="evenodd"
            d="M151.615 50.0367C150.771 49.7263 149.605 50.0471 149.086 50.7323L148.054 52.0936L145.799 50.2803C144.906 49.5624 143.227 49.545 142.372 50.2447L137.515 54.2155C136.944 54.6824 136.916 55.3411 137.447 55.85L142.819 61.0053C143.661 61.8135 145.466 61.8792 146.367 61.1344L150.694 57.5534L152.009 58.1717C152.78 58.5348 153.941 58.3037 154.55 57.6655L157.411 54.6692C158.375 53.659 158.087 52.4179 156.776 51.9356L151.615 50.0367Z"
            fill="#09CA4B" />
        <path fill-rule="evenodd" clip-rule="evenodd"
            d="M121.386 53.4967C121.776 54.2759 122.9 54.6726 123.781 54.3421L125.315 53.7668L126.002 57.1195C126.234 58.2564 127.531 59.1496 128.65 58.9441L131.022 58.5083L132.021 61.1054C132.701 62.8716 135.413 63.6222 137.332 62.5752L143.549 59.1843C144.241 58.807 144.551 58.1329 144.328 57.4918L141.249 48.6405C140.91 47.6663 139.51 47.1616 138.351 47.5962L135.376 48.7117L135.37 48.6588C135.237 47.4634 133.872 46.4571 132.688 46.6816L128.562 47.4643L127.838 45.6547C127.524 44.8712 126.457 44.4098 125.544 44.6635L120.405 46.0911C119.074 46.4609 118.461 47.6462 119.021 48.7662L121.386 53.4967Z"
            fill="#09CA4B" />
        <path fill-rule="evenodd" clip-rule="evenodd"
            d="M24.8641 249.665C26.1944 249.001 26.9416 247.271 26.4954 245.888L26.398 245.586L30.1012 245.18C32.0386 244.968 33.6607 242.941 33.4184 241.035L33.1329 238.789L36.9891 238.663C39.177 238.592 41.2034 236.583 41.2565 234.432L41.4346 227.212C41.5057 224.332 39.4519 222.249 36.541 222.249L27.3666 222.249C25.3245 222.249 23.3341 223.985 23.0231 226.038L22.3985 230.161L18.9261 230.541C16.9886 230.754 15.3666 232.781 15.6088 234.687L16.2122 239.434L14.5134 240.066C13.1452 240.575 12.2496 242.246 12.5634 243.704L14.0141 250.445C14.5059 252.731 16.6574 253.762 18.7519 252.716L24.8641 249.665Z"
            fill="#09CA4B" />
        <path fill-rule="evenodd" clip-rule="evenodd"
            d="M53.0792 208.869C53.2646 209.699 52.7422 210.522 51.9124 210.707C50.4593 211.032 47.7455 212.489 44.9764 215.01C42.2473 217.495 39.6441 220.854 38.268 224.783C37.987 225.586 37.1088 226.008 36.3063 225.727C35.5039 225.446 35.0812 224.568 35.3622 223.766C36.9495 219.233 39.9042 215.464 42.9037 212.734C45.8631 210.039 49.0485 208.192 51.2413 207.703C52.071 207.517 52.8939 208.04 53.0792 208.869Z"
            fill="#8BE37C" />
        <path fill-rule="evenodd" clip-rule="evenodd"
            d="M35.642 226.804C34.7921 226.826 34.0854 226.154 34.0635 225.304C34.0583 225.102 34.054 224.9 34.0497 224.699C34.0147 223.072 33.9802 221.463 33.485 219.42C32.9303 217.131 31.7764 214.239 29.2781 210.307C28.8221 209.59 29.0341 208.639 29.7516 208.183C30.4692 207.727 31.4205 207.939 31.8766 208.656C34.5136 212.806 35.8262 216.009 36.4771 218.694C37.0552 221.079 37.0948 223.008 37.1283 224.637C37.1324 224.838 37.1364 225.034 37.1414 225.225C37.1632 226.075 36.4919 226.782 35.642 226.804Z"
            fill="#8BE37C" />
        <path fill-rule="evenodd" clip-rule="evenodd"
            d="M150.104 49.8817C150.125 50.7316 149.454 51.4382 148.604 51.4598C144.783 51.557 140.373 53.033 137.276 55.9953C136.662 56.583 135.688 56.5614 135.1 55.9471C134.512 55.3327 134.534 54.3583 135.148 53.7705C138.889 50.1921 144.075 48.4952 148.526 48.382C149.376 48.3603 150.082 49.0318 150.104 49.8817Z"
            fill="#8BE37C" />
        <path fill-rule="evenodd" clip-rule="evenodd"
            d="M221.129 73.5189C221.935 73.7877 222.371 74.6595 222.102 75.4661C221.152 78.3159 220.655 82.1953 221.146 86.6114C221.24 87.4564 220.631 88.2175 219.786 88.3114C218.941 88.4053 218.18 87.7965 218.086 86.9515C217.55 82.1311 218.079 77.8003 219.182 74.4925C219.45 73.6859 220.322 73.25 221.129 73.5189Z"
            fill="#8BE37C" />
        <path fill-rule="evenodd" clip-rule="evenodd"
            d="M136.335 37.5273C137.181 37.4427 137.935 38.0599 138.02 38.9059C138.536 44.0705 138.575 50.5342 136.903 54.9937C136.605 55.7897 135.717 56.1931 134.921 55.8946C134.125 55.596 133.722 54.7087 134.02 53.9126C135.427 50.162 135.466 44.3104 134.956 39.2122C134.872 38.3663 135.489 37.6119 136.335 37.5273Z"
            fill="#8BE37C" />
        <path fill-rule="evenodd" clip-rule="evenodd"
            d="M28.8252 229.069C31.5922 226.795 34.4847 225.363 37.058 225.105C37.622 225.049 38.125 225.46 38.1815 226.024C38.238 226.588 37.8267 227.091 37.2627 227.148C35.2408 227.35 32.7216 228.524 30.1284 230.655C27.5523 232.772 24.9762 235.776 22.838 239.507C22.5562 239.999 21.9291 240.169 21.4373 239.887C20.9456 239.605 20.7754 238.978 21.0572 238.487C23.3083 234.558 26.041 231.357 28.8252 229.069Z"
            fill="#15AE37" />
        <path fill-rule="evenodd" clip-rule="evenodd"
            d="M54.8993 225.326C54.8993 225.893 54.4398 226.352 53.873 226.352C52.2077 226.352 50.6683 226.04 49.2504 225.679C48.7404 225.55 48.2589 225.418 47.7939 225.29C46.9228 225.052 46.1094 224.829 45.2739 224.666C44.0334 224.424 42.8876 224.349 41.7524 224.597C40.6281 224.842 39.4394 225.42 38.143 226.599C37.7236 226.98 37.0745 226.949 36.6933 226.529C36.312 226.11 36.343 225.461 36.7624 225.08C38.2882 223.693 39.7934 222.924 41.3149 222.592C42.8257 222.262 44.2776 222.38 45.6669 222.651C46.5739 222.828 47.519 223.087 48.4389 223.338C48.8864 223.46 49.328 223.581 49.7563 223.69C51.1125 224.035 52.4595 224.3 53.873 224.3C54.4398 224.3 54.8993 224.759 54.8993 225.326Z"
            fill="#15AE37" />
        <path fill-rule="evenodd" clip-rule="evenodd"
            d="M233.04 89.3052C232.898 89.8538 232.338 90.1831 231.789 90.0407C231.677 90.0116 231.566 89.9826 231.454 89.9536C227.667 88.9689 224.163 88.0575 220.015 89.13C219.244 89.3293 218.463 89.079 217.931 88.5787C216.856 87.5682 214.693 86.1244 212.744 85.7346C212.188 85.6234 211.828 85.0828 211.939 84.527C212.05 83.9712 212.591 83.6108 213.146 83.7219C215.604 84.2134 218.1 85.9211 219.336 87.0831C219.367 87.1118 219.402 87.1305 219.434 87.1395C219.465 87.1482 219.487 87.1463 219.501 87.1428C224.174 85.9347 228.143 86.9692 231.852 87.9361C232.003 87.9756 232.154 88.0149 232.305 88.054C232.853 88.1964 233.183 88.7565 233.04 89.3052Z"
            fill="#15AE37" />
        <path fill-rule="evenodd" clip-rule="evenodd"
            d="M137.085 57.3423C136.624 57.6718 135.983 57.565 135.653 57.1037C134.506 55.4978 132.745 54.3063 131.204 53.505C130.443 53.1093 129.758 52.82 129.265 52.6302C129.019 52.5355 128.821 52.4661 128.688 52.4211C128.622 52.3986 128.571 52.3822 128.538 52.3718L128.503 52.3608L128.496 52.3587C127.954 52.1956 127.645 51.6235 127.808 51.0807C127.971 50.5379 128.543 50.2298 129.086 50.3927L128.8 51.3462C129.086 50.3927 129.086 50.3926 129.086 50.3927L129.089 50.3936L129.094 50.395L129.109 50.3996L129.161 50.4158C129.204 50.4298 129.267 50.45 129.345 50.4766C129.503 50.5298 129.727 50.6087 130.002 50.7145C130.551 50.9257 131.308 51.2457 132.151 51.684C133.817 52.5504 135.905 53.9247 137.323 55.9107C137.653 56.3719 137.546 57.0129 137.085 57.3423Z"
            fill="#15AE37" />
        <path
            d="M16.4131 205.316C16.4131 198.514 21.9268 193 28.7284 193C35.5299 193 41.0437 198.514 41.0437 205.316C41.0437 212.117 35.5299 217.631 28.7284 217.631C21.9268 217.631 16.4131 212.117 16.4131 205.316Z"
            fill="#DCFFEA" />
        <path
            d="M128.277 33.9279C128.277 28.8267 132.413 24.6914 137.514 24.6914C142.615 24.6914 146.75 28.8267 146.75 33.9279C146.75 39.029 142.615 43.1643 137.514 43.1643C132.413 43.1643 128.277 39.029 128.277 33.9279Z"
            fill="#DCFFEA" />
        <path
            d="M144.698 47.7832C144.698 44.6658 147.225 42.1387 150.343 42.1387C153.46 42.1387 155.987 44.6658 155.987 47.7832C155.987 50.9006 153.46 53.4277 150.343 53.4277C147.225 53.4277 144.698 50.9006 144.698 47.7832Z"
            fill="#DCFFEA" />
        <path
            d="M212.432 68.3078C212.432 63.49 216.337 59.5845 221.155 59.5845C225.973 59.5845 229.878 63.49 229.878 68.3078C229.878 73.1256 225.973 77.0311 221.155 77.0311C216.337 77.0311 212.432 73.1256 212.432 68.3078Z"
            fill="#DCFFEA" />
        <path
            d="M45.1494 205.315C45.1494 200.78 48.8252 197.104 53.3596 197.104C57.894 197.104 61.5698 200.78 61.5698 205.315C61.5698 209.849 57.894 213.525 53.3596 213.525C48.8252 213.525 45.1494 209.849 45.1494 205.315Z"
            fill="#DCFFEA" />
        <path
            d="M34.8867 175.554C34.8867 173.854 36.2652 172.475 37.9655 172.475C39.6659 172.475 41.0444 173.854 41.0444 175.554C41.0444 177.254 39.6659 178.633 37.9655 178.633C36.2652 178.633 34.8867 177.254 34.8867 175.554Z"
            fill="#DCFFEA" />
        <path
            d="M209.353 210.447C209.353 208.747 210.731 207.368 212.431 207.368C214.132 207.368 215.51 208.747 215.51 210.447C215.51 212.147 214.132 213.526 212.431 213.526C210.731 213.526 209.353 212.147 209.353 210.447Z"
            fill="#DCFFEA" />
        <path
            d="M186.774 44.191C186.774 41.9239 188.612 40.0859 190.88 40.0859C193.147 40.0859 194.985 41.9239 194.985 44.191C194.985 46.4582 193.147 48.2961 190.88 48.2961C188.612 48.2961 186.774 46.4582 186.774 44.191Z"
            fill="#DCFFEA" />
        <path
            d="M224.747 34.9553C224.747 33.2549 226.126 31.8765 227.826 31.8765C229.526 31.8765 230.905 33.2549 230.905 34.9553C230.905 36.6557 229.526 38.0341 227.826 38.0341C226.126 38.0341 224.747 36.6557 224.747 34.9553Z"
            fill="#DCFFEA" />
        <path
            d="M40.0176 139.635C40.0176 137.935 41.396 136.556 43.0964 136.556C44.7968 136.556 46.1752 137.935 46.1752 139.635C46.1752 141.335 44.7968 142.714 43.0964 142.714C41.396 142.714 40.0176 141.335 40.0176 139.635Z"
            fill="#DCFFEA" />
        <path
            d="M60.543 185.675C60.543 183.408 62.3809 181.57 64.6481 181.57C66.9152 181.57 68.7532 183.408 68.7532 185.675C68.7532 187.943 66.9152 189.781 64.6481 189.781C62.3809 189.781 60.543 187.943 60.543 185.675Z"
            fill="#DCFFEA" />
        <path
            d="M48.2285 206.856C48.2285 204.872 49.8367 203.264 51.8205 203.264C53.8043 203.264 55.4124 204.872 55.4124 206.856C55.4124 208.84 53.8043 210.448 51.8205 210.448C49.8367 210.448 48.2285 208.84 48.2285 206.856Z"
            fill="#CAF2C9" />
        <path
            d="M24.623 207.368C24.623 204.534 26.9204 202.236 29.7544 202.236C32.5884 202.236 34.8858 204.534 34.8858 207.368C34.8858 210.202 32.5884 212.499 29.7544 212.499C26.9204 212.499 24.623 210.202 24.623 207.368Z"
            fill="#CAF2C9" />
        <path
            d="M133.408 35.9816C133.408 33.7144 135.246 31.8765 137.513 31.8765C139.78 31.8765 141.618 33.7144 141.618 35.9816C141.618 38.2487 139.78 40.0867 137.513 40.0867C135.246 40.0867 133.408 38.2487 133.408 35.9816Z"
            fill="#CAF2C9" />
        <path
            d="M146.75 49.3211C146.75 48.1875 147.669 47.2686 148.803 47.2686C149.936 47.2686 150.855 48.1875 150.855 49.3211C150.855 50.4547 149.936 51.3736 148.803 51.3736C147.669 51.3736 146.75 50.4547 146.75 49.3211Z"
            fill="#CAF2C9" />
        <path
            d="M217.562 71.3869C217.562 69.4031 219.171 67.7949 221.154 67.7949C223.138 67.7949 224.746 69.4031 224.746 71.3869C224.746 73.3707 223.138 74.9788 221.154 74.9788C219.171 74.9788 217.562 73.3707 217.562 71.3869Z"
            fill="#CAF2C9" />
        <path
            d="M218.811 132.548C218.811 132.548 228.069 125.2 234.926 125.2C236.445 125.201 226.159 143.323 223.22 163.896C222.987 165.525 221.97 166.156 220.972 166.372C219.835 166.617 218.675 167.348 218.517 168.501L217.342 177.12L210.485 169.283L218.811 132.548Z"
            fill="#D6F3B0" />
        <path
            d="M209.015 155.077C210.599 151.514 213.423 151.648 213.423 151.648C213.423 147.504 215.372 139.464 216.521 135.082C217.032 133.132 218.308 131.485 220.08 130.525C224.384 128.195 232.497 124.136 234.975 125.199C235.876 125.585 225.179 129.117 220.281 133.035C218.308 134.614 223.139 143.62 225.473 147.691C226.077 148.745 225.622 150.104 224.506 150.585C222.216 151.572 218.493 153.263 215.383 155.077C210.685 157.818 219.13 170.259 222.709 175.143C223.605 176.366 223.772 177.977 223.074 179.324C220.21 184.855 212.65 198.927 209.505 199.65C203.567 201.016 197.452 199.262 194.611 198.229C193.667 197.886 193.22 196.868 193.553 195.921C195.784 189.557 203.975 166.418 209.015 155.077Z"
            fill="white" />
        <path fill-rule="evenodd" clip-rule="evenodd"
            d="M203.886 167.669C204.799 165.301 205.702 163.007 206.566 160.88C206.785 161.051 206.937 161.316 206.942 161.645C206.988 164.553 207.194 167.059 208.106 169.529C208.265 169.961 208.131 170.453 207.756 170.72L205.984 171.986C205.468 172.355 204.744 172.141 204.567 171.531C204.243 170.408 204.006 169.09 203.886 167.669ZM214.089 145.806C214.404 145.842 214.737 145.727 214.964 145.446L216.716 143.27C216.943 142.988 216.994 142.603 216.86 142.267C216.31 140.879 215.959 139.559 215.738 138.168C215.161 140.527 214.541 143.265 214.089 145.806ZM206.118 186.135C206.111 186.778 206.693 187.282 207.323 187.156L210.143 186.592C210.621 186.497 210.955 186.067 210.934 185.581C210.919 185.249 210.905 184.903 210.89 184.546L210.89 184.544L210.89 184.543L210.89 184.543V184.543C210.859 183.805 210.827 183.02 210.785 182.215C211.922 181.811 213.004 181.469 213.922 181.243C214.452 181.112 214.813 180.598 214.715 180.06L214.107 176.714C214.003 176.144 213.431 175.787 212.875 175.95C212.049 176.191 211.167 176.456 210.265 176.747C210.14 175.975 209.987 175.245 209.798 174.583C209.654 174.078 209.111 173.822 208.613 173.988L205.951 174.875C205.468 175.036 205.19 175.54 205.287 176.04C205.428 176.767 205.553 177.589 205.661 178.457C204.749 178.859 203.893 179.288 203.139 179.746C202.832 179.933 202.668 180.281 202.7 180.639L203.007 184.017C203.07 184.704 203.804 185.116 204.43 184.825C204.945 184.586 205.505 184.334 206.091 184.08C206.115 184.813 206.124 185.509 206.118 186.135ZM214.903 149.242C214.888 148.895 214.985 148.553 215.16 148.253L216.861 145.337C217.264 144.646 218.385 144.932 218.463 145.728C218.617 147.285 218.865 148.506 219.051 149.272C219.176 149.784 218.909 150.33 218.41 150.5C215.566 151.468 214.981 151.049 214.903 149.242Z"
            fill="#5F6E4C" />
        <g style="mix-blend-mode:hue">
            <path fill-rule="evenodd" clip-rule="evenodd"
                d="M142.455 195.731L142.401 195.731C134.18 195.731 126.654 193.126 120.515 188.767C112.96 186.78 106.255 183.294 102.433 178.197C101.296 176.682 101.603 174.533 103.118 173.397C104.633 172.261 106.782 172.568 107.919 174.083C108.104 174.33 108.303 174.575 108.515 174.816C104.671 167.19 103.382 158.195 105.678 149.097C106.416 146.17 106.434 143.122 105.746 140.209C103.359 139.323 101.352 138.692 99.8167 138.308C97.7172 137.783 96.4407 135.656 96.9656 133.556C97.4904 131.457 99.6179 130.18 101.717 130.705C101.914 130.755 102.117 130.807 102.326 130.863C97.2522 117.276 103.661 102.975 115.433 96.8838C119.006 82.2113 132.235 71.3193 148.007 71.3193C173.01 71.3193 193.945 88.7373 199.339 112.101C200.547 116.241 201.463 120.553 202.021 124.907C202.226 124.97 202.429 125.03 202.628 125.089C210.966 127.533 223.797 129.119 223.797 129.119C226.086 129.79 227.064 132.494 225.729 134.458C220.39 142.316 211.206 146.619 201.77 145.933C200.3 155.568 196.641 167.107 188.334 176.187C181.564 184.365 172.425 190.51 161.968 193.57C162.753 195.552 162.682 197.857 161.576 199.872C159.605 203.461 155.099 204.774 151.509 202.803C148.088 200.925 145.569 198.858 143.863 197.198C143.312 196.662 142.844 196.167 142.455 195.731Z"
                fill="#0B4AED" fill-opacity="0.2" />
        </g>
        <path
            d="M101.717 130.705C99.6179 130.18 97.4904 131.457 96.9656 133.556C96.4407 135.656 97.7172 137.783 99.8167 138.308C107.26 140.169 125.792 147.833 144.856 162.226C146.116 162.568 147.368 162.859 148.721 163.173C152.224 163.986 156.41 164.957 163.198 167.398C139.21 145.009 112.17 133.318 101.717 130.705Z"
            fill="#9F864F" />
        <path
            d="M107.919 174.083C106.782 172.568 104.633 172.261 103.118 173.397C101.604 174.533 101.296 176.682 102.433 178.197C107.703 185.224 118.45 189.188 129.353 190.385C138.217 191.359 147.928 190.596 156.251 187.643C154.473 185.896 154.007 185.211 153.204 184.03C152.83 183.482 152.384 182.827 151.7 181.908C145.065 183.842 137.386 184.369 130.102 183.569C119.82 182.44 111.465 178.811 107.919 174.083Z"
            fill="#9F864F" />
        <path fill-rule="evenodd" clip-rule="evenodd"
            d="M201.878 123.859C201.374 121.367 200.676 118.675 199.708 115.892C197.011 108.138 193.532 111.451 194.075 121.77C194.565 131.076 195.789 140.383 199.218 143.812C200.164 144.757 201.378 144.223 202.203 142.595C202.528 139.582 202.647 136.833 202.647 134.505C202.647 130.97 202.379 127.397 201.878 123.859ZM169.639 152.14C169.15 146.372 171.747 140.776 176.468 137.426C180.713 134.413 186.566 135.331 188.439 140.188C190.13 144.571 191.433 150.434 190.402 157.036C189.495 162.835 186.645 166.355 183.413 168.488C177.316 172.511 170.841 166.329 170.224 159.05L169.639 152.14Z"
            fill="#F1FFF7" />
        <path
            d="M192.361 150.179C192.361 144.399 202.647 148.22 202.647 150.179C202.647 152.139 200.198 155.322 197.749 155.812C195.565 156.249 192.361 155.567 192.361 150.179Z"
            fill="#FF8A00" />
        <path
            d="M194.32 142.831C198.449 138.702 206.076 147.729 204.116 149.688C201.667 152.137 194.81 152.627 192.361 150.178C191.871 146.75 193.341 143.811 194.32 142.831Z"
            fill="#FFC200" />
        <path fill-rule="evenodd" clip-rule="evenodd"
            d="M180.841 150.658C180.841 150.822 180.844 150.988 180.851 151.159C181.008 155.564 181.769 158.016 183.055 160.465C184.987 164.145 189.667 163.894 189.667 156.547C189.667 154.588 189.35 149.771 187.463 146.751C185.821 144.124 183.299 143.918 181.889 146.133C182.588 146.565 183.055 147.338 183.055 148.22C183.055 149.493 182.083 150.54 180.841 150.658Z"
            fill="#4B7258" />
        <path fill-rule="evenodd" clip-rule="evenodd"
            d="M195.308 133.748C195.855 136.831 196.603 139.535 197.632 141.539C198.543 141.863 199.708 141.385 199.708 138.913C199.708 136.954 199.693 134.015 198.455 130.676C197.52 128.156 195.828 128.476 195.045 130.235C195.768 130.523 196.279 131.229 196.279 132.055C196.279 132.777 195.889 133.408 195.308 133.748Z"
            fill="#4B7258" />
        <path
            d="M218.811 132.546C218.811 132.546 228.069 125.199 234.926 125.199C236.445 125.199 226.159 143.322 223.22 163.894C222.987 165.524 221.97 166.155 220.972 166.37C219.835 166.615 218.675 167.347 218.517 168.5L217.342 177.119L210.485 169.282L218.811 132.546Z"
            fill="#CAF2C9" />
        <path
            d="M209.015 155.077C210.599 151.514 213.423 151.648 213.423 151.648C213.423 147.504 215.372 139.464 216.521 135.082C217.032 133.132 218.308 131.485 220.08 130.525C224.384 128.195 232.497 124.136 234.975 125.199C235.876 125.585 225.179 129.117 220.281 133.035C218.308 134.614 223.139 143.62 225.473 147.691C226.077 148.745 225.622 150.104 224.506 150.585C222.216 151.572 218.493 153.263 215.383 155.077C210.685 157.818 219.13 170.259 222.709 175.143C223.605 176.366 223.772 177.977 223.074 179.324C220.21 184.855 212.65 198.927 209.505 199.65C203.567 201.016 197.452 199.262 194.611 198.229C193.667 197.886 193.22 196.868 193.553 195.921C195.784 189.557 203.975 166.418 209.015 155.077Z"
            fill="#F1FFF7" />
        <path fill-rule="evenodd" clip-rule="evenodd"
            d="M203.886 167.668C204.799 165.301 205.702 163.006 206.566 160.879C206.785 161.05 206.937 161.315 206.942 161.644C206.988 164.552 207.194 167.058 208.106 169.528C208.265 169.96 208.131 170.452 207.756 170.719L205.984 171.985C205.468 172.354 204.744 172.14 204.567 171.53C204.243 170.407 204.006 169.089 203.886 167.668ZM214.089 145.805C214.404 145.841 214.737 145.726 214.964 145.445L216.716 143.269C216.943 142.987 216.994 142.602 216.86 142.266C216.31 140.878 215.959 139.558 215.738 138.167C215.161 140.526 214.541 143.264 214.089 145.805ZM206.118 186.134C206.111 186.777 206.693 187.281 207.323 187.155L210.143 186.591C210.621 186.496 210.955 186.066 210.934 185.58C210.919 185.248 210.905 184.902 210.89 184.545L210.89 184.543L210.89 184.542L210.89 184.542V184.542C210.859 183.804 210.827 183.019 210.785 182.214C211.922 181.81 213.004 181.468 213.922 181.242C214.452 181.111 214.813 180.597 214.715 180.059L214.107 176.713C214.003 176.143 213.431 175.786 212.875 175.949C212.049 176.19 211.167 176.455 210.265 176.746C210.14 175.974 209.987 175.244 209.798 174.582C209.654 174.077 209.111 173.821 208.613 173.987L205.951 174.874C205.468 175.035 205.19 175.539 205.287 176.039C205.428 176.766 205.553 177.588 205.661 178.456C204.749 178.858 203.893 179.287 203.139 179.745C202.832 179.932 202.668 180.28 202.7 180.638L203.007 184.016C203.07 184.703 203.804 185.115 204.43 184.824C204.945 184.585 205.505 184.333 206.091 184.079C206.115 184.812 206.124 185.508 206.118 186.134ZM214.903 149.241C214.888 148.894 214.985 148.552 215.16 148.252L216.861 145.336C217.264 144.645 218.385 144.931 218.463 145.727C218.617 147.284 218.865 148.505 219.051 149.271C219.176 149.783 218.909 150.329 218.41 150.499C215.566 151.467 214.981 151.048 214.903 149.241Z"
            fill="#008C6A" />
        <path
            d="M198.908 180.732C198.908 180.732 184.784 176.894 175.832 172.815C172.103 171.116 166.891 168.791 161.503 166.832C156.733 165.097 147.638 163.01 143.87 161.934C133.584 158.995 146.319 167.811 148.042 172.815C150.09 181.906 156.322 189.873 165.3 193.964C177.413 199.483 191.512 196.575 200.216 187.026C202.028 185.039 201.365 181.851 198.908 180.732Z"
            fill="#4ECC33" />
    </g>
    <defs>
        <clipPath id="clip0_44_53923">
            <rect width="270" height="270" fill="white" transform="translate(0 0.691406)" />
        </clipPath>
    </defs>
</svg>